<svg width="21" height="21" viewBox="0 0 21 21" fill="none" xmlns="http://www.w3.org/2000/svg">
<rect x="20.8057" y="0.173828" width="20.8057" height="20.8057" rx="10.4028" transform="rotate(90 20.8057 0.173828)" fill="#B6F501"/>
<path d="M9.99034 4.99884C10.1234 4.86592 10.3038 4.79126 10.4919 4.79126C10.68 4.79126 10.8604 4.86592 10.9935 4.99884L15.0156 9.02091C15.1485 9.154 15.2231 9.3344 15.2231 9.52249C15.2231 9.71058 15.1485 9.89098 15.0156 10.0241L10.9935 14.0461C10.859 14.1717 10.681 14.2401 10.497 14.2369C10.313 14.2337 10.1375 14.1592 10.0074 14.0291C9.87727 13.899 9.80278 13.7235 9.7996 13.5395C9.79643 13.3555 9.86481 13.1775 9.99034 13.043L12.8011 10.2323L5.02521 10.2323C4.83696 10.2323 4.65643 10.1575 4.52332 10.0244C4.39021 9.89127 4.31543 9.71073 4.31543 9.52249C4.31543 9.33424 4.39021 9.15371 4.52332 9.0206C4.65643 8.88749 4.83696 8.81271 5.02521 8.81271L12.8011 8.81271L9.99034 6.00199C9.85742 5.86891 9.78276 5.6885 9.78276 5.50041C9.78276 5.31232 9.85742 5.13192 9.99034 4.99884Z" fill="black"/>
</svg>
