<svg width="608" height="168" viewBox="0 0 608 168" fill="none" xmlns="http://www.w3.org/2000/svg">
<path d="M387.621 93.331C388.449 93.6636 388.886 94.5885 388.6 95.4469C388.303 96.3386 387.34 96.821 386.448 96.5244C383.045 95.3924 379.654 94.505 376.368 93.8862C375.447 93.7139 374.837 92.8228 375.011 91.8993C375.185 90.9754 376.074 90.3677 376.998 90.5417C380.434 91.1884 383.975 92.1149 387.522 93.2952C387.556 93.306 387.588 93.3181 387.621 93.331ZM399.45 98.1612C399.485 98.1753 399.52 98.1907 399.555 98.2073C402.645 99.6926 405.848 101.401 409.077 103.284C409.888 103.758 410.163 104.8 409.689 105.612C409.216 106.424 408.176 106.7 407.362 106.224C404.212 104.386 401.089 102.721 398.08 101.275C397.233 100.868 396.876 99.8513 397.284 99.004C397.674 98.1916 398.625 97.8304 399.45 98.1612ZM419.646 110.027C419.76 110.073 419.87 110.132 419.976 110.204C423.147 112.377 425.986 114.471 428.652 116.603C429.386 117.19 429.505 118.261 428.918 118.995C428.331 119.729 427.259 119.848 426.526 119.261C423.926 117.181 421.154 115.137 418.052 113.011C417.276 112.48 417.079 111.421 417.61 110.646C418.069 109.976 418.923 109.737 419.646 110.027ZM364.601 89.4919C365.216 89.7387 365.655 90.335 365.669 91.0396C365.687 91.9792 364.939 92.7556 364 92.7734C360.558 92.8386 357.114 93.2466 353.766 93.9861C352.848 94.1885 351.94 93.6093 351.737 92.6916C351.534 91.7738 352.114 90.8656 353.031 90.6629C356.6 89.8748 360.268 89.4399 363.935 89.3704C364.17 89.3659 364.396 89.4095 364.601 89.4919ZM437.712 124.915C437.927 125.002 438.128 125.133 438.299 125.31C440.915 128.01 443.281 130.807 445.329 133.623C445.882 134.383 445.714 135.448 444.954 136.001C444.195 136.553 443.13 136.385 442.577 135.625C440.622 132.938 438.361 130.264 435.855 127.679C435.201 127.004 435.218 125.927 435.893 125.273C436.391 124.79 437.108 124.673 437.712 124.915ZM342.021 95.0372C342.387 95.1842 342.704 95.4585 342.899 95.8367C343.33 96.6721 343.002 97.6985 342.166 98.1291C339.029 99.7462 336.203 101.686 333.769 103.894C333.073 104.525 331.997 104.474 331.365 103.777C330.733 103.081 330.786 102.005 331.482 101.373C334.136 98.9662 337.206 96.8568 340.607 95.1036C341.064 94.868 341.579 94.8596 342.021 95.0372ZM450.967 144.099C451.368 144.26 451.708 144.572 451.894 144.999C453.395 148.447 454.518 151.971 455.232 155.475C455.419 156.395 454.825 157.294 453.904 157.481C452.983 157.669 452.084 157.074 451.897 156.153C451.231 152.883 450.18 149.587 448.773 146.358C448.398 145.497 448.792 144.494 449.654 144.118C450.089 143.929 450.56 143.935 450.967 144.099ZM584.785 212.727C585.62 213.062 586.054 213.997 585.759 214.858C585.455 215.747 584.487 216.221 583.598 215.916C580.319 214.793 576.929 213.801 573.521 212.968C572.61 212.742 572.049 211.823 572.272 210.91C572.495 209.997 573.416 209.438 574.329 209.661C577.836 210.519 581.326 211.54 584.701 212.696C584.729 212.706 584.757 212.716 584.785 212.727ZM596.62 217.545C596.654 217.558 596.687 217.573 596.72 217.588C600.004 219.151 603.209 220.88 606.248 222.727C607.051 223.215 607.306 224.262 606.818 225.065C606.33 225.868 605.284 226.124 604.48 225.635C601.54 223.848 598.437 222.175 595.257 220.661C594.408 220.257 594.048 219.242 594.452 218.393C594.84 217.577 595.793 217.213 596.62 217.545ZM114.853 24.6909C114.86 24.6937 114.867 24.6969 114.874 24.6998C117.535 25.8092 120.115 26.9544 122.543 28.1039C123.245 28.4357 123.95 28.7656 124.657 29.094C125.509 29.49 125.879 30.5017 125.483 31.3543C125.087 32.2065 124.072 32.5817 123.223 32.1802C122.509 31.849 121.798 31.5157 121.088 31.1803C118.707 30.0536 116.176 28.9299 113.565 27.841C112.697 27.4795 112.287 26.4828 112.649 25.6155C113.008 24.7552 113.991 24.3448 114.853 24.6909ZM102.907 20.1227C103.747 20.46 104.18 21.4029 103.877 22.2659C103.566 23.1526 102.594 23.6188 101.707 23.3071C98.4803 22.1728 95.0945 21.0582 91.6444 19.9935C90.7453 19.7182 90.2425 18.764 90.52 17.8657C90.797 16.968 91.7494 16.4644 92.6474 16.7415C96.1395 17.8187 99.5675 18.9474 102.836 20.0961C102.86 20.1045 102.883 20.1133 102.907 20.1227ZM136.215 34.3535C136.24 34.3634 136.264 34.374 136.289 34.3853C138.959 35.6036 142.472 37.2273 145.973 38.9846C146.813 39.406 147.152 40.4289 146.73 41.269C146.308 42.109 145.285 42.449 144.446 42.0263C140.995 40.2942 137.519 38.6875 134.876 37.4815C134.021 37.0914 133.644 36.0819 134.034 35.227C134.413 34.3966 135.377 34.017 136.215 34.3535ZM325.593 111.186C325.63 111.201 325.666 111.217 325.702 111.234C326.548 111.643 326.902 112.661 326.493 113.507C326.423 113.652 326.354 113.797 326.287 113.942C326.058 114.436 325.84 114.941 325.638 115.445C324.687 117.816 323.98 120.421 323.539 123.188C323.391 124.116 322.519 124.748 321.591 124.6C320.666 124.452 320.03 123.58 320.178 122.652C320.659 119.635 321.434 116.784 322.48 114.177C322.704 113.619 322.945 113.059 323.198 112.514C323.273 112.351 323.35 112.187 323.429 112.025C323.821 111.215 324.771 110.856 325.593 111.186ZM80.4829 13.2671C81.2695 13.5827 81.7149 14.4426 81.492 15.2823C81.2506 16.1907 80.3188 16.7315 79.4106 16.4906C76.0566 15.5999 72.593 14.7359 69.1157 13.9225C68.1963 13.7094 67.6322 12.7932 67.8462 11.8782C68.0603 10.9628 68.9756 10.3944 69.8906 10.6087C73.4007 11.4298 76.8976 12.3021 80.2837 13.2009C80.3525 13.2191 80.4189 13.2414 80.4829 13.2671ZM561.998 207.363C562.704 207.646 563.156 208.381 563.049 209.169C562.924 210.1 562.067 210.754 561.136 210.628C557.674 210.162 554.153 209.843 550.671 209.682C549.733 209.641 549.007 208.843 549.05 207.904C549.093 206.965 549.89 206.239 550.828 206.282C554.409 206.448 558.03 206.775 561.59 207.255C561.733 207.275 561.87 207.311 561.998 207.363ZM156.999 45.1605C157.094 45.1987 157.188 45.246 157.277 45.3029C160.542 47.3697 163.423 49.4533 166.085 51.6735C166.807 52.2754 166.904 53.3486 166.302 54.0703C165.7 54.7924 164.626 54.8886 163.905 54.2872C161.358 52.1632 158.595 50.1649 155.457 48.1785C154.663 47.6758 154.427 46.6249 154.929 45.8307C155.375 45.1264 156.253 44.8609 156.999 45.1605ZM454.865 166.953C455.555 167.23 456.006 167.941 455.921 168.717C455.653 171.177 455.146 173.588 454.416 175.881C454.137 176.758 453.813 177.658 453.453 178.555C453.331 178.859 453.205 179.162 453.076 179.463C452.707 180.327 451.707 180.742 450.843 180.359C449.978 179.989 449.577 178.989 449.947 178.125C450.066 177.847 450.181 177.568 450.294 177.287C450.623 176.467 450.919 175.647 451.173 174.849C451.835 172.77 452.294 170.583 452.538 168.347C452.64 167.413 453.48 166.738 454.415 166.841C454.573 166.858 454.724 166.896 454.865 166.953ZM57.6412 7.98304C58.3863 8.28206 58.8369 9.07839 58.6742 9.89449C58.491 10.8161 57.5947 11.4146 56.6729 11.2308C53.2228 10.5436 49.7106 9.89305 46.2344 9.29681C45.3074 9.13705 44.6863 8.2582 44.8448 7.33172C45.0038 6.40547 45.8835 5.78329 46.8099 5.94203C50.3157 6.54369 53.8579 7.20012 57.3379 7.89318C57.4432 7.9141 57.5448 7.94435 57.6412 7.98304ZM34.5079 4.07666C35.2162 4.36091 35.6681 5.0998 35.5582 5.89C35.4291 6.821 34.5695 7.47081 33.6386 7.3414C30.1269 6.85368 26.5833 6.41115 23.106 6.0253C22.1717 5.92167 21.4987 5.08028 21.6022 4.14623C21.7061 3.21201 22.5472 2.53883 23.4813 2.64235C26.9893 3.03152 30.5644 3.47872 34.1068 3.97038C34.2475 3.98991 34.3819 4.02608 34.5079 4.07666ZM538.599 206.499C539.189 206.736 539.622 207.296 539.664 207.974C539.722 208.912 539.009 209.719 538.071 209.778C534.558 209.995 531.047 210.378 527.636 210.916C526.708 211.062 525.836 210.428 525.69 209.5C525.543 208.572 526.177 207.701 527.106 207.554C530.623 207 534.241 206.605 537.861 206.381C538.121 206.365 538.371 206.408 538.599 206.499ZM174.582 60.5049C174.845 60.6104 175.085 60.7829 175.275 61.0202C177.574 63.8914 179.619 66.9527 181.353 70.1184C181.804 70.9427 181.502 71.9769 180.678 72.4283C179.853 72.8799 178.82 72.5775 178.368 71.7533C176.729 68.7604 174.794 65.8646 172.618 63.147C172.031 62.4135 172.15 61.3428 172.883 60.7552C173.38 60.3578 174.031 60.2837 174.582 60.5049ZM11.1903 1.56461C11.8608 1.83371 12.31 2.51353 12.253 3.27206C12.1823 4.20912 11.3652 4.91187 10.4281 4.84119C6.85351 4.57166 3.29167 4.36053 -0.158663 4.21371C-1.09737 4.17426 -1.82675 3.38017 -1.78653 2.44139C-1.74652 1.50215 -0.953124 0.773599 -0.0138627 0.813635C3.47322 0.961801 7.07252 1.17529 10.6838 1.44721C10.8624 1.46092 11.0327 1.50137 11.1903 1.56461ZM213.8 88.1909C214.086 88.3054 214.371 88.4209 214.655 88.5379C215.525 88.8945 215.94 89.8887 215.583 90.758C215.228 91.6234 214.242 92.0394 213.376 91.6916C213.371 91.6899 213.367 91.6879 213.363 91.6863C210.181 90.3796 206.861 89.1792 203.476 88.1022C202.575 87.8097 202.086 86.8598 202.371 85.9646C202.656 85.069 203.613 84.5741 204.508 84.859C207.678 85.8678 210.805 86.9886 213.8 88.1909ZM226.195 93.9992C226.256 94.0236 226.316 94.0516 226.375 94.0835C229.568 95.8165 232.669 97.7019 235.592 99.6872L235.634 99.7167C236.407 100.252 236.599 101.312 236.063 102.085C235.527 102.857 234.467 103.05 233.695 102.513L234.665 101.115L233.688 102.508C230.85 100.58 227.846 98.7542 224.752 97.0751C223.926 96.6269 223.619 95.594 224.067 94.7678C224.484 94.0006 225.404 93.6817 226.195 93.9992ZM515.518 210.398C515.99 210.587 516.372 210.984 516.522 211.511C516.78 212.414 516.256 213.356 515.352 213.614C511.961 214.581 508.632 215.73 505.457 217.028C504.587 217.382 503.594 216.966 503.238 216.097C502.882 215.226 503.299 214.233 504.169 213.877C507.459 212.532 510.908 211.342 514.419 210.341C514.796 210.233 515.18 210.262 515.518 210.398ZM192.286 81.5671C193.048 81.8727 193.497 82.6934 193.311 83.5197C193.104 84.4364 192.194 85.0124 191.277 84.806C189.775 84.4679 188.249 84.148 186.707 83.8483C187.456 87.0068 187.872 90.1532 187.946 93.2226C187.969 94.1619 187.225 94.942 186.285 94.9645C185.347 94.9869 184.566 94.2442 184.543 93.304C184.464 90.0089 183.955 86.6087 183.03 83.1976C183.028 83.1907 183.026 83.1833 183.024 83.1761C182.324 83.0567 181.621 82.941 180.918 82.8302C179.99 82.6837 179.356 81.8123 179.503 80.884C179.649 79.9556 180.52 79.3217 181.449 79.4682C185.033 80.0339 188.591 80.7127 192.024 81.4856C192.115 81.5061 192.203 81.5336 192.286 81.5671ZM322.015 134.095C322.607 134.332 323.041 134.895 323.081 135.574C323.26 138.592 323.618 141.913 324.208 146.028C324.341 146.958 323.695 147.82 322.765 147.954C321.834 148.087 320.972 147.441 320.839 146.511C320.235 142.301 319.868 138.889 319.683 135.775C319.628 134.837 320.343 134.031 321.281 133.976C321.54 133.961 321.789 134.004 322.015 134.095ZM-12.243 0.671448C-11.6184 0.922116 -11.1767 1.53228 -11.1746 2.24642C-11.1718 3.18619 -11.9316 3.95029 -12.8714 3.95316C-16.5062 3.96377 -20.065 4.05382 -23.4492 4.22047C-24.3884 4.26703 -25.1862 3.54329 -25.2326 2.60454C-25.2787 1.66588 -24.5554 0.86754 -23.6166 0.821154C-20.1804 0.651862 -16.5686 0.56065 -12.8814 0.549677C-12.6557 0.548929 -12.4402 0.592317 -12.243 0.671448ZM245.363 107.411C245.543 107.483 245.714 107.588 245.866 107.724C248.577 110.158 251.147 112.75 253.507 115.427C254.129 116.132 254.061 117.208 253.356 117.829C252.651 118.45 251.576 118.383 250.954 117.677C248.682 115.099 246.205 112.602 243.592 110.257C242.893 109.629 242.835 108.553 243.463 107.854C243.954 107.307 244.719 107.152 245.363 107.411ZM445.892 188.351C445.993 188.392 446.091 188.442 446.185 188.504C446.974 189.014 447.199 190.068 446.688 190.857C446.303 191.452 445.915 192.046 445.527 192.64C444.008 194.968 442.437 197.375 441.044 199.792C440.575 200.606 439.532 200.888 438.72 200.416C437.906 199.947 437.626 198.906 438.095 198.092C439.535 195.594 441.132 193.146 442.677 190.78C443.063 190.189 443.448 189.598 443.832 189.007C444.281 188.312 445.152 188.054 445.892 188.351ZM169.115 78.1123C169.776 78.3776 170.225 79.0425 170.18 79.7923C170.125 80.7308 169.319 81.4462 168.381 81.3907C164.573 81.1656 161.179 81.2108 158.005 81.5286C157.07 81.6221 156.236 80.9402 156.143 80.005C156.049 79.0697 156.731 78.2356 157.666 78.1421C161.022 77.806 164.592 77.7573 168.582 77.9931C168.77 78.0046 168.95 78.0459 169.115 78.1123ZM260.573 125.163C260.89 125.29 261.172 125.514 261.37 125.823C263.358 128.924 265.116 132.137 266.596 135.375C266.987 136.229 266.61 137.239 265.756 137.63C264.901 138.02 263.891 137.644 263.501 136.79C262.087 133.698 260.406 130.626 258.505 127.66C257.998 126.869 258.228 125.816 259.02 125.309C259.501 125 260.08 124.965 260.573 125.163ZM493.997 219.539C494.334 219.674 494.631 219.918 494.829 220.255C495.305 221.066 495.035 222.108 494.225 222.585C491.876 223.967 489.521 225.473 487.245 226.93C486.577 227.357 485.91 227.784 485.242 228.209C484.448 228.713 483.397 228.478 482.893 227.686C482.388 226.892 482.623 225.841 483.416 225.336C484.081 224.914 484.746 224.489 485.41 224.063C487.714 222.589 490.095 221.066 492.499 219.651C492.972 219.373 493.525 219.35 493.997 219.539ZM146.111 81.3342C146.509 81.4938 146.846 81.8024 147.033 82.2246C147.414 83.084 147.026 84.0892 146.166 84.4697C143.034 85.8565 140.153 87.7749 137.836 90.0169C137.161 90.67 136.083 90.6525 135.43 89.9772C134.776 89.302 134.794 88.2245 135.47 87.5711C138.071 85.0534 141.294 82.9048 144.788 81.3576C145.225 81.1642 145.7 81.1693 146.111 81.3342ZM325.004 157.345C325.559 157.568 325.979 158.076 326.059 158.712C326.586 162.882 326.856 166.316 326.907 169.518C326.922 170.458 326.173 171.232 325.233 171.247C324.295 171.263 323.52 170.514 323.504 169.574C323.455 166.499 323.194 163.182 322.683 159.138C322.565 158.206 323.226 157.354 324.158 157.237C324.455 157.199 324.744 157.241 325.004 157.345ZM185.022 104.266C185.856 104.6 186.291 105.533 185.998 106.393C185.943 106.555 185.887 106.717 185.829 106.879C185.685 107.287 185.53 107.698 185.368 108.1C184.215 110.975 182.638 113.707 180.683 116.219C180.106 116.961 179.036 117.094 178.295 116.517C177.553 115.94 177.42 114.871 177.997 114.129C179.757 111.867 181.174 109.412 182.21 106.832C182.354 106.473 182.493 106.106 182.622 105.742C182.674 105.593 182.726 105.445 182.776 105.296C183.079 104.406 184.046 103.931 184.936 104.234C184.965 104.244 184.994 104.254 185.022 104.266ZM435.417 209.166C436.176 209.471 436.625 210.288 436.442 211.113C435.653 214.668 435.552 217.993 436.142 220.993C436.324 221.916 435.723 222.81 434.801 222.991C433.878 223.173 432.984 222.572 432.803 221.65C432.122 218.186 432.228 214.393 433.12 210.376C433.323 209.458 434.232 208.88 435.15 209.083C435.242 209.104 435.332 209.132 435.417 209.166ZM269.888 146.556C270.38 146.753 270.773 147.177 270.909 147.732C270.987 148.054 271.063 148.377 271.137 148.701C271.77 151.479 272.272 154.476 272.765 158.419C272.882 159.351 272.22 160.202 271.288 160.319C270.354 160.436 269.505 159.773 269.388 158.841C268.909 155.015 268.425 152.12 267.819 149.456C267.749 149.15 267.677 148.845 267.602 148.54C267.379 147.627 267.939 146.706 268.852 146.483C269.21 146.395 269.57 146.428 269.888 146.556ZM473.869 231.538C474.253 231.692 474.582 231.985 474.773 232.388C475.175 233.238 474.813 234.252 473.964 234.655C471.661 235.746 469.478 236.607 467.291 237.286C466.064 237.668 464.787 237.985 463.497 238.23C462.574 238.405 461.684 237.799 461.508 236.876C461.333 235.952 461.939 235.062 462.863 234.886C464.026 234.666 465.176 234.38 466.281 234.036C468.314 233.404 470.35 232.601 472.506 231.579C472.952 231.368 473.444 231.367 473.869 231.538ZM130.877 98.0773C131.644 98.385 132.092 99.2142 131.899 100.043C131.771 100.588 131.669 101.143 131.595 101.693C131.248 104.284 131.541 106.939 132.465 109.583C132.775 110.47 132.307 111.44 131.419 111.751C130.532 112.06 129.562 111.592 129.252 110.705C128.15 107.552 127.803 104.368 128.222 101.241C128.31 100.583 128.432 99.9196 128.585 99.2685C128.799 98.3535 129.714 97.7849 130.629 97.9991C130.715 98.019 130.798 98.0455 130.877 98.0773ZM324.545 180.651C325.321 180.963 325.768 181.806 325.561 182.64C325.392 183.318 325.205 183.997 325.003 184.657C324.757 185.463 324.472 186.274 324.154 187.066C323.343 189.087 322.306 191.046 321.072 192.889C320.549 193.67 319.489 193.878 318.712 193.356C317.93 192.833 317.721 191.776 318.244 190.995C319.346 189.349 320.272 187.6 320.995 185.798C321.277 185.095 321.53 184.377 321.748 183.664C321.932 183.061 322.104 182.441 322.258 181.82C322.484 180.908 323.407 180.352 324.319 180.578C324.397 180.598 324.473 180.622 324.545 180.651ZM441.513 230.502C441.667 230.564 441.815 230.65 441.952 230.761C444.331 232.693 447.38 234.088 450.829 234.828C451.747 235.024 452.333 235.93 452.136 236.849C451.939 237.768 451.034 238.353 450.116 238.156C446.14 237.304 442.602 235.673 439.806 233.403C439.077 232.81 438.965 231.739 439.558 231.009C440.04 230.416 440.839 230.231 441.513 230.502ZM170.388 121.939C170.731 122.077 171.032 122.327 171.231 122.674C171.697 123.49 171.414 124.529 170.598 124.995C167.248 126.91 163.695 128.175 160.036 128.754C159.107 128.901 158.236 128.268 158.089 127.34C157.942 126.411 158.576 125.54 159.504 125.393C162.754 124.878 165.918 123.75 168.909 122.041C169.378 121.772 169.922 121.752 170.388 121.939ZM273.257 169.745C273.8 169.962 274.216 170.454 274.308 171.074C274.852 174.734 275.483 177.723 276.292 180.482C276.363 180.727 276.437 180.97 276.515 181.214C276.798 182.11 276.301 183.066 275.404 183.349C274.508 183.632 273.552 183.135 273.269 182.238C273.185 181.972 273.104 181.705 273.026 181.438C272.172 178.528 271.509 175.393 270.942 171.575C270.804 170.645 271.445 169.78 272.374 169.641C272.684 169.595 272.986 169.636 273.257 169.745ZM138.689 118.968C138.865 119.039 139.031 119.14 139.181 119.272C141.441 121.266 144.087 122.903 146.833 124.005C147.134 124.126 147.437 124.241 147.742 124.35C148.619 124.675 149.087 125.641 148.77 126.526C148.454 127.41 147.48 127.871 146.595 127.554C146.249 127.431 145.906 127.3 145.565 127.164C142.463 125.918 139.476 124.072 136.929 121.824C136.224 121.202 136.157 120.127 136.779 119.422C137.269 118.868 138.039 118.708 138.689 118.968ZM311.133 199.137C311.471 199.272 311.767 199.516 311.966 199.854C312.442 200.664 312.17 201.707 311.36 202.183C307.885 204.224 304.224 205.339 300.482 205.496C299.542 205.536 298.749 204.806 298.71 203.867C298.671 202.928 299.4 202.134 300.339 202.095C303.519 201.962 306.647 201.004 309.637 199.248C310.109 198.971 310.661 198.947 311.133 199.137ZM281.256 191.52C281.539 191.634 281.796 191.825 281.99 192.089C284.118 194.974 286.544 197.292 289.199 198.979C289.993 199.484 290.227 200.535 289.723 201.328C289.219 202.121 288.168 202.356 287.374 201.852C284.363 199.939 281.63 197.334 279.251 194.11C278.693 193.353 278.854 192.288 279.61 191.73C280.103 191.366 280.727 191.308 281.256 191.52Z" fill="#04D1D2"/>
</svg>
