<svg width="78" height="658" viewBox="0 0 78 658" fill="none" xmlns="http://www.w3.org/2000/svg">
<path d="M29.2975 261.954C29.06 261.068 29.5514 260.139 30.4331 259.845C31.3489 259.539 32.3394 260.034 32.6452 260.949C33.8122 264.444 35.1731 267.779 36.6899 270.861C37.1162 271.725 36.7598 272.775 35.8934 273.202C35.0268 273.628 33.9789 273.271 33.5525 272.405C31.9663 269.182 30.5452 265.7 29.3286 262.057C29.317 262.023 29.3067 261.988 29.2975 261.954ZM25.9763 249.253C25.9662 249.216 25.9574 249.178 25.9494 249.139C25.2657 245.683 24.6949 241.997 24.2532 238.182C24.1421 237.223 24.8294 236.356 25.7888 236.244C26.748 236.133 27.6159 236.817 27.7265 237.78C28.1577 241.502 28.7139 245.095 29.3798 248.46C29.5674 249.407 28.9517 250.327 28.0041 250.514C27.0958 250.694 26.2125 250.135 25.9763 249.253ZM23.2808 225.338C23.2482 225.216 23.2285 225.089 23.2227 224.958C23.0542 221.011 23.0252 217.388 23.1346 213.882C23.1649 212.916 23.9714 212.159 24.9367 212.189C25.9021 212.218 26.66 213.027 26.6298 213.991C26.5229 217.41 26.5513 220.949 26.7162 224.809C26.7577 225.774 26.0092 226.589 25.0443 226.63C24.2107 226.666 23.4881 226.112 23.2808 225.338ZM40.3315 283.242C40.1553 282.585 40.3745 281.856 40.9453 281.41C41.7067 280.817 42.8055 280.952 43.3993 281.714C45.5746 284.503 48.0325 287.082 50.7046 289.379C51.4364 290.008 51.5205 291.112 50.891 291.844C50.2615 292.576 49.1577 292.66 48.4255 292.03C45.5779 289.583 42.9594 286.836 40.6419 283.864C40.4933 283.674 40.3903 283.462 40.3315 283.242ZM24.3823 201.311C24.3207 201.081 24.3055 200.835 24.345 200.585C24.9518 196.77 25.7927 193.102 26.8446 189.682C27.1288 188.759 28.1072 188.241 29.03 188.525C29.9525 188.809 30.4705 189.787 30.1871 190.71C29.1829 193.973 28.3793 197.481 27.7987 201.134C27.6469 202.088 26.7511 202.737 25.7975 202.586C25.0938 202.474 24.5555 201.957 24.3823 201.311ZM58.808 298.384C58.703 297.993 58.7331 297.563 58.9238 297.17C59.345 296.301 60.3911 295.938 61.2599 296.359C64.5233 297.941 67.8593 299.068 71.1752 299.708C72.1229 299.891 72.7439 300.808 72.5604 301.756C72.3775 302.704 71.4604 303.325 70.5124 303.142C66.8981 302.444 63.2717 301.221 59.7343 299.506C59.2587 299.275 58.9347 298.857 58.808 298.384ZM31.9804 178.59C31.8656 178.162 31.9126 177.69 32.1491 177.274C34.0573 173.915 36.2621 170.819 38.7023 168.073C39.3435 167.351 40.4486 167.286 41.1705 167.928C41.8926 168.568 41.9571 169.674 41.3159 170.396C39.0384 172.959 36.9769 175.854 35.1896 179.001C34.7128 179.841 33.6455 180.135 32.8057 179.658C32.3822 179.417 32.0972 179.026 31.9804 178.59ZM5.9052 26.2913C5.66601 25.3986 6.16615 24.4651 7.05555 24.1769C7.97424 23.8793 8.96024 24.3827 9.2579 25.3014C10.3554 28.6887 11.6297 32.0872 13.0458 35.402C13.4219 36.2893 13.0125 37.3173 12.1247 37.6967C11.2364 38.0759 10.2094 37.6634 9.82982 36.7755C8.3729 33.3641 7.06127 29.8664 5.93127 26.3792C5.92198 26.3499 5.91307 26.3206 5.9052 26.2913ZM2.56926 13.5931C2.55974 13.5576 2.55151 13.5215 2.54385 13.485C1.80446 9.82195 1.24948 6.12117 0.894582 2.48514C0.80049 1.52406 1.50364 0.668893 2.46476 0.57497C3.42564 0.481466 4.28109 1.18365 4.3746 2.14523C4.71834 5.66356 5.25553 9.24591 5.97173 12.793C6.16278 13.7395 5.55021 14.6618 4.60366 14.8529C3.69378 15.0366 2.80626 14.4776 2.56926 13.5931ZM141.013 528.475C141.011 528.467 141.01 528.459 141.008 528.452C140.28 525.581 139.63 522.754 139.079 520.05C138.918 519.268 138.755 518.485 138.59 517.702C138.39 516.758 138.993 515.83 139.938 515.63C140.883 515.43 141.817 516.033 142.011 516.979C142.178 517.769 142.343 518.559 142.504 519.349C143.046 522.001 143.682 524.774 144.397 527.592C144.635 528.528 144.068 529.479 143.132 529.717C142.204 529.952 141.261 529.397 141.013 528.475ZM144.622 541.11C144.381 540.211 144.889 539.274 145.786 538.992C146.707 538.701 147.689 539.212 147.979 540.133C149.036 543.485 150.207 546.955 151.458 550.447C151.786 551.356 151.312 552.358 150.402 552.683C149.494 553.009 148.493 552.537 148.167 551.628C146.9 548.093 145.715 544.58 144.644 541.185C144.636 541.16 144.629 541.135 144.622 541.11ZM135.788 504.96C135.781 504.933 135.775 504.906 135.769 504.879C135.124 501.934 134.293 498.045 133.58 494.084C133.409 493.134 134.041 492.225 134.991 492.054C135.942 491.883 136.852 492.514 137.022 493.464C137.725 497.368 138.547 501.216 139.185 504.132C139.391 505.075 138.794 506.007 137.85 506.214C136.934 506.414 136.028 505.856 135.788 504.96ZM82.2083 301.933C82.1978 301.894 82.1886 301.855 82.181 301.814C81.9957 300.867 82.614 299.948 83.5617 299.763C83.7235 299.732 83.8853 299.699 84.0466 299.664C84.593 299.548 85.1426 299.416 85.6815 299.271C88.2169 298.592 90.7935 297.567 93.3395 296.224C94.1937 295.774 95.2512 296.101 95.7018 296.955C96.15 297.807 95.8249 298.866 94.9708 299.317C92.1944 300.781 89.3735 301.902 86.5865 302.649C85.9896 302.809 85.3806 302.956 84.7763 303.084C84.596 303.123 84.414 303.16 84.2317 303.195C83.3244 303.372 82.444 302.813 82.2083 301.933ZM152.809 563.768C152.584 562.927 153.016 562.031 153.844 561.697C154.739 561.335 155.758 561.768 156.12 562.663C157.455 565.969 158.88 569.348 160.355 572.708C160.747 573.595 160.341 574.623 159.457 575.012C158.573 575.4 157.541 574.998 157.153 574.114C155.665 570.722 154.226 567.31 152.878 563.973C152.85 563.905 152.828 563.837 152.809 563.768ZM15.5413 48.3284C15.3391 47.5735 15.6647 46.7494 16.3782 46.3508C17.2211 45.8798 18.2864 46.1814 18.7573 47.0245C20.5077 50.1579 22.4164 53.2479 24.43 56.209C24.9739 57.0056 24.7665 58.0947 23.9676 58.6379C23.1694 59.181 22.0818 58.9739 21.5385 58.1755C19.4677 55.1302 17.5047 51.9522 15.7046 48.7297C15.6324 48.6003 15.5781 48.4655 15.5413 48.3284ZM131.86 481.214C131.833 481.112 131.814 481.006 131.805 480.897C131.492 476.94 131.428 473.287 131.613 469.731C131.663 468.766 132.485 468.025 133.449 468.075C134.414 468.125 135.155 468.948 135.105 469.911C134.929 473.314 134.989 476.817 135.291 480.621C135.367 481.583 134.649 482.426 133.687 482.502C132.833 482.57 132.074 482.012 131.86 481.214ZM48.3633 161.299C48.1655 160.561 48.4719 159.752 49.162 159.343C51.3499 158.048 53.6435 156.978 55.9793 156.165C56.8719 155.854 57.8112 155.565 58.7705 155.308C59.0958 155.221 59.4222 155.138 59.7491 155.058C60.6868 154.829 61.6445 155.395 61.8619 156.342C62.0911 157.28 61.516 158.226 60.5782 158.455C60.2764 158.529 59.9756 158.606 59.6756 158.686C58.7988 158.921 57.9422 159.184 57.1295 159.467C55.0128 160.204 52.9319 161.174 50.9437 162.352C50.1129 162.844 49.0405 162.569 48.5486 161.738C48.4651 161.598 48.4037 161.45 48.3633 161.299ZM162.546 585.801C162.332 585.004 162.709 584.143 163.48 583.774C164.351 583.356 165.395 583.724 165.812 584.595C167.374 587.854 169.004 591.142 170.657 594.367C171.097 595.228 170.758 596.28 169.898 596.721C169.039 597.161 167.985 596.821 167.545 595.962C165.878 592.71 164.234 589.393 162.659 586.106C162.611 586.006 162.574 585.904 162.546 585.801ZM173.595 607.224C173.392 606.467 173.72 605.64 174.438 605.243C175.283 604.775 176.347 605.081 176.814 605.926C178.578 609.113 180.398 612.299 182.225 615.395C182.715 616.227 182.439 617.299 181.607 617.789C180.775 618.28 179.703 618.003 179.213 617.172C177.37 614.048 175.534 610.834 173.754 607.619C173.684 607.492 173.631 607.359 173.595 607.224ZM29.2551 68.0948C29.0859 67.463 29.2795 66.7619 29.8107 66.3097C30.5459 65.6837 31.6493 65.7723 32.2754 66.5075C34.6195 69.2608 37.0986 71.9107 39.6437 74.3834C40.3354 75.0565 40.3516 76.1632 39.6792 76.8557C39.0062 77.5483 37.8993 77.5641 37.2066 76.8913C34.5832 74.3422 32.0283 71.6112 29.6128 68.7744C29.4391 68.5703 29.3202 68.3377 29.2551 68.0948ZM133.634 457.302C133.559 457.021 133.553 456.717 133.631 456.415C134.574 452.756 135.83 449.188 137.363 445.811C137.762 444.932 138.799 444.543 139.678 444.942C140.557 445.342 140.946 446.377 140.547 447.257C139.097 450.449 137.909 453.824 137.017 457.288C136.776 458.223 135.822 458.785 134.887 458.544C134.254 458.381 133.792 457.892 133.634 457.302ZM185.903 627.939C185.711 627.222 185.993 626.434 186.651 626.013C187.465 625.494 188.546 625.732 189.066 626.546C191.048 629.65 193.07 632.708 195.076 635.635C195.622 636.431 195.419 637.52 194.623 638.065C193.826 638.611 192.738 638.408 192.192 637.612C190.164 634.654 188.121 631.564 186.119 628.428C186.02 628.273 185.948 628.108 185.903 627.939ZM132.217 408C132.135 407.695 132.055 407.389 131.976 407.083C131.733 406.149 132.294 405.194 133.228 404.952C134.158 404.71 135.108 405.265 135.357 406.191C135.358 406.196 135.359 406.2 135.36 406.205C136.247 409.625 137.307 413.095 138.508 416.541C138.823 417.462 138.344 418.449 137.432 418.767C136.521 419.085 135.524 418.603 135.206 417.691C134.081 414.464 133.076 411.203 132.217 408ZM129.351 394.231C129.334 394.166 129.32 394.1 129.31 394.032C128.766 390.338 128.404 386.627 128.235 383.001L128.232 382.948C128.197 381.983 128.95 381.172 129.915 381.136C130.88 381.1 131.692 381.853 131.727 382.818L129.98 382.883L131.727 382.828C131.891 386.349 132.242 389.943 132.769 393.522C132.91 394.477 132.25 395.365 131.295 395.506C130.407 395.637 129.578 395.077 129.351 394.231ZM46.6866 84.6632C46.5515 84.159 46.6427 83.6 46.983 83.1521C47.5669 82.383 48.6635 82.2331 49.4326 82.8172C52.3182 85.0086 55.3146 87.0373 58.3385 88.8467C59.1663 89.343 59.4364 90.4164 58.9409 91.2447C58.4449 92.0733 57.3714 92.3431 56.543 91.8472C53.4092 89.972 50.3054 87.8708 47.3179 85.6017C46.9969 85.358 46.7835 85.0247 46.6866 84.6632ZM140.034 429.767C139.816 428.953 140.214 428.078 141.008 427.721C141.888 427.326 142.923 427.719 143.319 428.6C143.966 430.043 144.644 431.495 145.348 432.947C147.483 430.384 149.813 428.103 152.29 426.15C153.048 425.552 154.148 425.683 154.745 426.441C155.342 427.199 155.213 428.298 154.454 428.897C151.795 430.993 149.314 433.507 147.08 436.37C147.076 436.376 147.071 436.383 147.066 436.389C147.399 437.038 147.737 437.686 148.08 438.333C148.531 439.186 148.206 440.244 147.353 440.696C146.499 441.148 145.441 440.822 144.989 439.969C143.245 436.674 141.61 433.331 140.128 430.032C140.089 429.945 140.058 429.856 140.034 429.767ZM103.244 290.754C103.075 290.12 103.27 289.417 103.803 288.966C106.174 286.959 108.684 284.617 111.702 281.596C112.384 280.913 113.491 280.912 114.174 281.594C114.857 282.278 114.858 283.384 114.175 284.067C111.087 287.158 108.509 289.563 106.063 291.634C105.327 292.258 104.223 292.167 103.599 291.43C103.427 291.226 103.309 290.995 103.244 290.754ZM199.613 647.751C199.434 647.084 199.664 646.344 200.249 645.902C201.02 645.321 202.117 645.474 202.698 646.245C204.947 649.226 207.215 652.096 209.438 654.775C210.055 655.518 209.952 656.62 209.209 657.237C208.466 657.854 207.364 657.751 206.747 657.008C204.49 654.288 202.189 651.375 199.907 648.351C199.767 648.166 199.67 647.962 199.613 647.751ZM128.56 370.208C128.509 370.016 128.489 369.811 128.508 369.602C128.837 365.873 129.383 362.163 130.129 358.572C130.326 357.627 131.251 357.02 132.197 357.217C133.142 357.413 133.749 358.338 133.553 359.284C132.834 362.742 132.309 366.316 131.991 369.91C131.906 370.871 131.057 371.582 130.096 371.497C129.343 371.431 128.745 370.897 128.56 370.208ZM71.4836 155.485C71.4547 155.377 71.4358 155.265 71.4282 155.15C71.3618 154.187 72.0891 153.352 73.0526 153.286C73.7791 153.236 74.5063 153.188 75.2335 153.141C78.0835 152.955 81.0304 152.762 83.8754 152.417C84.8338 152.301 85.7088 152.984 85.8215 153.943C85.9378 154.901 85.2548 155.773 84.2963 155.889C81.355 156.245 78.3589 156.441 75.4614 156.63C74.7381 156.677 74.0148 156.725 73.2921 156.774C72.4441 156.833 71.6956 156.276 71.4836 155.485ZM151.477 450.943C151.288 450.236 151.558 449.457 152.202 449.032C153.007 448.499 154.092 448.72 154.624 449.525C156.787 452.794 158.916 455.556 161.133 457.969C161.787 458.68 161.741 459.786 161.029 460.439C160.318 461.093 159.212 461.046 158.559 460.335C156.214 457.784 153.973 454.88 151.708 451.455C151.601 451.293 151.524 451.12 151.477 450.943ZM133.776 346.763C133.685 346.424 133.695 346.055 133.828 345.701C135.151 342.156 136.709 338.73 138.458 335.518C138.919 334.67 139.981 334.357 140.829 334.818C141.677 335.281 141.99 336.343 141.529 337.19C139.859 340.258 138.369 343.533 137.104 346.924C136.766 347.828 135.759 348.288 134.854 347.95C134.304 347.745 133.918 347.291 133.776 346.763ZM67.4668 96.7183C67.3703 96.358 67.3877 95.964 67.5426 95.5932C67.915 94.702 68.9388 94.2816 69.8299 94.6536C72.4138 95.7327 75.1035 96.7394 77.7042 97.713C78.4666 97.9984 79.2289 98.2837 79.9901 98.5712C80.8934 98.9127 81.3489 99.9214 81.008 100.825C80.6668 101.728 79.6578 102.184 78.7546 101.842C77.9966 101.556 77.2378 101.272 76.4786 100.988C73.8474 100.003 71.1266 98.9846 68.4823 97.8803C67.9621 97.6631 67.6022 97.2237 67.4668 96.7183ZM168.305 467.866C168.192 467.441 168.237 466.973 168.469 466.559C168.941 465.716 170.006 465.416 170.849 465.887C173.919 467.607 177.272 468.793 180.543 469.315C181.497 469.468 182.146 470.364 181.994 471.318C181.842 472.271 180.945 472.921 179.992 472.768C176.318 472.182 172.566 470.857 169.14 468.939C168.712 468.699 168.423 468.305 168.305 467.866ZM120.514 273.965C120.355 273.372 120.513 272.712 120.986 272.255C124.09 269.251 126.746 266.913 129.347 264.897C130.11 264.305 131.208 264.444 131.8 265.207C132.391 265.969 132.253 267.067 131.49 267.66C128.993 269.596 126.428 271.855 123.418 274.767C122.724 275.439 121.617 275.421 120.946 274.727C120.732 274.506 120.588 274.243 120.514 273.965ZM163.17 421.746C162.931 420.855 163.429 419.922 164.317 419.633C164.484 419.578 164.652 419.524 164.82 419.472C165.245 419.339 165.678 419.213 166.107 419.098C169.182 418.274 172.4 417.887 175.67 417.945C176.636 417.962 177.404 418.759 177.387 419.724C177.37 420.689 176.573 421.458 175.608 421.441C172.664 421.388 169.772 421.737 167.013 422.476C166.629 422.579 166.242 422.691 165.862 422.809C165.708 422.858 165.554 422.907 165.401 422.957C164.483 423.256 163.496 422.755 163.197 421.837C163.187 421.807 163.178 421.776 163.17 421.746ZM95.0498 151.265C94.8322 150.453 95.2272 149.579 96.0182 149.221C99.4268 147.678 102.221 145.712 104.324 143.377C104.971 142.66 106.076 142.602 106.794 143.249C107.512 143.895 107.569 145.001 106.923 145.718C104.495 148.413 101.311 150.664 97.4603 152.407C96.5808 152.805 95.5446 152.415 95.1466 151.535C95.1063 151.446 95.0742 151.356 95.0498 151.265ZM145.619 325.92C145.478 325.394 145.584 324.809 145.957 324.356C146.173 324.093 146.392 323.831 146.612 323.571C148.506 321.339 150.66 319.078 153.597 316.243C154.291 315.572 155.398 315.591 156.069 316.286C156.741 316.981 156.72 318.087 156.026 318.758C153.175 321.51 151.094 323.692 149.279 325.833C149.07 326.079 148.863 326.326 148.659 326.576C148.046 327.322 146.944 327.43 146.198 326.817C145.905 326.576 145.71 326.26 145.619 325.92ZM89.7366 105.867C89.6267 105.457 89.6652 105.005 89.8788 104.6C90.3289 103.746 91.3862 103.418 92.2406 103.868C94.5566 105.088 96.6096 106.352 98.5168 107.731C99.5866 108.504 100.635 109.358 101.631 110.267C102.344 110.919 102.394 112.024 101.744 112.737C101.093 113.45 99.9867 113.501 99.2734 112.85C98.3749 112.03 97.431 111.261 96.4678 110.565C94.6954 109.283 92.7796 108.104 90.6107 106.962C90.1619 106.726 89.8583 106.321 89.7366 105.867ZM191.458 470.067C191.239 469.247 191.644 468.367 192.445 468.016C192.971 467.785 193.49 467.526 193.988 467.248C196.332 465.936 198.334 464.059 199.937 461.67C200.475 460.869 201.561 460.655 202.363 461.193C203.164 461.732 203.378 462.818 202.84 463.619C200.928 466.468 198.524 468.716 195.695 470.299C195.1 470.632 194.48 470.941 193.851 471.217C192.967 471.605 191.935 471.204 191.547 470.319C191.511 470.237 191.481 470.152 191.458 470.067ZM139.954 259.976C139.732 259.147 140.149 258.259 140.962 257.915C141.624 257.635 142.298 257.371 142.964 257.13C143.778 256.835 144.62 256.571 145.468 256.344C147.629 255.765 149.878 255.409 152.154 255.287C153.118 255.236 153.942 255.979 153.993 256.94C154.045 257.904 153.305 258.727 152.34 258.779C150.308 258.888 148.3 259.205 146.373 259.721C145.621 259.923 144.875 260.157 144.154 260.418C143.545 260.638 142.93 260.88 142.324 261.136C141.435 261.512 140.409 261.096 140.033 260.207C140.001 260.13 139.975 260.053 139.954 259.976ZM108.83 133.102C108.786 132.937 108.765 132.762 108.772 132.582C108.893 129.435 108.161 126.069 106.643 122.777C106.238 121.902 106.622 120.862 107.499 120.457C108.376 120.053 109.414 120.436 109.819 121.313C111.568 125.105 112.409 129.019 112.266 132.717C112.229 133.682 111.417 134.434 110.452 134.396C109.667 134.366 109.023 133.823 108.83 133.102ZM186.717 422.881C186.619 422.514 186.639 422.112 186.802 421.736C187.185 420.85 188.214 420.442 189.1 420.825C192.739 422.398 195.969 424.539 198.701 427.189C199.394 427.863 199.41 428.969 198.738 429.662C198.065 430.355 196.958 430.371 196.265 429.699C193.839 427.345 190.962 425.439 187.713 424.035C187.203 423.814 186.851 423.379 186.717 422.881ZM162.603 308.857C162.448 308.276 162.596 307.631 163.048 307.173C165.721 304.47 167.79 302.109 169.558 299.744C169.715 299.534 169.87 299.323 170.023 299.109C170.585 298.324 171.677 298.144 172.462 298.706C173.247 299.268 173.428 300.36 172.865 301.146C172.698 301.379 172.529 301.61 172.358 301.839C170.492 304.335 168.323 306.812 165.535 309.632C164.856 310.318 163.749 310.325 163.062 309.646C162.834 309.42 162.681 309.146 162.603 308.857ZM203.815 450.768C203.765 450.581 203.746 450.382 203.762 450.177C204.008 447.09 203.722 443.907 202.935 440.969C202.849 440.648 202.757 440.328 202.659 440.01C202.385 439.089 202.89 438.109 203.813 437.823C204.735 437.538 205.715 438.055 206 438.977C206.111 439.338 206.215 439.7 206.313 440.065C207.202 443.383 207.525 446.975 207.247 450.455C207.171 451.417 206.328 452.135 205.365 452.058C204.608 451.998 204.001 451.463 203.815 450.768ZM163.416 259.605C163.319 259.245 163.337 258.851 163.492 258.479C163.865 257.589 164.889 257.169 165.78 257.541C169.6 259.14 172.772 261.461 175.208 264.441C175.821 265.189 175.709 266.29 174.961 266.901C174.214 267.513 173.112 267.402 172.501 266.654C170.432 264.123 167.716 262.142 164.43 260.767C163.91 260.55 163.551 260.111 163.416 259.605ZM175.572 288.859C175.491 288.556 175.49 288.227 175.587 287.905C176.646 284.378 177.056 280.955 176.807 277.732C176.732 276.769 177.452 275.928 178.415 275.853C179.377 275.779 180.218 276.498 180.293 277.461C180.576 281.116 180.12 284.968 178.936 288.911C178.658 289.836 177.683 290.36 176.758 290.083C176.156 289.901 175.723 289.425 175.572 288.859Z" fill="#04D1D2"/>
</svg>
