<svg width="76" height="76" viewBox="0 0 76 76" fill="none" xmlns="http://www.w3.org/2000/svg">
<rect y="0.59082" width="75.082" height="75.082" rx="37.541" fill="#025556"/>
<rect y="0.59082" width="75.082" height="75.082" rx="37.541" fill="black" fill-opacity="0.2"/>
<path d="M27.9739 39.6926L27.9739 39.6926C27.39 39.4323 27.0719 39.0765 26.9497 38.7369C26.8292 38.4021 26.8853 38.0487 27.1174 37.7437L27.1174 37.7437C27.4882 37.2565 28.0695 36.9316 28.7436 36.763C29.4169 36.5945 30.1624 36.5875 30.8304 36.7183C31.5031 36.85 32.0663 37.1149 32.4016 37.4607C32.5668 37.6311 32.673 37.8168 32.7174 38.0146C32.7614 38.2111 32.7485 38.4368 32.6482 38.6956L32.6482 38.6956C32.5599 38.9233 32.3592 39.1596 32.0505 39.3737C31.7444 39.5861 31.3481 39.7651 30.8983 39.8843C29.9965 40.1234 28.9163 40.1128 27.9739 39.6926ZM26.8999 37.5781L26.8998 37.5781L26.8999 37.5781Z" stroke="white" stroke-width="0.546904"/>
<path d="M47.072 39.6926L47.072 39.6926C46.1295 40.1128 45.0493 40.1234 44.1475 39.8843C43.6978 39.7651 43.3014 39.5861 42.9953 39.3737C42.6867 39.1596 42.4859 38.9233 42.3977 38.6956L42.3977 38.6956C42.2974 38.4368 42.2844 38.2111 42.3285 38.0146C42.3729 37.8168 42.4791 37.6311 42.6443 37.4607C42.9796 37.1149 43.5427 36.85 44.2154 36.7183C44.8834 36.5875 45.629 36.5945 46.3022 36.763C46.9764 36.9316 47.5577 37.2565 47.9284 37.7437L47.9284 37.7437C48.1606 38.0487 48.2167 38.4021 48.0962 38.7369C47.9739 39.0765 47.6559 39.4323 47.072 39.6926Z" stroke="white" stroke-width="0.546904"/>
<path d="M39.9157 33.8777L39.9157 33.8777C39.9391 34.0028 39.8256 34.1826 39.5919 34.1826H35.4604C35.2265 34.1826 35.1125 34.0018 35.137 33.8747C35.3426 32.8078 36.1218 31.863 37.3452 31.7516C38.7121 31.6272 39.6925 32.6856 39.9157 33.8777Z" stroke="white" stroke-width="0.546904"/>
<path d="M43.7415 30.4379L43.7422 30.4379L43.7435 30.4379C43.9005 30.4379 44.0286 30.5644 44.0297 30.7219C44.0297 30.722 44.0297 30.722 44.0297 30.722L43.9203 30.7228C43.9274 31.659 43.4138 32.7126 42.4485 32.8208L43.7415 30.4379ZM43.7415 30.4379C43.5833 30.4389 43.4561 30.5681 43.4573 30.7261L43.7415 30.4379ZM42.2999 32.9386C42.3531 32.9386 42.4067 32.9356 42.4606 32.9295L41.1886 30.7312C41.1926 30.5732 41.0676 30.4419 40.9096 30.4379L40.9096 30.4379L40.9085 30.4379C40.7525 30.4355 40.6203 30.5578 40.6163 30.7169L40.6163 30.7169C40.5989 31.4108 40.8741 32.1284 41.3295 32.5461C41.6094 32.8027 41.9426 32.9386 42.2999 32.9386ZM43.4573 30.7262C43.4601 31.0999 43.3646 31.4944 43.1809 31.8027C42.9978 32.11 42.7333 32.3229 42.3969 32.3607C42.1483 32.3882 41.9211 32.3118 41.7165 32.1242L43.4573 30.7262Z" fill="white" stroke="white" stroke-width="0.218762"/>
<path d="M34.1454 30.4379L34.1461 30.4379L34.1473 30.4379C34.3043 30.4379 34.4324 30.5644 34.4335 30.7219C34.4335 30.722 34.4335 30.722 34.4335 30.722L34.3241 30.7228C34.3312 31.659 33.8177 32.7126 32.8524 32.8208L34.1454 30.4379ZM34.1454 30.4379C33.9872 30.4389 33.86 30.5681 33.8611 30.7261L34.1454 30.4379ZM32.8129 32.4694L32.8008 32.3607C32.5521 32.3882 32.3249 32.3118 32.1203 32.1242L32.1203 32.1242C31.7913 31.8225 31.5787 31.2757 31.5924 30.7313C31.5924 30.7313 31.5924 30.7312 31.5924 30.7312L31.483 30.7285L33.8611 30.7262C33.8639 31.0999 33.7684 31.4944 33.5848 31.8027C33.4016 32.1101 33.1371 32.3229 32.8007 32.3607L32.8129 32.4694ZM32.8129 32.4694C33.5725 32.3842 33.9763 31.5073 33.9705 30.7253L32.0464 32.2048C32.2723 32.4119 32.5303 32.5007 32.8129 32.4694Z" fill="white" stroke="white" stroke-width="0.218762"/>
<mask id="path-7-outside-1_4288_3085" maskUnits="userSpaceOnUse" x="15.3291" y="20.6592" width="44" height="32" fill="black">
<rect fill="white" x="15.3291" y="20.6592" width="44" height="32"/>
<path d="M55.9243 41.6294C57.3791 40.9368 58.4297 39.4752 58.6658 37.8146C58.8967 36.1927 58.3407 34.6501 57.1407 33.5827C55.7788 32.3712 54.4221 32.4019 53.7702 32.4167C53.7225 32.4177 53.6788 32.4187 53.6396 32.4192C53.6454 32.4093 53.6512 32.3994 53.6569 32.39C53.6799 32.3516 53.7053 32.3092 53.7317 32.2625C54.6092 30.7173 54.5019 28.8164 53.4515 27.3016C52.3065 25.6509 50.3309 24.8267 48.3046 25.1512C47.3645 25.3012 46.7773 25.6622 46.462 25.8561C46.4283 25.8767 46.393 25.8984 46.3607 25.9176C46.3599 25.9072 46.3591 25.8968 46.3583 25.8864C46.3516 25.789 46.3447 25.6918 46.3321 25.5943C46.1508 24.196 45.2862 22.9957 43.9598 22.3011C42.5581 21.5669 40.9174 21.5446 39.571 22.2403C38.2767 22.9094 37.8498 23.8663 37.6444 24.3626C37.148 22.9907 35.9393 22.0101 34.4044 21.7363C32.6873 21.4307 30.9521 22.0464 29.8778 23.3446C29.0569 24.337 28.9514 25.2291 28.9009 25.6578C28.8975 25.6859 28.894 25.7151 28.8904 25.7428C28.8806 25.7361 28.8706 25.7295 28.8605 25.7226C28.8095 25.688 28.7584 25.6535 28.7062 25.6206C27.1713 24.6552 25.1943 24.5901 23.5465 25.4508C21.9245 26.2981 20.9442 27.8529 20.8574 29.7165C20.8526 29.822 20.8641 29.9205 20.8752 30.0156C20.8808 30.0645 20.8866 30.1132 20.8897 30.1622C20.9385 30.9716 21.2134 31.6083 21.4804 32.1015C21.3264 32.1009 21.1934 32.0977 21.0739 32.0946C20.7553 32.0869 20.5244 32.0817 20.2462 32.131C18.176 32.4998 16.6972 34.0044 16.387 36.058C16.0641 38.1956 17.1138 40.2851 18.9996 41.2577L19.0349 41.2761C19.0428 41.2801 19.051 41.2843 19.0591 41.2885L19.02 41.3259C17.926 42.3883 17.4451 43.9435 17.7334 45.4857C18.0312 47.0769 19.0837 48.3976 20.5491 49.0189C21.8763 49.5815 23.4025 49.4892 24.6314 48.7727C24.6719 48.7491 24.7082 48.7264 24.741 48.7062C24.7586 48.6953 24.7781 48.6832 24.7961 48.6725C24.804 48.6907 24.813 48.7119 24.8231 48.7357C25.0586 49.2873 25.7749 50.9658 27.6365 51.7821C29.3647 52.5395 31.3569 52.1013 32.8363 50.6391C33.2991 50.1817 33.5826 49.718 33.7547 49.4331C34.0798 50.6047 34.9215 51.5622 36.0497 52.0261C37.1659 52.4851 38.3766 52.3669 39.3713 51.7018C40.5372 50.9217 40.8683 49.9701 41.0259 49.4902C41.3313 50.022 42.0153 51.1586 43.4858 51.8682C44.286 52.2542 45.1486 52.3946 45.9883 52.2846C46.3091 52.2426 46.6265 52.164 46.9358 52.0486C48.2546 51.5567 49.3414 50.4507 49.9958 48.9343C49.9976 48.9302 49.9992 48.9262 50.0009 48.9225C50.0162 48.9326 50.0324 48.9435 50.048 48.9537C50.1879 49.0479 50.4222 49.2054 50.8235 49.3618C52.4783 50.007 54.3365 49.6527 55.6736 48.4374C57.0181 47.2155 57.553 45.3981 57.0699 43.6948C56.7463 42.5532 56.2126 41.9998 55.9259 41.7024C55.9088 41.6846 55.8925 41.6677 55.8772 41.6516C55.8858 41.6475 55.8943 41.6435 55.9025 41.6397L55.9243 41.6294ZM55.5645 41.8377C55.5944 41.8708 55.6299 41.9077 55.67 41.9492C55.9351 42.2241 56.4283 42.7359 56.7277 43.7918C57.1738 45.3645 56.6784 47.0436 55.4344 48.1741C54.1792 49.315 52.504 49.6352 50.9528 49.0304C50.5879 48.8881 50.3823 48.75 50.2461 48.6586C50.1177 48.5723 50.0157 48.5053 49.8906 48.5413C49.7714 48.5764 49.7158 48.6851 49.6691 48.7934C49.0536 50.22 48.0388 51.2577 46.8116 51.7154C45.77 52.1042 44.673 52.0461 43.6404 51.5479C42.2212 50.8631 41.5797 49.7421 41.3058 49.2634C41.1842 49.0507 41.1386 48.9713 41.0242 48.9584C41.0033 48.9561 40.9838 48.9561 40.9658 48.9585C40.8195 48.9776 40.765 49.1441 40.6978 49.3489C40.5566 49.7802 40.2627 50.6776 39.1734 51.4063C38.2791 52.0044 37.1898 52.1103 36.1848 51.6972C35.0805 51.2431 34.2781 50.2687 34.0379 49.0905C34.0057 48.9324 33.9196 48.8855 33.8533 48.8742C33.6923 48.8454 33.6157 48.975 33.4612 49.2311C33.2991 49.5 33.0274 49.9501 32.5864 50.3862C31.1918 51.7645 29.3949 52.1648 27.7795 51.4563C26.0467 50.6964 25.372 49.1155 25.1502 48.5961C25.1073 48.4957 25.0857 48.4452 25.0618 48.41C24.9085 48.1841 24.6865 48.3216 24.5535 48.404C24.5233 48.4227 24.4898 48.4435 24.4522 48.4653C23.3196 49.1265 21.9125 49.2105 20.688 48.6913C19.3325 48.1169 18.3586 46.8939 18.0829 45.4203C17.8165 43.9955 18.2595 42.5602 19.2679 41.581L19.3163 41.5346C19.422 41.4334 19.5057 41.3533 19.4875 41.2279C19.4687 41.0992 19.3666 41.0466 19.1976 40.9597L19.1626 40.9418C17.1415 39.8991 16.4888 37.7644 16.7386 36.111C17.0254 34.2132 18.3932 32.8223 20.3084 32.4813C20.5533 32.4372 20.7564 32.4429 21.0652 32.4503C21.2255 32.4542 21.4098 32.4585 21.6355 32.457C21.682 32.4569 21.8206 32.4555 21.8883 32.3377C21.956 32.2204 21.8885 32.1018 21.8662 32.0627C21.6029 31.6001 21.2942 30.9637 21.2446 30.1406C21.2412 30.085 21.2349 30.0296 21.2284 29.9744C21.2185 29.8895 21.2092 29.8096 21.2126 29.7329C21.2935 27.999 22.2041 26.5532 23.7111 25.7659C25.2466 24.9637 27.0881 25.0232 28.5168 25.9218C28.5656 25.9523 28.6132 25.9848 28.6611 26.0171C28.7121 26.0517 28.7632 26.0862 28.8155 26.1193C28.9294 26.1904 29.0172 26.1746 29.0721 26.1481C29.2087 26.0827 29.2267 25.9304 29.2539 25.6997C29.3043 25.2743 29.3977 24.4829 30.152 23.5715C31.1443 22.3716 32.7498 21.8028 34.3421 22.0866C35.7616 22.3397 36.8753 23.2473 37.3208 24.5141C37.3921 24.7165 37.4594 24.9078 37.6349 24.9124C37.8028 24.9175 37.8616 24.7693 37.9534 24.5461C38.1348 24.1053 38.5124 23.1877 39.7342 22.5564C40.9778 21.9134 42.4961 21.936 43.7948 22.6162C45.0169 23.2563 45.8132 24.3584 45.9793 25.6401C45.9911 25.7306 45.9973 25.8208 46.0037 25.9113C46.007 25.9604 46.0106 26.0098 46.0147 26.0589C46.0251 26.1797 46.0724 26.2621 46.1554 26.304C46.2973 26.3757 46.4292 26.2936 46.6482 26.159C46.9632 25.9654 47.4906 25.6414 48.3607 25.5023C50.2527 25.2008 52.093 25.9671 53.1591 27.5044C54.1456 28.9269 54.2441 30.64 53.4223 32.087C53.3973 32.131 53.3733 32.1711 53.3517 32.2076C53.2537 32.3716 53.1762 32.5011 53.2465 32.6349C53.3119 32.7597 53.4548 32.769 53.5018 32.7719C53.5715 32.7764 53.6647 32.7747 53.7782 32.7721C54.3848 32.7585 55.6469 32.73 56.9042 33.8483C58.0137 34.8352 58.5275 36.2627 58.3138 37.7646C58.0942 39.3086 57.1199 40.6662 55.7715 41.3081L55.7503 41.3183C55.6138 41.3829 55.4959 41.4386 55.469 41.5733C55.443 41.7032 55.5345 41.8043 55.5645 41.8377Z"/>
</mask>
<path d="M55.9243 41.6294C57.3791 40.9368 58.4297 39.4752 58.6658 37.8146C58.8967 36.1927 58.3407 34.6501 57.1407 33.5827C55.7788 32.3712 54.4221 32.4019 53.7702 32.4167C53.7225 32.4177 53.6788 32.4187 53.6396 32.4192C53.6454 32.4093 53.6512 32.3994 53.6569 32.39C53.6799 32.3516 53.7053 32.3092 53.7317 32.2625C54.6092 30.7173 54.5019 28.8164 53.4515 27.3016C52.3065 25.6509 50.3309 24.8267 48.3046 25.1512C47.3645 25.3012 46.7773 25.6622 46.462 25.8561C46.4283 25.8767 46.393 25.8984 46.3607 25.9176C46.3599 25.9072 46.3591 25.8968 46.3583 25.8864C46.3516 25.789 46.3447 25.6918 46.3321 25.5943C46.1508 24.196 45.2862 22.9957 43.9598 22.3011C42.5581 21.5669 40.9174 21.5446 39.571 22.2403C38.2767 22.9094 37.8498 23.8663 37.6444 24.3626C37.148 22.9907 35.9393 22.0101 34.4044 21.7363C32.6873 21.4307 30.9521 22.0464 29.8778 23.3446C29.0569 24.337 28.9514 25.2291 28.9009 25.6578C28.8975 25.6859 28.894 25.7151 28.8904 25.7428C28.8806 25.7361 28.8706 25.7295 28.8605 25.7226C28.8095 25.688 28.7584 25.6535 28.7062 25.6206C27.1713 24.6552 25.1943 24.5901 23.5465 25.4508C21.9245 26.2981 20.9442 27.8529 20.8574 29.7165C20.8526 29.822 20.8641 29.9205 20.8752 30.0156C20.8808 30.0645 20.8866 30.1132 20.8897 30.1622C20.9385 30.9716 21.2134 31.6083 21.4804 32.1015C21.3264 32.1009 21.1934 32.0977 21.0739 32.0946C20.7553 32.0869 20.5244 32.0817 20.2462 32.131C18.176 32.4998 16.6972 34.0044 16.387 36.058C16.0641 38.1956 17.1138 40.2851 18.9996 41.2577L19.0349 41.2761C19.0428 41.2801 19.051 41.2843 19.0591 41.2885L19.02 41.3259C17.926 42.3883 17.4451 43.9435 17.7334 45.4857C18.0312 47.0769 19.0837 48.3976 20.5491 49.0189C21.8763 49.5815 23.4025 49.4892 24.6314 48.7727C24.6719 48.7491 24.7082 48.7264 24.741 48.7062C24.7586 48.6953 24.7781 48.6832 24.7961 48.6725C24.804 48.6907 24.813 48.7119 24.8231 48.7357C25.0586 49.2873 25.7749 50.9658 27.6365 51.7821C29.3647 52.5395 31.3569 52.1013 32.8363 50.6391C33.2991 50.1817 33.5826 49.718 33.7547 49.4331C34.0798 50.6047 34.9215 51.5622 36.0497 52.0261C37.1659 52.4851 38.3766 52.3669 39.3713 51.7018C40.5372 50.9217 40.8683 49.9701 41.0259 49.4902C41.3313 50.022 42.0153 51.1586 43.4858 51.8682C44.286 52.2542 45.1486 52.3946 45.9883 52.2846C46.3091 52.2426 46.6265 52.164 46.9358 52.0486C48.2546 51.5567 49.3414 50.4507 49.9958 48.9343C49.9976 48.9302 49.9992 48.9262 50.0009 48.9225C50.0162 48.9326 50.0324 48.9435 50.048 48.9537C50.1879 49.0479 50.4222 49.2054 50.8235 49.3618C52.4783 50.007 54.3365 49.6527 55.6736 48.4374C57.0181 47.2155 57.553 45.3981 57.0699 43.6948C56.7463 42.5532 56.2126 41.9998 55.9259 41.7024C55.9088 41.6846 55.8925 41.6677 55.8772 41.6516C55.8858 41.6475 55.8943 41.6435 55.9025 41.6397L55.9243 41.6294ZM55.5645 41.8377C55.5944 41.8708 55.6299 41.9077 55.67 41.9492C55.9351 42.2241 56.4283 42.7359 56.7277 43.7918C57.1738 45.3645 56.6784 47.0436 55.4344 48.1741C54.1792 49.315 52.504 49.6352 50.9528 49.0304C50.5879 48.8881 50.3823 48.75 50.2461 48.6586C50.1177 48.5723 50.0157 48.5053 49.8906 48.5413C49.7714 48.5764 49.7158 48.6851 49.6691 48.7934C49.0536 50.22 48.0388 51.2577 46.8116 51.7154C45.77 52.1042 44.673 52.0461 43.6404 51.5479C42.2212 50.8631 41.5797 49.7421 41.3058 49.2634C41.1842 49.0507 41.1386 48.9713 41.0242 48.9584C41.0033 48.9561 40.9838 48.9561 40.9658 48.9585C40.8195 48.9776 40.765 49.1441 40.6978 49.3489C40.5566 49.7802 40.2627 50.6776 39.1734 51.4063C38.2791 52.0044 37.1898 52.1103 36.1848 51.6972C35.0805 51.2431 34.2781 50.2687 34.0379 49.0905C34.0057 48.9324 33.9196 48.8855 33.8533 48.8742C33.6923 48.8454 33.6157 48.975 33.4612 49.2311C33.2991 49.5 33.0274 49.9501 32.5864 50.3862C31.1918 51.7645 29.3949 52.1648 27.7795 51.4563C26.0467 50.6964 25.372 49.1155 25.1502 48.5961C25.1073 48.4957 25.0857 48.4452 25.0618 48.41C24.9085 48.1841 24.6865 48.3216 24.5535 48.404C24.5233 48.4227 24.4898 48.4435 24.4522 48.4653C23.3196 49.1265 21.9125 49.2105 20.688 48.6913C19.3325 48.1169 18.3586 46.8939 18.0829 45.4203C17.8165 43.9955 18.2595 42.5602 19.2679 41.581L19.3163 41.5346C19.422 41.4334 19.5057 41.3533 19.4875 41.2279C19.4687 41.0992 19.3666 41.0466 19.1976 40.9597L19.1626 40.9418C17.1415 39.8991 16.4888 37.7644 16.7386 36.111C17.0254 34.2132 18.3932 32.8223 20.3084 32.4813C20.5533 32.4372 20.7564 32.4429 21.0652 32.4503C21.2255 32.4542 21.4098 32.4585 21.6355 32.457C21.682 32.4569 21.8206 32.4555 21.8883 32.3377C21.956 32.2204 21.8885 32.1018 21.8662 32.0627C21.6029 31.6001 21.2942 30.9637 21.2446 30.1406C21.2412 30.085 21.2349 30.0296 21.2284 29.9744C21.2185 29.8895 21.2092 29.8096 21.2126 29.7329C21.2935 27.999 22.2041 26.5532 23.7111 25.7659C25.2466 24.9637 27.0881 25.0232 28.5168 25.9218C28.5656 25.9523 28.6132 25.9848 28.6611 26.0171C28.7121 26.0517 28.7632 26.0862 28.8155 26.1193C28.9294 26.1904 29.0172 26.1746 29.0721 26.1481C29.2087 26.0827 29.2267 25.9304 29.2539 25.6997C29.3043 25.2743 29.3977 24.4829 30.152 23.5715C31.1443 22.3716 32.7498 21.8028 34.3421 22.0866C35.7616 22.3397 36.8753 23.2473 37.3208 24.5141C37.3921 24.7165 37.4594 24.9078 37.6349 24.9124C37.8028 24.9175 37.8616 24.7693 37.9534 24.5461C38.1348 24.1053 38.5124 23.1877 39.7342 22.5564C40.9778 21.9134 42.4961 21.936 43.7948 22.6162C45.0169 23.2563 45.8132 24.3584 45.9793 25.6401C45.9911 25.7306 45.9973 25.8208 46.0037 25.9113C46.007 25.9604 46.0106 26.0098 46.0147 26.0589C46.0251 26.1797 46.0724 26.2621 46.1554 26.304C46.2973 26.3757 46.4292 26.2936 46.6482 26.159C46.9632 25.9654 47.4906 25.6414 48.3607 25.5023C50.2527 25.2008 52.093 25.9671 53.1591 27.5044C54.1456 28.9269 54.2441 30.64 53.4223 32.087C53.3973 32.131 53.3733 32.1711 53.3517 32.2076C53.2537 32.3716 53.1762 32.5011 53.2465 32.6349C53.3119 32.7597 53.4548 32.769 53.5018 32.7719C53.5715 32.7764 53.6647 32.7747 53.7782 32.7721C54.3848 32.7585 55.6469 32.73 56.9042 33.8483C58.0137 34.8352 58.5275 36.2627 58.3138 37.7646C58.0942 39.3086 57.1199 40.6662 55.7715 41.3081L55.7503 41.3183C55.6138 41.3829 55.4959 41.4386 55.469 41.5733C55.443 41.7032 55.5345 41.8043 55.5645 41.8377Z" fill="white"/>
<path d="M55.9243 41.6294C57.3791 40.9368 58.4297 39.4752 58.6658 37.8146C58.8967 36.1927 58.3407 34.6501 57.1407 33.5827C55.7788 32.3712 54.4221 32.4019 53.7702 32.4167C53.7225 32.4177 53.6788 32.4187 53.6396 32.4192C53.6454 32.4093 53.6512 32.3994 53.6569 32.39C53.6799 32.3516 53.7053 32.3092 53.7317 32.2625C54.6092 30.7173 54.5019 28.8164 53.4515 27.3016C52.3065 25.6509 50.3309 24.8267 48.3046 25.1512C47.3645 25.3012 46.7773 25.6622 46.462 25.8561C46.4283 25.8767 46.393 25.8984 46.3607 25.9176C46.3599 25.9072 46.3591 25.8968 46.3583 25.8864C46.3516 25.789 46.3447 25.6918 46.3321 25.5943C46.1508 24.196 45.2862 22.9957 43.9598 22.3011C42.5581 21.5669 40.9174 21.5446 39.571 22.2403C38.2767 22.9094 37.8498 23.8663 37.6444 24.3626C37.148 22.9907 35.9393 22.0101 34.4044 21.7363C32.6873 21.4307 30.9521 22.0464 29.8778 23.3446C29.0569 24.337 28.9514 25.2291 28.9009 25.6578C28.8975 25.6859 28.894 25.7151 28.8904 25.7428C28.8806 25.7361 28.8706 25.7295 28.8605 25.7226C28.8095 25.688 28.7584 25.6535 28.7062 25.6206C27.1713 24.6552 25.1943 24.5901 23.5465 25.4508C21.9245 26.2981 20.9442 27.8529 20.8574 29.7165C20.8526 29.822 20.8641 29.9205 20.8752 30.0156C20.8808 30.0645 20.8866 30.1132 20.8897 30.1622C20.9385 30.9716 21.2134 31.6083 21.4804 32.1015C21.3264 32.1009 21.1934 32.0977 21.0739 32.0946C20.7553 32.0869 20.5244 32.0817 20.2462 32.131C18.176 32.4998 16.6972 34.0044 16.387 36.058C16.0641 38.1956 17.1138 40.2851 18.9996 41.2577L19.0349 41.2761C19.0428 41.2801 19.051 41.2843 19.0591 41.2885L19.02 41.3259C17.926 42.3883 17.4451 43.9435 17.7334 45.4857C18.0312 47.0769 19.0837 48.3976 20.5491 49.0189C21.8763 49.5815 23.4025 49.4892 24.6314 48.7727C24.6719 48.7491 24.7082 48.7264 24.741 48.7062C24.7586 48.6953 24.7781 48.6832 24.7961 48.6725C24.804 48.6907 24.813 48.7119 24.8231 48.7357C25.0586 49.2873 25.7749 50.9658 27.6365 51.7821C29.3647 52.5395 31.3569 52.1013 32.8363 50.6391C33.2991 50.1817 33.5826 49.718 33.7547 49.4331C34.0798 50.6047 34.9215 51.5622 36.0497 52.0261C37.1659 52.4851 38.3766 52.3669 39.3713 51.7018C40.5372 50.9217 40.8683 49.9701 41.0259 49.4902C41.3313 50.022 42.0153 51.1586 43.4858 51.8682C44.286 52.2542 45.1486 52.3946 45.9883 52.2846C46.3091 52.2426 46.6265 52.164 46.9358 52.0486C48.2546 51.5567 49.3414 50.4507 49.9958 48.9343C49.9976 48.9302 49.9992 48.9262 50.0009 48.9225C50.0162 48.9326 50.0324 48.9435 50.048 48.9537C50.1879 49.0479 50.4222 49.2054 50.8235 49.3618C52.4783 50.007 54.3365 49.6527 55.6736 48.4374C57.0181 47.2155 57.553 45.3981 57.0699 43.6948C56.7463 42.5532 56.2126 41.9998 55.9259 41.7024C55.9088 41.6846 55.8925 41.6677 55.8772 41.6516C55.8858 41.6475 55.8943 41.6435 55.9025 41.6397L55.9243 41.6294ZM55.5645 41.8377C55.5944 41.8708 55.6299 41.9077 55.67 41.9492C55.9351 42.2241 56.4283 42.7359 56.7277 43.7918C57.1738 45.3645 56.6784 47.0436 55.4344 48.1741C54.1792 49.315 52.504 49.6352 50.9528 49.0304C50.5879 48.8881 50.3823 48.75 50.2461 48.6586C50.1177 48.5723 50.0157 48.5053 49.8906 48.5413C49.7714 48.5764 49.7158 48.6851 49.6691 48.7934C49.0536 50.22 48.0388 51.2577 46.8116 51.7154C45.77 52.1042 44.673 52.0461 43.6404 51.5479C42.2212 50.8631 41.5797 49.7421 41.3058 49.2634C41.1842 49.0507 41.1386 48.9713 41.0242 48.9584C41.0033 48.9561 40.9838 48.9561 40.9658 48.9585C40.8195 48.9776 40.765 49.1441 40.6978 49.3489C40.5566 49.7802 40.2627 50.6776 39.1734 51.4063C38.2791 52.0044 37.1898 52.1103 36.1848 51.6972C35.0805 51.2431 34.2781 50.2687 34.0379 49.0905C34.0057 48.9324 33.9196 48.8855 33.8533 48.8742C33.6923 48.8454 33.6157 48.975 33.4612 49.2311C33.2991 49.5 33.0274 49.9501 32.5864 50.3862C31.1918 51.7645 29.3949 52.1648 27.7795 51.4563C26.0467 50.6964 25.372 49.1155 25.1502 48.5961C25.1073 48.4957 25.0857 48.4452 25.0618 48.41C24.9085 48.1841 24.6865 48.3216 24.5535 48.404C24.5233 48.4227 24.4898 48.4435 24.4522 48.4653C23.3196 49.1265 21.9125 49.2105 20.688 48.6913C19.3325 48.1169 18.3586 46.8939 18.0829 45.4203C17.8165 43.9955 18.2595 42.5602 19.2679 41.581L19.3163 41.5346C19.422 41.4334 19.5057 41.3533 19.4875 41.2279C19.4687 41.0992 19.3666 41.0466 19.1976 40.9597L19.1626 40.9418C17.1415 39.8991 16.4888 37.7644 16.7386 36.111C17.0254 34.2132 18.3932 32.8223 20.3084 32.4813C20.5533 32.4372 20.7564 32.4429 21.0652 32.4503C21.2255 32.4542 21.4098 32.4585 21.6355 32.457C21.682 32.4569 21.8206 32.4555 21.8883 32.3377C21.956 32.2204 21.8885 32.1018 21.8662 32.0627C21.6029 31.6001 21.2942 30.9637 21.2446 30.1406C21.2412 30.085 21.2349 30.0296 21.2284 29.9744C21.2185 29.8895 21.2092 29.8096 21.2126 29.7329C21.2935 27.999 22.2041 26.5532 23.7111 25.7659C25.2466 24.9637 27.0881 25.0232 28.5168 25.9218C28.5656 25.9523 28.6132 25.9848 28.6611 26.0171C28.7121 26.0517 28.7632 26.0862 28.8155 26.1193C28.9294 26.1904 29.0172 26.1746 29.0721 26.1481C29.2087 26.0827 29.2267 25.9304 29.2539 25.6997C29.3043 25.2743 29.3977 24.4829 30.152 23.5715C31.1443 22.3716 32.7498 21.8028 34.3421 22.0866C35.7616 22.3397 36.8753 23.2473 37.3208 24.5141C37.3921 24.7165 37.4594 24.9078 37.6349 24.9124C37.8028 24.9175 37.8616 24.7693 37.9534 24.5461C38.1348 24.1053 38.5124 23.1877 39.7342 22.5564C40.9778 21.9134 42.4961 21.936 43.7948 22.6162C45.0169 23.2563 45.8132 24.3584 45.9793 25.6401C45.9911 25.7306 45.9973 25.8208 46.0037 25.9113C46.007 25.9604 46.0106 26.0098 46.0147 26.0589C46.0251 26.1797 46.0724 26.2621 46.1554 26.304C46.2973 26.3757 46.4292 26.2936 46.6482 26.159C46.9632 25.9654 47.4906 25.6414 48.3607 25.5023C50.2527 25.2008 52.093 25.9671 53.1591 27.5044C54.1456 28.9269 54.2441 30.64 53.4223 32.087C53.3973 32.131 53.3733 32.1711 53.3517 32.2076C53.2537 32.3716 53.1762 32.5011 53.2465 32.6349C53.3119 32.7597 53.4548 32.769 53.5018 32.7719C53.5715 32.7764 53.6647 32.7747 53.7782 32.7721C54.3848 32.7585 55.6469 32.73 56.9042 33.8483C58.0137 34.8352 58.5275 36.2627 58.3138 37.7646C58.0942 39.3086 57.1199 40.6662 55.7715 41.3081L55.7503 41.3183C55.6138 41.3829 55.4959 41.4386 55.469 41.5733C55.443 41.7032 55.5345 41.8043 55.5645 41.8377Z" stroke="white" stroke-width="0.437524" mask="url(#path-7-outside-1_4288_3085)"/>
<path d="M51.9554 21.3433C49.6645 19.5217 46.9353 18.7962 44.1566 18.0167C43.8313 17.924 43.8455 17.4069 44.1778 17.3529C47.1403 16.8821 50.6827 18.418 52.3867 20.8725C52.5988 21.1812 52.2382 21.5748 51.9554 21.3433Z" fill="#04D1D2"/>
<path d="M21.7911 54.428C23.964 56.3887 26.6428 57.2828 29.3676 58.2339C29.6864 58.3466 29.6401 58.8618 29.305 58.895C26.3189 59.1804 22.8791 57.4268 21.3313 54.871C21.1388 54.5497 21.5232 54.1793 21.7911 54.428Z" fill="#04D1D2"/>
<path d="M25.0534 53.2898C26.8483 54.717 28.9867 55.2854 31.1638 55.8962C31.4187 55.9688 31.4076 56.374 31.1472 56.4163C28.826 56.7852 26.0506 55.5818 24.7155 53.6587C24.5493 53.4168 24.8318 53.1084 25.0534 53.2898Z" fill="#04D1D2"/>
</svg>
