<svg width="42" height="43" viewBox="0 0 42 43" fill="none" xmlns="http://www.w3.org/2000/svg">
<rect y="0.169678" width="42" height="42" rx="8" fill="white" fill-opacity="0.2"/>
<g clip-path="url(#clip0_4288_3320)">
<path d="M32.1083 21.238C32.1083 15.0645 27.1344 10.0601 20.9997 10.0601C14.8623 10.0614 9.88843 15.0645 9.88843 21.2394C9.88843 26.8173 13.9514 31.4412 19.2613 32.2799V24.4692H16.4425V21.2394H19.264V18.7747C19.264 15.974 20.9234 14.4271 23.4603 14.4271C24.6767 14.4271 25.9472 14.6451 25.9472 14.6451V17.3945H24.5461C23.1673 17.3945 22.7368 18.2568 22.7368 19.1413V21.238H25.8167L25.3251 24.4678H22.7354V32.2785C28.0453 31.4398 32.1083 26.8159 32.1083 21.238Z" fill="white"/>
</g>
<defs>
<clipPath id="clip0_4288_3320">
<rect width="22.2171" height="22.2171" fill="white" transform="translate(9.89136 10.0613)"/>
</clipPath>
</defs>
</svg>
