<svg width="679" height="149" viewBox="0 0 679 149" fill="none" xmlns="http://www.w3.org/2000/svg">
<path d="M429.777 3.33774C430.721 3.18563 431.632 3.79404 431.844 4.7399C432.064 5.72232 431.445 6.69709 430.463 6.91696C426.714 7.75609 423.111 8.81326 419.752 10.059C418.811 10.4094 417.759 9.92798 417.409 8.98405C417.059 8.03975 417.54 6.99075 418.484 6.64057C421.996 5.33774 425.758 4.23378 429.667 3.35911C429.703 3.35066 429.74 3.34364 429.777 3.33774ZM443.304 1.24265C443.344 1.23618 443.384 1.23113 443.426 1.22704C447.083 0.885036 450.967 0.68478 454.971 0.632056C455.977 0.618772 456.804 1.42392 456.818 2.43086C456.831 3.43774 456.029 4.26519 455.019 4.27761C451.112 4.32928 447.326 4.52432 443.765 4.85736C442.763 4.95131 441.874 4.21487 441.781 3.21212C441.69 2.25077 442.364 1.39396 443.304 1.24265ZM468.397 0.988669C468.527 0.967764 468.661 0.960852 468.797 0.968755C472.909 1.21345 476.671 1.56855 480.296 2.05465C481.294 2.18871 481.994 3.10579 481.861 4.10393C481.727 5.10207 480.808 5.8024 479.811 5.66852C476.276 5.19421 472.602 4.84754 468.581 4.60837C467.576 4.54882 466.81 3.68575 466.869 2.68051C466.921 1.81202 467.573 1.12148 468.397 0.988669ZM406.522 12.5203C407.223 12.4074 407.956 12.7122 408.357 13.3517C408.892 14.2046 408.635 15.3299 407.782 15.8649C404.658 17.8248 401.721 20.1003 399.055 22.6278C398.324 23.3201 397.17 23.2899 396.478 22.5591C395.785 21.8283 395.816 20.6745 396.546 19.982C399.388 17.2883 402.516 14.8642 405.844 12.7762C406.057 12.6422 406.288 12.558 406.522 12.5203ZM493.203 4.68499C493.448 4.64553 493.705 4.65593 493.96 4.72353C497.852 5.7584 501.568 7.02052 505.003 8.47516C505.931 8.86795 506.364 9.93786 505.971 10.865C505.579 11.7917 504.509 12.2249 503.582 11.8328C500.303 10.4444 496.751 9.23811 493.023 8.24752C492.05 7.98872 491.471 6.99043 491.73 6.01743C491.92 5.29938 492.514 4.79593 493.203 4.68499ZM388.852 30.076C389.27 30.0088 389.712 30.0856 390.1 30.3253C390.956 30.8546 391.221 31.9782 390.692 32.8346C388.704 36.0515 387.18 39.392 386.164 42.7635C385.874 43.727 384.857 44.2738 383.893 43.9827C382.929 43.6921 382.383 42.675 382.673 41.711C383.781 38.0362 385.436 34.4047 387.59 30.9177C387.88 30.4489 388.348 30.1572 388.852 30.076ZM515.963 14.9812C516.419 14.9077 516.904 15.0066 517.31 15.2961C520.592 17.6325 523.569 20.2485 526.157 23.0715C526.838 23.8134 526.788 24.9666 526.046 25.6472C525.304 26.3281 524.151 26.2775 523.47 25.5356C521.053 22.9009 518.27 20.4548 515.195 18.2663C514.375 17.6826 514.183 16.5443 514.767 15.7239C515.062 15.3102 515.498 15.0561 515.963 14.9812ZM676.71 4.12172C677.661 3.96849 678.576 4.58649 678.78 5.53967C678.992 6.52424 678.365 7.49348 677.38 7.7046C673.75 8.48299 670.089 9.44357 666.5 10.5601C665.54 10.8559 664.517 10.322 664.218 9.36075C663.919 8.39909 664.456 7.37758 665.417 7.07827C669.111 5.92962 672.878 4.94089 676.616 4.13941C676.647 4.13289 676.678 4.12676 676.71 4.12172ZM690.236 2.0111C690.273 2.005 690.312 2.0003 690.35 1.99624C694.229 1.61862 698.126 1.43631 701.936 1.45465C702.942 1.45921 703.755 2.27945 703.75 3.28638C703.745 4.29301 702.926 5.10571 701.918 5.10051C698.232 5.0831 694.459 5.25955 690.704 5.62544C689.702 5.72299 688.81 4.98956 688.713 3.98743C688.619 3.02411 689.293 2.16293 690.236 2.0111ZM141.448 90.8896C141.456 90.8883 141.465 90.8873 141.473 90.886C144.528 90.4359 147.529 90.0631 150.393 89.778C151.221 89.695 152.05 89.6089 152.88 89.5205C153.881 89.4136 154.779 90.1383 154.886 91.1396C154.993 92.1406 154.268 93.0453 153.267 93.1457C152.429 93.2354 151.592 93.3221 150.755 93.4058C147.947 93.6859 145.003 94.0514 142.004 94.4931C141.008 94.64 140.081 93.9513 139.935 92.9552C139.789 91.9674 140.465 91.0479 141.448 90.8896ZM127.958 93.2899C128.916 93.1356 129.834 93.7623 130.032 94.722C130.236 95.7081 129.601 96.6724 128.615 96.8757C125.026 97.6158 121.302 98.4614 117.546 99.3884C116.569 99.6319 115.581 99.0334 115.339 98.0555C115.098 97.0783 115.695 96.0903 116.672 95.8489C120.473 94.9103 124.243 94.0542 127.878 93.3046C127.905 93.2992 127.931 93.2942 127.958 93.2899ZM166.395 87.969C166.423 87.9645 166.452 87.9606 166.481 87.9575C169.605 87.6021 173.727 87.1534 177.911 86.8345C178.914 86.7579 179.79 87.5099 179.867 88.5139C179.943 89.518 179.192 90.395 178.188 90.4702C174.064 90.7845 169.985 91.2284 166.893 91.5801C165.892 91.6938 164.989 90.9751 164.875 89.9748C164.765 89.0032 165.44 88.1229 166.395 87.969ZM382.683 53.9713C382.725 53.9646 382.767 53.9592 382.81 53.9556C383.813 53.8642 384.699 54.6031 384.791 55.6059C384.806 55.777 384.823 55.9484 384.842 56.1194C384.904 56.6985 384.983 57.2826 385.076 57.8569C385.511 60.5591 386.3 63.3406 387.423 66.1243C387.799 67.0582 387.347 68.1203 386.414 68.4969C385.482 68.8713 384.418 68.4215 384.041 67.4876C382.817 64.4521 381.954 61.4069 381.476 58.4367C381.374 57.8005 381.286 57.1532 381.217 56.5128C381.196 56.3216 381.177 56.1288 381.16 55.9361C381.072 54.9761 381.746 54.1223 382.683 53.9713ZM103.585 99.3739C104.482 99.2296 105.366 99.7731 105.624 100.667C105.904 101.634 105.347 102.645 104.38 102.925C100.809 103.959 97.1524 105.078 93.5107 106.251C92.5489 106.562 91.5253 106.033 91.2166 105.074C90.9079 104.116 91.4345 103.089 92.3929 102.78C96.0688 101.597 99.7609 100.467 103.366 99.4231C103.439 99.4019 103.513 99.3857 103.585 99.3739ZM652.827 11.7747C653.631 11.6451 654.452 12.0705 654.789 12.853C655.188 13.7774 654.762 14.8504 653.838 15.2492C650.401 16.7318 646.993 18.3832 643.708 20.1571C642.824 20.6366 641.716 20.3057 641.237 19.4193C640.759 18.5336 641.089 17.4275 641.975 16.9488C645.354 15.1245 648.859 13.4261 652.393 11.9015C652.535 11.8403 652.681 11.7983 652.827 11.7747ZM191.444 86.4181C191.552 86.4006 191.664 86.3924 191.777 86.3953C195.916 86.4905 199.712 86.8131 203.381 87.3823C204.376 87.5365 205.058 88.4683 204.903 89.4631C204.749 90.4584 203.817 91.1394 202.823 90.9854C199.312 90.4411 195.672 90.1317 191.694 90.0402C190.687 90.017 189.89 89.1826 189.913 88.176C189.934 87.2833 190.593 86.5551 191.444 86.4181ZM532.157 33.8126C532.944 33.6858 533.75 34.0897 534.101 34.849C535.212 37.2561 536.078 39.7489 536.673 42.2582C536.901 43.2171 537.1 44.2221 537.265 45.2445C537.321 45.5912 537.372 45.9386 537.42 46.2862C537.559 47.2832 536.87 48.2164 535.864 48.3412C534.867 48.4792 533.946 47.7822 533.809 46.785C533.764 46.4642 533.716 46.144 533.665 45.8243C533.514 44.8898 533.333 43.9734 533.125 43.1002C532.586 40.8263 531.801 38.5648 530.791 36.3773C530.368 35.4632 530.767 34.38 531.682 33.9581C531.836 33.8865 531.996 33.8385 532.157 33.8126ZM79.6968 107.132C80.546 106.995 81.3992 107.477 81.7004 108.316C82.0409 109.264 81.5484 110.308 80.6006 110.648C77.0536 111.922 73.4697 113.263 69.9491 114.635C69.0097 115 67.9543 114.536 67.5884 113.597C67.2231 112.659 67.6873 111.602 68.6255 111.237C72.1764 109.854 75.7909 108.501 79.3686 107.216C79.4769 107.178 79.5869 107.149 79.6968 107.132ZM56.3008 116.315C57.108 116.185 57.9309 116.614 58.2661 117.4C58.6615 118.326 58.231 119.397 57.3049 119.792C53.8114 121.283 50.3137 122.833 46.9081 124.398C45.993 124.819 44.9106 124.418 44.4901 123.503C44.0698 122.588 44.4704 121.506 45.3851 121.085C48.8209 119.506 52.3501 117.943 55.8739 116.439C56.0138 116.379 56.1572 116.338 56.3008 116.315ZM630.866 23.8987C631.539 23.7903 632.246 24.0657 632.659 24.6647C633.23 25.4939 633.021 26.629 632.192 27.2003C629.086 29.3391 626.074 31.629 623.239 34.0061C622.467 34.6521 621.318 34.5512 620.671 33.7802C620.024 33.0084 620.125 31.8587 620.897 31.2116C623.82 28.7613 626.924 26.4015 630.123 24.1975C630.353 24.039 630.607 23.9404 630.866 23.8987ZM216.058 90.8001C216.358 90.7518 216.673 90.7775 216.979 90.8907C220.674 92.2579 224.241 93.9397 227.581 95.8892C228.451 96.3967 228.744 97.5132 228.236 98.3826C227.728 99.2524 226.613 99.5452 225.743 99.0382C222.585 97.195 219.211 95.6039 215.713 94.31C214.769 93.9608 214.287 92.9123 214.636 91.9677C214.873 91.3288 215.43 90.9012 216.058 90.8001ZM33.5054 126.88C34.2696 126.757 35.0572 127.133 35.4236 127.861C35.876 128.761 35.5138 129.857 34.6144 130.309C31.1836 132.035 27.7968 133.808 24.5479 135.577C23.6642 136.059 22.5562 135.733 22.0749 134.849C21.5932 133.964 21.9195 132.857 22.8039 132.376C26.0873 130.587 29.5098 128.796 32.9756 127.052C33.1471 126.966 33.3258 126.909 33.5054 126.88ZM267.348 94.5706C267.674 94.5182 267.999 94.4669 268.325 94.4174C269.32 94.2647 270.25 94.9481 270.403 95.9433C270.554 96.9337 269.878 97.8602 268.891 98.0192C268.886 98.02 268.881 98.0204 268.877 98.0211C265.234 98.5779 261.522 99.3088 257.821 100.188C256.832 100.417 255.858 99.8151 255.626 98.8358C255.393 97.8561 255.998 96.8736 256.978 96.6407C260.445 95.817 263.934 95.1205 267.348 94.5706ZM281.935 93.0611C282.004 93.0499 282.075 93.0426 282.146 93.0395C286.035 92.8677 289.923 92.8869 293.702 93.0965L293.758 93.1C294.762 93.1655 295.524 94.0329 295.458 95.0376C295.393 96.0423 294.526 96.8046 293.521 96.7382L293.639 94.9191L293.511 96.7375C289.841 96.534 286.076 96.5156 282.308 96.6821C281.302 96.7266 280.45 95.9473 280.406 94.9414C280.364 94.0072 281.034 93.2063 281.935 93.0611ZM611.827 40.2189C612.365 40.1324 612.935 40.2864 613.363 40.6869C614.099 41.3743 614.138 42.5278 613.45 43.2635C610.871 46.0237 608.448 48.9161 606.25 51.8604C605.647 52.6663 604.505 52.8324 603.698 52.2304C602.891 51.6278 602.726 50.4856 603.328 49.6791C605.606 46.6278 608.116 43.6316 610.787 40.7739C611.074 40.4669 611.442 40.2809 611.827 40.2189ZM243.939 100.365C244.807 100.225 245.672 100.731 245.958 101.592C246.274 102.548 245.756 103.58 244.8 103.896C243.235 104.415 241.657 104.964 240.076 105.54C242.507 108.026 244.626 110.685 246.388 113.462C246.928 114.312 246.676 115.439 245.825 115.978C244.976 116.517 243.849 116.266 243.309 115.415C241.418 112.434 239.073 109.593 236.341 106.972C236.335 106.967 236.329 106.961 236.323 106.955C235.615 107.232 234.906 107.514 234.199 107.8C233.266 108.178 232.203 107.728 231.825 106.795C231.447 105.862 231.897 104.799 232.83 104.421C236.433 102.962 240.075 101.621 243.654 100.435C243.748 100.404 243.844 100.381 243.939 100.365ZM392.044 76.9797C392.719 76.871 393.427 77.1484 393.839 77.7497C395.669 80.4217 397.832 83.2739 400.645 86.7255C401.281 87.5059 401.164 88.6543 400.383 89.2903C399.602 89.9266 398.454 89.8093 397.818 89.0289C394.94 85.4966 392.719 82.5676 390.831 79.8102C390.262 78.9796 390.474 77.8447 391.305 77.2757C391.534 77.1188 391.787 77.0212 392.044 76.9797ZM11.4974 138.996C12.2093 138.881 12.9516 139.198 13.3477 139.852C13.8691 140.713 13.5933 141.834 12.732 142.356C9.40056 144.372 6.18282 146.419 3.16768 148.44C2.33105 149.002 1.19905 148.778 0.638277 147.941C0.0778078 147.105 0.301125 145.973 1.13745 145.412C4.199 143.36 7.46477 141.282 10.844 139.236C11.0508 139.111 11.2726 139.032 11.4974 138.996ZM306.937 94.794C307.143 94.761 307.357 94.7626 307.572 94.8042C311.404 95.5422 315.195 96.5026 318.84 97.6583C319.8 97.9627 320.331 98.9872 320.027 99.9472C319.722 100.907 318.698 101.438 317.738 101.134C314.228 100.021 310.576 99.0958 306.882 98.3846C305.894 98.194 305.247 97.2384 305.437 96.2497C305.586 95.4764 306.203 94.9123 306.937 94.794ZM535.731 58.4127C535.846 58.3942 535.964 58.3865 536.084 58.3908C537.09 58.4243 537.878 59.2673 537.845 60.2738C537.819 61.0327 537.791 61.7921 537.763 62.5514C537.653 65.5274 537.54 68.6046 537.595 71.5924C537.614 72.5988 536.812 73.4338 535.806 73.4488C534.799 73.4676 533.968 72.6665 533.95 71.66C533.893 68.5711 534.008 65.4425 534.12 62.417C534.147 61.6617 534.175 60.9064 534.201 60.1515C534.23 59.2657 534.888 58.5484 535.731 58.4127ZM220.758 109.984C221.511 109.863 222.29 110.226 222.663 110.939C223.13 111.831 222.786 112.932 221.894 113.399C218.273 115.295 215.182 117.21 212.443 119.253C211.637 119.855 210.494 119.69 209.892 118.883C209.29 118.076 209.455 116.934 210.262 116.332C213.158 114.171 216.409 112.155 220.202 110.169C220.382 110.076 220.569 110.014 220.758 109.984ZM330.701 102.697C331.063 102.638 331.445 102.688 331.798 102.863C335.334 104.612 338.722 106.592 341.868 108.747C342.699 109.317 342.911 110.451 342.342 111.282C341.773 112.112 340.638 112.324 339.808 111.755C336.803 109.697 333.564 107.804 330.182 106.131C329.279 105.684 328.91 104.591 329.356 103.688C329.628 103.139 330.139 102.787 330.701 102.697ZM597.114 60.4923C597.498 60.4305 597.905 60.4905 598.273 60.6905C599.158 61.1715 599.485 62.2782 599.005 63.1629C597.611 65.7285 596.281 68.4114 594.994 71.0056C594.617 71.766 594.24 72.5265 593.861 73.2854C593.411 74.1861 592.316 74.5513 591.416 74.1017C590.515 73.6518 590.149 72.5568 590.599 71.6561C590.977 70.9003 591.352 70.1434 591.728 69.3862C593.029 66.7615 594.375 64.0477 595.801 61.4221C596.082 60.9056 596.576 60.5791 597.114 60.4923ZM201.416 125.641C201.869 125.568 202.349 125.665 202.754 125.949C203.577 126.528 203.776 127.666 203.197 128.489C201.087 131.491 199.501 134.843 198.611 138.181C198.351 139.153 197.353 139.732 196.38 139.473C195.407 139.213 194.828 138.214 195.088 137.242C196.087 133.494 197.86 129.742 200.214 126.393C200.508 125.974 200.947 125.716 201.416 125.641ZM407.623 96.6771C408.255 96.5752 408.922 96.81 409.347 97.3491C412.132 100.887 414.275 103.892 416.091 106.803C416.623 107.658 416.362 108.782 415.508 109.315C414.655 109.847 413.53 109.587 412.997 108.732C411.254 105.937 409.183 103.036 406.482 99.6046C405.859 98.8133 405.996 97.6673 406.787 97.0445C407.039 96.8459 407.327 96.7247 407.623 96.6771ZM249.8 125.216C250.75 125.063 251.664 125.679 251.87 126.63C251.909 126.81 251.947 126.989 251.984 127.169C252.076 127.624 252.16 128.086 252.234 128.544C252.762 131.821 252.822 135.2 252.414 138.586C252.294 139.586 251.385 140.298 250.386 140.178C249.387 140.057 248.674 139.149 248.794 138.149C249.162 135.101 249.108 132.065 248.635 129.124C248.569 128.715 248.493 128.302 248.411 127.896C248.377 127.73 248.342 127.566 248.307 127.401C248.094 126.417 248.719 125.447 249.703 125.234C249.735 125.227 249.768 125.221 249.8 125.216ZM537.603 83.3057C538.469 83.1663 539.333 83.6689 539.62 84.5274C540.858 88.2271 542.6 91.3349 544.799 93.7644C545.474 94.5111 545.416 95.6641 544.67 96.3393C543.923 97.0155 542.77 96.9571 542.095 96.2107C539.557 93.4058 537.561 89.8646 536.162 85.6847C535.842 84.7301 536.358 83.6968 537.312 83.3774C537.409 83.345 537.506 83.3213 537.603 83.3057ZM351.063 117.196C351.624 117.106 352.219 117.278 352.65 117.713C352.9 117.965 353.148 118.22 353.394 118.476C355.508 120.677 357.624 123.152 360.253 126.5C360.875 127.291 360.738 128.438 359.946 129.059C359.153 129.683 358.008 129.543 357.386 128.752C354.834 125.503 352.792 123.112 350.764 121.001C350.531 120.759 350.297 120.518 350.06 120.279C349.351 119.564 349.356 118.41 350.071 117.701C350.352 117.423 350.701 117.255 351.063 117.196ZM585.257 82.6198C585.695 82.5493 586.159 82.6373 586.557 82.9019C587.395 83.4597 587.623 84.5912 587.065 85.4296C585.553 87.7022 584.024 89.6974 582.391 91.5291C581.475 92.5566 580.478 93.5529 579.429 94.4898C578.678 95.1599 577.526 95.0948 576.855 94.3441C576.185 93.5929 576.25 92.4405 577.001 91.7698C577.947 90.9249 578.845 90.0277 579.67 89.1025C581.187 87.4003 582.613 85.5384 584.029 83.4101C584.322 82.9696 584.773 82.6977 585.257 82.6198ZM196.671 149.423C197.545 149.282 198.415 149.796 198.694 150.664C198.878 151.235 199.091 151.801 199.327 152.346C200.439 154.917 202.172 157.193 204.48 159.11C205.254 159.753 205.36 160.903 204.717 161.677C204.073 162.451 202.924 162.558 202.15 161.914C199.398 159.628 197.322 156.895 195.98 153.793C195.698 153.141 195.443 152.464 195.224 151.782C194.915 150.824 195.441 149.797 196.4 149.488C196.49 149.459 196.581 149.437 196.671 149.423ZM420.067 118.329C420.951 118.186 421.827 118.714 422.097 119.594C422.317 120.31 422.52 121.037 422.699 121.754C422.918 122.629 423.103 123.531 423.249 124.434C423.62 126.738 423.749 129.108 423.634 131.482C423.585 132.487 422.726 133.264 421.725 133.214C420.719 133.165 419.943 132.31 419.992 131.304C420.095 129.184 419.98 127.068 419.649 125.014C419.52 124.213 419.356 123.414 419.162 122.638C418.998 121.983 418.813 121.319 418.612 120.664C418.316 119.702 418.857 118.682 419.82 118.386C419.902 118.361 419.985 118.342 420.067 118.329ZM554.978 99.53C555.154 99.5016 555.338 99.4987 555.524 99.5253C558.775 99.9855 562.344 99.5839 565.92 98.3594C566.871 98.0319 567.909 98.5407 568.236 99.4932C568.562 100.446 568.054 101.482 567.102 101.809C562.982 103.22 558.833 103.677 555.012 103.135C554.016 102.994 553.322 102.072 553.463 101.075C553.578 100.264 554.21 99.6537 554.978 99.53ZM246.12 149.52C246.511 149.457 246.926 149.521 247.299 149.73C248.177 150.221 248.491 151.332 247.999 152.211C245.981 155.818 243.417 158.941 240.378 161.492C239.605 162.14 238.456 162.039 237.809 161.268C237.162 160.497 237.262 159.347 238.033 158.7C240.733 156.433 243.016 153.651 244.818 150.431C245.1 149.925 245.589 149.606 246.12 149.52ZM366.957 136.627C367.576 136.527 368.229 136.749 368.656 137.267C371.176 140.327 373.405 142.724 375.671 144.81C375.872 144.995 376.074 145.178 376.279 145.359C377.034 146.025 377.105 147.178 376.438 147.932C375.772 148.687 374.62 148.758 373.865 148.091C373.64 147.893 373.419 147.693 373.2 147.491C370.809 145.29 368.471 142.778 365.842 139.585C365.202 138.808 365.313 137.659 366.09 137.019C366.349 136.806 366.648 136.676 366.957 136.627ZM215.376 164.291C215.576 164.259 215.784 164.26 215.995 164.299C219.171 164.882 222.503 164.924 225.634 164.42C225.976 164.365 226.318 164.304 226.658 164.235C227.643 164.049 228.606 164.677 228.804 165.665C229.001 166.652 228.361 167.613 227.374 167.81C226.988 167.887 226.601 167.958 226.213 168.02C222.677 168.589 218.916 168.543 215.336 167.885C214.346 167.703 213.691 166.752 213.873 165.762C214.016 164.983 214.635 164.411 215.376 164.291ZM417.958 142.704C418.342 142.642 418.749 142.703 419.118 142.903C420.002 143.385 420.329 144.492 419.847 145.376C417.783 149.169 415.038 152.213 411.688 154.423C410.847 154.979 409.717 154.746 409.163 153.905C408.608 153.065 408.84 151.934 409.68 151.379C412.526 149.502 414.869 146.896 416.645 143.633C416.926 143.117 417.419 142.791 417.958 142.704ZM386.322 152.204C386.645 152.152 386.986 152.186 387.31 152.321C390.856 153.795 394.363 154.584 397.733 154.668C398.739 154.693 399.535 155.529 399.51 156.535C399.485 157.542 398.65 158.338 397.643 158.313C393.821 158.218 389.874 157.335 385.911 155.688C384.981 155.302 384.54 154.235 384.927 153.305C385.178 152.699 385.719 152.301 386.322 152.204Z" fill="#04D1D2"/>
</svg>
