<svg width="507" height="188" viewBox="0 0 507 188" fill="none" xmlns="http://www.w3.org/2000/svg">
<path d="M105.178 37.7549C106.059 37.6147 106.906 38.1635 107.097 39.0197C107.296 39.909 106.713 40.7936 105.795 40.9952C102.293 41.7649 98.9255 42.7318 95.7851 43.8688C94.9052 44.1886 93.927 43.7552 93.6064 42.901C93.2857 42.0466 93.741 41.0951 94.624 40.7755C97.9073 39.5864 101.424 38.5768 105.075 37.7745C105.109 37.7668 105.143 37.7603 105.178 37.7549ZM117.808 35.8225C117.845 35.8165 117.883 35.8118 117.922 35.808C121.335 35.4889 124.959 35.2975 128.694 35.2395C129.633 35.2249 130.399 35.9521 130.405 36.8642C130.412 37.7762 129.658 38.5278 128.716 38.5416C125.072 38.5984 121.539 38.7848 118.216 39.0956C117.28 39.1832 116.456 38.5184 116.375 37.6104C116.296 36.7398 116.931 35.9619 117.808 35.8225ZM141.215 35.5282C141.336 35.5089 141.461 35.5023 141.588 35.5091C145.422 35.7203 148.928 36.0323 152.307 36.4634C153.236 36.5822 153.884 37.4111 153.753 38.3156C153.622 39.2201 152.761 39.8568 151.832 39.7381C148.537 39.3175 145.113 39.0129 141.363 38.8065C140.426 38.7552 139.717 37.9753 139.779 37.0646C139.832 36.2778 140.445 35.6506 141.215 35.5282ZM83.4297 46.1321C84.0841 46.0281 84.7657 46.3023 85.1361 46.8805C85.6298 47.6517 85.3824 48.6717 84.5835 49.1585C81.6572 50.9418 78.9042 53.0105 76.4012 55.3068C75.7155 55.9357 74.6393 55.9114 73.9978 55.2512C73.3564 54.591 73.3924 53.5458 74.0781 52.9166C76.7453 50.4694 79.678 48.2655 82.7955 46.3657C82.9954 46.2438 83.2112 46.1669 83.4297 46.1321ZM164.328 38.8129C164.557 38.7766 164.797 38.7853 165.035 38.8459C168.658 39.7734 172.116 40.9071 175.312 42.2159C176.174 42.5694 176.571 43.5374 176.199 44.3782C175.827 45.2187 174.826 45.6138 173.964 45.261C170.915 44.0118 167.609 42.9282 164.139 42.0404C163.233 41.8085 162.699 40.9057 162.946 40.0237C163.128 39.3727 163.685 38.9152 164.328 38.8129ZM66.838 62.0797C67.2278 62.0177 67.6401 62.0862 68.0002 62.3022C68.7957 62.7795 69.0361 63.7966 68.537 64.5738C66.6624 67.4928 65.2203 70.5225 64.2513 73.5791C63.9745 74.4527 63.0228 74.9506 62.1248 74.6893C61.2276 74.4286 60.7249 73.5086 61.0019 72.6347C62.0583 69.3032 63.6242 66.0094 65.6559 62.8453C65.9291 62.4199 66.3672 62.1545 66.838 62.0797ZM185.493 48.0812C185.919 48.0135 186.37 48.1018 186.747 48.363C189.794 50.471 192.554 52.833 194.951 55.3835C195.581 56.0538 195.527 57.0985 194.83 57.7169C194.135 58.3356 193.059 58.2927 192.429 57.6224C190.191 55.242 187.61 53.0334 184.756 51.0589C183.995 50.5323 183.823 49.5016 184.373 48.757C184.651 48.3815 185.059 48.1502 185.493 48.0812ZM335.494 37.8332C336.383 37.6919 337.232 38.2494 337.417 39.1123C337.608 40.0036 337.017 40.8831 336.097 41.0769C332.706 41.7913 329.286 42.6707 325.931 43.6913C325.034 43.9617 324.083 43.4807 323.81 42.6107C323.537 41.7404 324.045 40.8137 324.943 40.5402C328.395 39.4902 331.916 38.585 335.406 37.8494C335.436 37.8434 335.465 37.8378 335.494 37.8332ZM348.124 35.8867C348.159 35.8811 348.195 35.8767 348.231 35.873C351.85 35.521 355.487 35.3459 359.04 35.3527C359.979 35.3543 360.732 36.0952 360.721 37.0073C360.71 37.9191 359.941 38.6574 359.001 38.6553C355.563 38.6489 352.043 38.8184 348.538 39.1595C347.602 39.2504 346.775 38.5883 346.691 37.6808C346.609 36.8084 347.243 36.0266 348.124 35.8867ZM-164.305 117.799C-164.297 117.798 -164.29 117.797 -164.282 117.796C-161.429 117.38 -158.628 117.035 -155.955 116.769C-155.182 116.692 -154.408 116.612 -153.634 116.529C-152.699 116.43 -151.866 117.084 -151.772 117.991C-151.679 118.897 -152.36 119.719 -153.295 119.812C-154.077 119.896 -154.859 119.976 -155.64 120.054C-158.261 120.315 -161.009 120.654 -163.809 121.062C-164.739 121.197 -165.599 120.576 -165.729 119.674C-165.859 118.779 -165.223 117.945 -164.305 117.799ZM-176.902 120.008C-176.008 119.865 -175.155 120.431 -174.977 121.3C-174.793 122.192 -175.391 123.067 -176.312 123.254C-179.665 123.934 -183.144 124.709 -186.652 125.558C-187.565 125.782 -188.483 125.242 -188.702 124.357C-188.921 123.472 -188.359 122.576 -187.445 122.355C-183.894 121.495 -180.372 120.71 -176.977 120.021C-176.952 120.016 -176.927 120.012 -176.902 120.008ZM-141.018 115.09C-140.991 115.085 -140.965 115.082 -140.938 115.079C-138.022 114.749 -134.174 114.332 -130.27 114.032C-129.333 113.96 -128.521 114.639 -128.455 115.549C-128.391 116.458 -129.097 117.254 -130.034 117.325C-133.883 117.62 -137.69 118.033 -140.576 118.359C-141.51 118.465 -142.348 117.816 -142.448 116.91C-142.545 116.031 -141.91 115.231 -141.018 115.09ZM60.9343 83.7403C60.9732 83.7341 61.0126 83.7292 61.0525 83.7258C61.9884 83.6404 62.8107 84.3075 62.8897 85.2155C62.9031 85.3705 62.9176 85.5257 62.934 85.6805C62.9888 86.2049 63.0586 86.7339 63.1412 87.2538C63.5302 89.7004 64.2491 92.2179 65.2786 94.7366C65.6237 95.5816 65.1957 96.5448 64.3223 96.8884C63.4514 97.2298 62.4611 96.8251 62.1157 95.9802C60.9934 93.2336 60.2077 90.4775 59.7801 87.7882C59.6885 87.2122 59.611 86.6261 59.5505 86.0462C59.5325 85.8731 59.5156 85.6985 59.5008 85.5239C59.4252 84.6546 60.0588 83.8795 60.9343 83.7403ZM-199.674 125.581C-198.837 125.448 -198.016 125.938 -197.78 126.747C-197.525 127.623 -198.051 128.54 -198.955 128.796C-202.292 129.742 -205.71 130.764 -209.114 131.836C-210.013 132.121 -210.964 131.644 -211.246 130.776C-211.528 129.909 -211.031 128.977 -210.135 128.695C-206.699 127.614 -203.248 126.581 -199.879 125.626C-199.81 125.607 -199.742 125.592 -199.674 125.581ZM313.17 44.8265C313.921 44.7071 314.684 45.0903 314.994 45.7982C315.36 46.6345 314.956 47.6075 314.091 47.9712C310.877 49.3229 307.687 50.8275 304.612 52.4428C303.784 52.8793 302.753 52.5824 302.312 51.7808C301.872 50.9797 302.187 49.9769 303.016 49.5411C306.179 47.8799 309.459 46.3325 312.765 44.9424C312.898 44.8867 313.034 44.8482 313.17 44.8265ZM-117.644 113.621C-117.543 113.604 -117.439 113.597 -117.333 113.599C-113.473 113.675 -109.935 113.957 -106.516 114.463C-105.589 114.601 -104.959 115.443 -105.109 116.344C-105.259 117.246 -106.133 117.866 -107.06 117.729C-110.331 117.245 -113.724 116.974 -117.434 116.901C-118.372 116.882 -119.111 116.129 -119.083 115.217C-119.058 114.408 -118.439 113.747 -117.644 113.621ZM200.479 65.0976C201.214 64.9808 201.963 65.3446 202.286 66.0314C203.307 68.2091 204.099 70.4648 204.639 72.7363C204.845 73.6043 205.025 74.5142 205.172 75.4398C205.222 75.7537 205.268 76.0682 205.31 76.383C205.433 77.2858 204.785 78.1329 203.846 78.2485C202.915 78.376 202.061 77.747 201.938 76.8441C201.899 76.5536 201.856 76.2637 201.81 75.9742C201.676 75.1281 201.512 74.2985 201.324 73.5081C200.836 71.4497 200.117 69.4032 199.189 67.4243C198.801 66.5974 199.18 65.6152 200.035 65.2307C200.18 65.1654 200.329 65.1215 200.479 65.0976ZM-222.004 132.669C-221.211 132.543 -220.418 132.978 -220.143 133.737C-219.831 134.594 -220.297 135.542 -221.183 135.852C-224.5 137.015 -227.851 138.239 -231.143 139.491C-232.022 139.824 -233.003 139.406 -233.339 138.557C-233.673 137.708 -233.234 136.75 -232.356 136.416C-229.036 135.154 -225.656 133.92 -222.311 132.747C-222.209 132.711 -222.107 132.686 -222.004 132.669ZM-243.884 141.048C-243.13 140.928 -242.365 141.314 -242.058 142.026C-241.695 142.863 -242.103 143.835 -242.969 144.195C-246.237 145.554 -249.509 146.967 -252.696 148.394C-253.552 148.777 -254.559 148.416 -254.945 147.589C-255.332 146.761 -254.951 145.78 -254.095 145.396C-250.881 143.957 -247.579 142.532 -244.283 141.161C-244.152 141.106 -244.018 141.069 -243.884 141.048ZM292.61 55.8649C293.239 55.7649 293.897 56.0126 294.278 56.5541C294.805 57.3038 294.603 58.3325 293.826 58.8521C290.916 60.7975 288.092 62.8794 285.433 65.0398C284.709 65.627 283.637 65.5386 283.039 64.8418C282.44 64.1444 282.542 63.1026 283.266 62.5146C286.007 60.2876 288.918 58.1421 291.916 56.1374C292.131 55.9932 292.369 55.9033 292.61 55.8649ZM-94.7137 117.527C-94.4338 117.482 -94.1395 117.505 -93.8554 117.607C-90.4171 118.836 -87.1003 120.35 -83.9978 122.107C-83.1897 122.565 -82.9232 123.575 -83.402 124.364C-83.8812 125.153 -84.9235 125.421 -85.7321 124.964C-88.6652 123.303 -91.8026 121.87 -95.0571 120.707C-95.9356 120.393 -96.3788 119.445 -96.0469 118.588C-95.8224 118.009 -95.3001 117.62 -94.7137 117.527ZM-265.212 150.676C-264.499 150.563 -263.766 150.902 -263.429 151.56C-263.013 152.374 -263.358 153.367 -264.199 153.78C-267.41 155.352 -270.58 156.966 -273.622 158.577C-274.449 159.016 -275.48 158.723 -275.924 157.924C-276.368 157.124 -276.056 156.12 -275.228 155.682C-272.155 154.053 -268.951 152.422 -265.707 150.833C-265.547 150.755 -265.38 150.703 -265.212 150.676ZM-46.8971 120.811C-46.5933 120.763 -46.2894 120.715 -45.9855 120.67C-45.056 120.529 -44.1927 121.146 -44.057 122.047C-43.9215 122.943 -44.5579 123.784 -45.4799 123.931C-45.4846 123.932 -45.489 123.932 -45.4933 123.933C-48.8945 124.446 -52.3608 125.118 -55.819 125.924C-56.7429 126.134 -57.6473 125.591 -57.858 124.705C-58.0687 123.818 -57.498 122.926 -56.5828 122.713C-53.3436 121.958 -50.0849 121.318 -46.8971 120.811ZM-33.2822 119.406C-33.2175 119.396 -33.1518 119.389 -33.0849 119.386C-29.4568 119.221 -25.8304 119.228 -22.3069 119.408L-22.2551 119.411C-21.3184 119.468 -20.6137 120.252 -20.6811 121.162C-20.7485 122.072 -21.5616 122.765 -22.499 122.708L-22.3771 121.059L-22.508 122.707C-25.9295 122.532 -29.4418 122.525 -32.9573 122.685C-33.8959 122.728 -34.6852 122.025 -34.7204 121.114C-34.7531 120.267 -34.1239 119.54 -33.2822 119.406ZM274.75 70.6967C275.252 70.617 275.783 70.7551 276.18 71.1168C276.862 71.7375 276.891 72.7823 276.245 73.4504C273.821 75.9573 271.543 78.5835 269.474 81.2561C268.907 81.9877 267.841 82.141 267.092 81.5979C266.343 81.0541 266.196 80.0199 266.763 79.2877C268.907 76.518 271.267 73.7976 273.776 71.2022C274.045 70.9233 274.39 70.7539 274.75 70.6967ZM-68.7679 126.12C-67.9577 125.991 -67.1537 126.447 -66.893 127.226C-66.6036 128.091 -67.0935 129.027 -67.9871 129.316C-69.4502 129.79 -70.9255 130.291 -72.4041 130.817C-70.1519 133.063 -68.192 135.466 -66.5658 137.977C-66.0682 138.746 -66.3103 139.767 -67.1068 140.258C-67.9021 140.748 -68.9515 140.523 -69.45 139.754C-71.1957 137.058 -73.3645 134.491 -75.8968 132.124C-75.9019 132.119 -75.9075 132.114 -75.9128 132.109C-76.5756 132.361 -77.2384 132.618 -77.8995 132.88C-78.7723 133.224 -79.761 132.819 -80.1076 131.975C-80.4543 131.131 -80.0278 130.167 -79.155 129.822C-75.7853 128.491 -72.3802 127.267 -69.0345 126.184C-68.9461 126.155 -68.8569 126.134 -68.7679 126.12ZM69.5209 104.558C70.1511 104.458 70.81 104.707 71.1905 105.251C72.8804 107.666 74.8794 110.244 77.4815 113.364C78.0699 114.069 77.9534 115.11 77.2215 115.688C76.4886 116.266 75.4193 116.163 74.8309 115.457C72.1682 112.265 70.1156 109.618 68.3716 107.125C67.846 106.374 68.0512 105.345 68.8295 104.828C69.0444 104.685 69.2805 104.596 69.5209 104.558ZM-285.816 161.707C-285.151 161.601 -284.461 161.886 -284.095 162.478C-283.614 163.257 -283.879 164.273 -284.685 164.747C-287.805 166.582 -290.819 168.445 -293.644 170.283C-294.428 170.794 -295.483 170.594 -296.001 169.838C-296.518 169.082 -296.303 168.055 -295.519 167.545C-292.651 165.678 -289.592 163.788 -286.427 161.927C-286.233 161.813 -286.026 161.74 -285.816 161.707ZM-9.97264 120.912C-9.78105 120.882 -9.5814 120.883 -9.3808 120.92C-5.81088 121.578 -2.28111 122.439 1.1114 123.476C2.00452 123.749 2.49365 124.676 2.20376 125.547C1.91382 126.417 0.955164 126.9 0.0613749 126.627C-3.20519 125.628 -6.60602 124.8 -10.0465 124.165C-10.9672 123.995 -11.5648 123.131 -11.3811 122.235C-11.2372 121.534 -10.6583 121.021 -9.97264 120.912ZM203.658 87.3718C203.765 87.3547 203.876 87.3474 203.988 87.351C204.926 87.3788 205.656 88.1404 205.618 89.0522C205.59 89.7397 205.559 90.4276 205.528 91.1155C205.407 93.8115 205.282 96.5992 205.314 99.3054C205.325 100.217 204.573 100.975 203.634 100.992C202.695 101.011 201.925 100.288 201.914 99.376C201.88 96.5782 202.007 93.744 202.13 91.0031C202.161 90.3188 202.192 89.6346 202.22 88.9507C202.253 88.1483 202.871 87.4969 203.658 87.3718ZM-90.45 134.892C-89.7467 134.78 -89.0227 135.107 -88.6792 135.752C-88.2489 136.559 -88.5773 137.558 -89.4122 137.983C-92.8011 139.709 -95.6964 141.452 -98.2636 143.31C-99.0198 143.857 -100.085 143.71 -100.641 142.981C-101.198 142.251 -101.036 141.216 -100.279 140.669C-97.5654 138.704 -94.5202 136.87 -90.9694 135.061C-90.8015 134.976 -90.6262 134.92 -90.45 134.892ZM12.1432 128.01C12.4809 127.956 12.8372 128 13.1652 128.157C16.4523 129.733 19.6 131.518 22.5208 133.462C23.2922 133.976 23.4827 135.003 22.9469 135.757C22.4104 136.51 21.3506 136.705 20.58 136.192C17.7902 134.335 14.7812 132.629 11.6368 131.122C10.7977 130.72 10.46 129.73 10.882 128.912C11.1388 128.413 11.6183 128.093 12.1432 128.01ZM260.899 89.0985C261.258 89.0415 261.637 89.0948 261.979 89.2751C262.801 89.7085 263.1 90.7101 262.646 91.5127C261.33 93.8402 260.072 96.2739 258.856 98.627C258.5 99.3168 258.143 100.007 257.785 100.695C257.359 101.512 256.336 101.846 255.499 101.441C254.661 101.036 254.327 100.045 254.753 99.2276C255.11 98.542 255.465 97.8554 255.819 97.1685C257.049 94.7877 258.322 92.326 259.669 89.9441C259.934 89.4755 260.396 89.1784 260.899 89.0985ZM-108.59 149.124C-108.167 149.057 -107.719 149.143 -107.343 149.4C-106.579 149.922 -106.401 150.952 -106.946 151.699C-108.933 154.424 -110.433 157.464 -111.284 160.49C-111.533 161.372 -112.468 161.898 -113.373 161.666C-114.279 161.434 -114.813 160.53 -114.564 159.648C-113.609 156.251 -111.932 152.848 -109.715 149.808C-109.438 149.428 -109.027 149.193 -108.59 149.124ZM83.9276 122.36C84.5183 122.266 85.1391 122.477 85.5314 122.965C88.1076 126.163 90.0876 128.878 91.7623 131.511C92.2538 132.284 92.0036 133.303 91.2034 133.787C90.4042 134.272 89.3564 134.039 88.8645 133.266C87.2562 130.738 85.3435 128.116 82.8453 125.015C82.2693 124.3 82.4038 123.261 83.1455 122.695C83.3819 122.515 83.6517 122.404 83.9276 122.36ZM-63.4575 148.615C-62.5703 148.474 -61.7214 149.03 -61.5354 149.891C-61.5004 150.053 -61.4661 150.216 -61.433 150.379C-61.3496 150.791 -61.2738 151.209 -61.2079 151.624C-60.7362 154.591 -60.701 157.651 -61.1028 160.719C-61.2216 161.625 -62.0734 162.273 -63.0045 162.166C-63.9361 162.06 -64.595 161.239 -64.4765 160.333C-64.1146 157.571 -64.1457 154.821 -64.569 152.158C-64.6279 151.788 -64.6956 151.414 -64.77 151.046C-64.8006 150.897 -64.8318 150.747 -64.864 150.599C-65.0564 149.708 -64.4671 148.827 -63.548 148.632C-63.5177 148.626 -63.4877 148.62 -63.4575 148.615ZM205.248 109.916C206.056 109.787 206.859 110.24 207.121 111.017C208.253 114.365 209.859 117.176 211.894 119.371C212.519 120.046 212.458 121.09 211.758 121.704C211.057 122.318 209.982 122.268 209.357 121.594C207.007 119.059 205.168 115.857 203.889 112.074C203.597 111.21 204.084 110.273 204.977 109.981C205.067 109.952 205.158 109.93 205.248 109.916ZM31.0444 141.092C31.568 141.008 32.1219 141.163 32.5206 141.555C32.7523 141.784 32.9823 142.013 33.21 142.245C35.1684 144.233 37.1263 146.47 39.5576 149.495C40.1326 150.211 39.9971 151.25 39.2547 151.815C38.5114 152.381 37.444 152.258 36.869 151.543C34.5093 148.606 32.6194 146.446 30.7414 144.539C30.5254 144.32 30.3084 144.102 30.0889 143.887C29.4324 143.241 29.4445 142.195 30.1159 141.551C30.3794 141.299 30.7057 141.145 31.0444 141.092ZM249.701 109.172C250.11 109.107 250.542 109.186 250.911 109.425C251.69 109.928 251.895 110.952 251.369 111.713C249.945 113.775 248.506 115.587 246.972 117.25C246.111 118.183 245.175 119.088 244.191 119.939C243.485 120.548 242.411 120.492 241.79 119.814C241.17 119.135 241.238 118.091 241.942 117.482C242.83 116.714 243.674 115.899 244.448 115.059C245.875 113.513 247.217 111.823 248.55 109.891C248.826 109.492 249.249 109.244 249.701 109.172ZM-113.164 170.678C-112.348 170.548 -111.54 171.012 -111.285 171.797C-111.117 172.314 -110.922 172.826 -110.706 173.319C-109.685 175.645 -108.082 177.702 -105.942 179.433C-105.223 180.014 -105.132 181.055 -105.737 181.758C-106.342 182.461 -107.415 182.56 -108.133 181.979C-110.685 179.915 -112.604 177.445 -113.836 174.639C-114.095 174.048 -114.328 173.436 -114.529 172.819C-114.811 171.952 -114.314 171.02 -113.417 170.738C-113.334 170.711 -113.249 170.692 -113.164 170.678ZM95.399 141.941C96.2245 141.81 97.0384 142.285 97.2849 143.082C97.4856 143.73 97.6699 144.388 97.8326 145.036C98.0315 145.829 98.1984 146.646 98.3284 147.463C98.6599 149.549 98.7658 151.696 98.6432 153.846C98.5913 154.757 97.7857 155.462 96.8516 155.42C95.9136 155.378 95.1957 154.606 95.2476 153.695C95.3572 151.774 95.2625 149.857 94.9669 147.998C94.8516 147.272 94.7039 146.549 94.528 145.847C94.3792 145.254 94.2108 144.653 94.0274 144.06C93.7575 143.189 94.2684 142.264 95.1678 141.994C95.2448 141.971 95.322 141.953 95.399 141.941ZM221.352 124.567C221.517 124.541 221.688 124.538 221.862 124.562C224.891 124.97 228.223 124.597 231.566 123.479C232.455 123.18 233.42 123.638 233.718 124.5C234.017 125.362 233.537 126.302 232.646 126.6C228.794 127.89 224.922 128.314 221.362 127.833C220.433 127.708 219.792 126.874 219.93 125.97C220.042 125.236 220.635 124.681 221.352 124.567ZM-67.0428 170.64C-66.6772 170.582 -66.291 170.639 -65.9442 170.827C-65.1279 171.27 -64.8421 172.275 -65.3064 173.072C-67.2116 176.345 -69.6231 179.18 -72.4738 181.499C-73.1983 182.088 -74.2693 181.999 -74.8682 181.303C-75.4672 180.606 -75.3663 179.564 -74.6432 178.976C-72.1104 176.915 -69.9639 174.39 -68.263 171.468C-67.9959 171.009 -67.5385 170.719 -67.0428 170.64ZM45.7469 158.652C46.3246 158.56 46.9323 158.759 47.3274 159.227C49.6585 161.993 51.7225 164.158 53.8228 166.041C54.0091 166.209 54.1967 166.374 54.3871 166.537C55.0867 167.139 55.146 168.183 54.5193 168.868C53.8933 169.553 52.8181 169.621 52.1181 169.019C51.9099 168.839 51.7045 168.659 51.5016 168.477C49.2853 166.489 47.1199 164.219 44.6878 161.334C44.0958 160.632 44.2067 159.591 44.9353 159.009C45.1782 158.816 45.4587 158.697 45.7469 158.652ZM-95.8112 184.099C-95.6243 184.069 -95.4298 184.069 -95.2334 184.104C-92.2754 184.624 -89.1671 184.654 -86.2442 184.189C-85.9244 184.138 -85.6053 184.082 -85.2874 184.019C-84.368 183.848 -83.4738 184.415 -83.2952 185.308C-83.117 186.202 -83.7202 187.074 -84.6422 187.256C-85.0023 187.326 -85.3638 187.391 -85.7264 187.448C-89.0282 187.973 -92.5359 187.94 -95.8708 187.354C-96.7932 187.192 -97.3983 186.332 -97.2223 185.435C-97.0837 184.728 -96.5025 184.209 -95.8112 184.099ZM93.2786 164.026C93.6375 163.969 94.0167 164.023 94.3594 164.204C95.181 164.637 95.4788 165.639 95.0243 166.442C93.0753 169.882 90.4955 172.646 87.3571 174.657C86.5695 175.163 85.5165 174.955 85.0048 174.194C84.4929 173.435 84.716 172.41 85.5035 171.906C88.1695 170.197 90.3716 167.831 92.0484 164.871C92.3134 164.403 92.7759 164.106 93.2786 164.026ZM63.7113 172.713C64.0128 172.665 64.3304 172.695 64.6318 172.816C67.9303 174.142 71.1962 174.848 74.3388 174.915C75.2774 174.935 76.0144 175.69 75.985 176.602C75.9556 177.513 75.1712 178.237 74.2319 178.217C70.6682 178.141 66.9924 177.351 63.3056 175.869C62.4408 175.522 62.0367 174.556 62.4028 173.713C62.6416 173.164 63.1481 172.802 63.7113 172.713Z" fill="#04D1D2"/>
<path d="M449.399 8.22248C455.543 13.3022 457.418 22.6711 453.939 29.9667C450.534 37.1067 443.033 41.072 435.568 39.7762C428.45 38.5322 422.232 32.8564 420.517 25.4313C418.79 17.8765 421.381 9.53129 426.969 4.46452C427.512 3.98506 428.142 4.10172 428.586 4.46452C434.569 0.991683 444.612 4.28317 449.399 8.22248Z" fill="#04D1D2"/>
<path d="M385.905 72.9352C385.477 72.9949 385.185 73.0168 384.977 73.0049C384.777 72.9934 384.726 72.9543 384.724 72.9521L384.724 72.9521C384.721 72.9501 384.711 72.9422 384.694 72.9149C384.675 72.8849 384.648 72.8304 384.619 72.7369C384.56 72.5411 384.513 72.2432 384.484 71.7861L383.689 71.8366L384.484 71.7861C384.339 69.5149 384.33 67.2219 384.541 64.979L383.748 64.9045L384.541 64.979C385.337 56.5088 388.033 48.7501 393.05 41.8684C397.341 43.8225 401.631 45.0363 405.868 44.8715C410.182 44.7036 414.375 43.1085 418.397 39.5406L419.135 39.8886C415.394 45.7396 413.432 52.2036 411.905 58.6951C411.153 61.894 410.795 65.1963 410.443 68.4319C410.365 69.1536 410.287 69.872 410.205 70.5851C410.181 70.7987 410.146 70.9185 410.118 70.9826C410.106 71.0122 410.096 71.0259 410.093 71.03C410.092 71.0311 410.092 71.0318 410.091 71.0322L410.091 71.0323C410.091 71.0324 410.091 71.0324 410.091 71.0324C410.091 71.0327 410.091 71.0328 410.091 71.0327L410.091 71.0326L410.088 71.0343C410.085 71.0359 410.08 71.0386 410.073 71.0421C410.056 71.0493 410.029 71.0594 409.985 71.0701C409.89 71.0931 409.758 71.1106 409.557 71.1255L409.557 71.1255C403.674 71.5594 397.792 72.0125 391.911 72.4656C390.22 72.5959 388.529 72.7261 386.838 72.8559L386.838 72.856C386.773 72.861 386.701 72.8657 386.623 72.8707C386.404 72.8849 386.145 72.9016 385.905 72.9352ZM385.905 72.9352L386.015 73.7239L385.905 72.9352C385.905 72.9352 385.905 72.9352 385.905 72.9352ZM409.615 71.9198C403.733 72.3535 397.853 72.8066 391.973 73.2596C390.282 73.3899 388.591 73.5202 386.899 73.65L409.615 71.9198Z" stroke="#025556" stroke-width="1.59282"/>
<path d="M465.359 36.0089C467.66 37.3066 469.625 38.9074 471.041 41.0558C475.328 47.5609 479.488 54.2725 481.699 61.9911M465.359 36.0089L480.934 62.2105M465.359 36.0089L467.107 34.8845M465.359 36.0089L492.519 33.2804M481.699 61.9911L480.934 62.2105M481.699 61.9911C481.699 61.9911 481.699 61.9911 481.699 61.9911L480.934 62.2105M481.699 61.9911C481.895 62.6754 482.114 63.343 482.349 64.0632C482.404 64.2284 482.459 64.3963 482.514 64.5678M480.934 62.2105C481.134 62.9089 481.36 63.5999 481.598 64.3287C481.713 64.6788 481.83 65.0377 481.949 65.4103M482.514 64.5678L481.888 64.6162L481.949 65.4103M482.514 64.5678L483.534 64.4889C485.451 64.3408 487.367 64.1923 489.284 64.0439C494.053 63.6744 498.824 63.3049 503.594 62.9398C504.271 62.888 504.729 62.8352 505.053 62.7539C505.369 62.6745 505.454 62.5924 505.483 62.556C505.518 62.5136 505.587 62.3959 505.612 62.036C505.637 61.6744 505.611 61.1784 505.549 60.463C505.498 59.8856 505.407 59.3079 505.31 58.6987L505.297 58.6145C504.557 53.9423 503.034 49.4919 501.004 45.215C498.871 40.7231 495.962 36.7519 492.519 33.2804M482.514 64.5678C482.578 64.7629 482.642 64.9627 482.708 65.1684L481.949 65.4103M481.949 65.4103L492.519 33.2804M492.519 33.2804C492.701 33.1615 492.883 33.041 493.065 32.919L492.621 32.2578L492.063 32.8259C492.216 32.9764 492.368 33.1279 492.519 33.2804ZM492.519 33.2804C488.497 35.9083 484.399 37.7671 480.184 38.2464C475.893 38.7343 471.545 37.7859 467.107 34.8845M467.107 34.8845L467.546 34.602L467.115 33.9323L466.666 34.5902C466.813 34.6905 466.96 34.7886 467.107 34.8845Z" stroke="#025556" stroke-width="1.59282"/>
<path d="M466.665 23.2167C466.503 22.6151 466.338 22.004 466.157 21.3817C465.857 17.8454 467.519 13.3269 470.684 10.0202C473.842 6.72069 478.426 4.69873 483.93 6.04919C485.216 6.36468 486.547 7.01518 487.521 7.85639C489.846 9.86435 491.792 12.9785 492.696 16.4369C493.598 19.8884 493.447 23.6228 491.671 26.9125C490.017 29.9753 487.023 32.2743 483.602 33.4391C480.182 34.6037 476.406 34.6101 473.22 33.1815L472.894 33.9082L473.22 33.1815C470.582 31.9987 468.94 29.848 467.884 27.1572C467.382 25.8792 467.03 24.572 466.665 23.2167Z" stroke="#025556" stroke-width="1.59282"/>
<path d="M390.837 31.3046L390.074 31.524L390.837 31.3046C389.287 25.9184 390.336 20.8373 393.689 16.4688C396.527 12.7702 400.698 11.9921 405.351 12.8432C408.219 13.3677 411.049 15.1638 413.264 17.6266C415.45 20.0581 416.974 23.0705 417.346 25.9915C417.227 26.7345 417.127 27.4633 417.029 28.1812C416.808 29.7961 416.595 31.3555 416.185 32.895C415.601 35.0857 414.566 36.7561 413.154 37.9895C411.737 39.2268 409.899 40.0606 407.66 40.5055C399.846 42.0579 392.821 38.2023 390.837 31.3046Z" stroke="#025556" stroke-width="1.59282"/>
<path d="M446.226 76.9991C436.197 77.7743 426.164 78.511 416.141 79.3654C414.586 79.4979 414.13 78.8126 413.957 77.5788C413.213 72.2665 413.512 66.9851 414.765 61.7917C415.644 58.1515 416.454 54.4286 417.927 51.0154C419.561 47.2271 421.915 43.7491 423.954 40.1351C424.094 39.8865 424.287 39.645 424.345 39.3765C424.58 38.2751 425.235 38.3533 425.966 38.8021C429.593 41.0264 433.641 41.7541 437.772 42.3469C442.98 43.0942 447.637 41.651 452.021 39.0774C453.242 38.3603 454.183 37.177 455.306 36.274C455.625 36.0175 456.266 35.7541 456.533 35.9022C459.376 37.4811 462.401 38.8543 464.932 40.8473C468.891 43.9645 471.632 48.2005 473.752 52.7326C475.397 56.2506 476.933 59.8725 477.985 63.5986C478.813 66.5306 478.982 69.6849 479.127 72.7553C479.185 73.997 477.881 74.5561 476.611 74.6535C467.957 75.3164 459.304 75.9881 450.651 76.657L446.226 76.9991ZM456.482 37.9839C446.913 46.3787 436.446 45.5659 425.512 40.9095C418.111 51.849 414.692 63.882 415.648 77.3032L477.515 72.5209C477.193 70.0862 477.136 67.4932 476.475 65.0642C474.604 58.1827 471.759 51.7521 467.335 46.0388C464.437 42.2965 460.784 39.7632 456.482 37.9839Z" fill="#025556"/>
<path d="M435.702 3.26992C441.662 2.70956 446.394 5.03916 450.465 9.26048C452.673 11.5487 454.332 14.1117 455.266 17.0855C456.464 20.8956 456.102 24.7579 455.104 28.5744C454.02 32.7252 451.934 36.1874 447.961 38.1152C444.967 39.5684 441.791 40.2211 438.381 39.9678C435.849 39.7796 433.382 39.5833 431.06 38.4827C426.192 36.1757 422.826 32.4481 421.402 27.2999C419.465 20.2987 421.126 13.7775 425.353 8.05827C427.325 5.38958 430.393 3.90812 433.786 3.42394C434.419 3.33362 435.063 3.31931 435.702 3.26992ZM434.873 5.10022C430.911 5.58893 427.119 7.64758 424.938 12.2458C422.288 17.8335 421.478 23.5094 424.205 29.2537C426.274 33.6121 429.655 36.5193 434.492 37.6107C437.619 38.3162 440.741 38.4448 443.827 37.6522C446.62 36.9347 449.284 35.7967 450.998 33.3034C453.507 29.6525 454.273 25.4411 454.07 21.1542C453.881 17.1394 452.138 13.6887 449.293 10.7148C445.559 6.81168 441.249 4.59087 434.873 5.10022Z" fill="#025556"/>
<path d="M397.541 6.64127C393.307 7.12453 389.749 9.18774 386.085 11.2463C385.655 11.4858 385.137 10.9388 385.424 10.5409C387.99 7.0056 393.219 4.93963 397.501 5.71236C398.037 5.81185 398.071 6.58848 397.541 6.64127Z" fill="#04D1D2"/>
<path d="M496.801 6.10607C493.465 3.45353 489.491 2.39701 485.444 1.26181C484.971 1.12694 484.991 0.373883 485.475 0.295205C489.789 -0.390409 494.948 1.84627 497.429 5.42046C497.738 5.87004 497.213 6.44326 496.801 6.10607Z" fill="#04D1D2"/>
<path d="M426.251 47.2188C423.465 52.9543 418.286 66.392 419.86 74.258" stroke="black" stroke-width="1.59282" stroke-linecap="round" stroke-linejoin="round"/>
<path d="M394.852 46.4609C392.554 51.1925 388.282 62.2777 389.58 68.7666" stroke="black" stroke-width="1.59282" stroke-linecap="round" stroke-linejoin="round"/>
<path d="M490.828 40.0211C494.072 44.162 500.584 54.0981 500.682 60.7148" stroke="black" stroke-width="1.59282" stroke-linecap="round" stroke-linejoin="round"/>
</svg>
