<svg width="145" height="137" viewBox="0 0 145 137" fill="none" xmlns="http://www.w3.org/2000/svg">
<path d="M-108.801 1.08542C-107.889 1.18301 -107.2 1.97588 -107.243 2.90438C-107.287 3.86887 -108.105 4.61476 -109.07 4.57028C-112.75 4.40061 -116.351 4.46942 -119.773 4.77453C-120.732 4.86125 -121.584 4.15037 -121.67 3.18864C-121.755 2.22656 -121.045 1.37739 -120.083 1.29169C-116.506 0.972334 -112.746 0.900371 -108.909 1.07743C-108.873 1.07884 -108.837 1.08163 -108.801 1.08542ZM-95.7568 2.56051C-95.718 2.56466 -95.6793 2.57019 -95.6401 2.57682C-92.1702 3.18322 -88.5256 3.97818 -84.8078 4.93975C-83.8731 5.18148 -83.3113 6.13508 -83.553 7.07011C-83.7945 8.00518 -84.7454 8.56836 -85.6834 8.32489C-89.311 7.38687 -92.8635 6.61183 -96.242 6.02146C-97.1932 5.85544 -97.8296 4.94978 -97.6632 3.99835C-97.5041 3.08608 -96.6642 2.46343 -95.7568 2.56051ZM-72.4749 8.65789C-72.3496 8.6713 -72.2243 8.6986 -72.0999 8.7404C-68.3571 10.0044 -64.9664 11.2822 -61.7346 12.6469C-60.8452 13.0227 -60.4286 14.048 -60.8041 14.9378C-61.1797 15.8276 -62.2066 16.2437 -63.095 15.8683C-66.2467 14.5372 -69.5579 13.2895 -73.2186 12.0533C-74.1336 11.7446 -74.6246 10.7527 -74.3155 9.83772C-74.0489 9.04708 -73.2714 8.57268 -72.4749 8.65789ZM-132.635 3.71327C-131.958 3.78569 -131.357 4.25264 -131.147 4.94557C-130.867 5.8697 -131.389 6.84594 -132.314 7.12573C-135.699 8.15072 -138.99 9.51513 -142.095 11.1808C-142.945 11.637 -144.005 11.3179 -144.462 10.4669C-144.918 9.61597 -144.599 8.55623 -143.748 8.09974C-140.439 6.32453 -136.933 4.87089 -133.327 3.77889C-133.096 3.70879 -132.861 3.68909 -132.635 3.71327ZM-50.4566 18.3376C-50.22 18.3629 -49.9847 18.4374 -49.7656 18.5644C-46.4255 20.5041 -43.306 22.6095 -40.4943 24.8224C-39.7356 25.4198 -39.6048 26.519 -40.2019 27.2778C-40.7989 28.0362 -41.8985 28.1669 -42.6573 27.5702C-45.3401 25.4584 -48.3226 23.4457 -51.5217 21.5885C-52.3567 21.1035 -52.6404 20.0337 -52.1558 19.1987C-51.798 18.5825 -51.1219 18.2664 -50.4566 18.3376ZM-153.414 15.4976C-153.011 15.5407 -152.621 15.7235 -152.323 16.0431C-151.664 16.7489 -151.702 17.8555 -152.408 18.5144C-155.059 20.9891 -157.312 23.6954 -159.103 26.5584C-159.615 27.3767 -160.693 27.626 -161.513 27.1132C-162.331 26.6011 -162.579 25.5223 -162.067 24.7037C-160.115 21.5831 -157.668 18.6406 -154.794 15.9579C-154.408 15.5973 -153.901 15.4455 -153.414 15.4976ZM-31.9961 33.6077C-31.5551 33.6549 -31.1319 33.8686 -30.829 34.239C-28.3822 37.2289 -26.288 40.4006 -24.6051 43.6659C-24.1626 44.524 -24.4998 45.5784 -25.3583 46.0209C-26.2162 46.4637 -27.2709 46.1258 -27.7133 45.2676C-29.2844 42.22 -31.2429 39.2542 -33.5352 36.4535C-34.1466 35.7065 -34.0368 34.6049 -33.2894 33.9932C-32.9125 33.6847 -32.445 33.5597 -31.9961 33.6077ZM119.475 64.1246C120.394 64.2229 121.085 65.0256 121.033 65.9591C120.98 66.9234 120.156 67.662 119.191 67.6088C115.636 67.413 112.007 67.378 108.404 67.5054C107.441 67.5368 106.63 66.7846 106.595 65.8197C106.561 64.8545 107.316 64.0449 108.281 64.0106C111.988 63.8798 115.724 63.9157 119.384 64.1172C119.414 64.1191 119.445 64.1214 119.475 64.1246ZM132.523 65.5851C132.559 65.589 132.596 65.5943 132.633 65.6003C136.316 66.2296 139.969 67.0445 143.489 68.0227C144.419 68.281 144.964 69.2449 144.705 70.1754C144.446 71.1055 143.483 71.6507 142.553 71.3917C139.147 70.4454 135.611 69.6565 132.044 69.0474C131.092 68.8848 130.452 67.9812 130.615 67.0294C130.771 66.1144 131.612 65.4877 132.523 65.5851ZM-397.671 9.33264C-397.663 9.33348 -397.655 9.33467 -397.648 9.33551C-394.707 9.69001 -391.836 10.1024 -389.115 10.5614C-388.328 10.6935 -387.539 10.8231 -386.748 10.9507C-385.795 11.1044 -385.147 12.0016 -385.301 12.9551C-385.454 13.9082 -386.353 14.5625 -387.305 14.4026C-388.103 14.2742 -388.9 14.1431 -389.695 14.0094C-392.364 13.5599 -395.18 13.1551 -398.066 12.8071C-399.025 12.6917 -399.708 11.8206 -399.593 10.862C-399.478 9.91125 -398.621 9.23107 -397.671 9.33264ZM-410.758 8.14932C-409.833 8.2483 -409.142 9.05979 -409.201 9.99771C-409.262 10.9615 -410.092 11.6935 -411.056 11.6328C-414.563 11.4118 -418.222 11.2545 -421.931 11.1645C-422.897 11.1432 -423.66 10.34 -423.637 9.37431C-423.613 8.40931 -422.812 7.64563 -421.847 7.669C-418.093 7.75965 -414.388 7.91905 -410.836 8.14277C-410.81 8.1445 -410.784 8.14656 -410.758 8.14932ZM-373.852 12.9258C-373.825 12.9287 -373.797 12.9323 -373.77 12.9367C-370.79 13.3962 -366.863 14.0213 -362.911 14.7821C-361.963 14.9644 -361.342 15.8812 -361.525 16.8296C-361.707 17.7779 -362.624 18.3996 -363.572 18.2159C-367.467 17.466 -371.353 16.8474 -374.303 16.3925C-375.257 16.2453 -375.912 15.3523 -375.764 14.3981C-375.622 13.4712 -374.775 12.8271 -373.852 12.9258ZM-165.152 36.05C-165.112 36.0543 -165.071 36.06 -165.031 36.0675C-164.08 36.2359 -163.446 37.1434 -163.615 38.0943C-163.643 38.2565 -163.671 38.4193 -163.697 38.5822C-163.785 39.1338 -163.86 39.6942 -163.919 40.2489C-164.198 42.8589 -164.17 45.6317 -163.834 48.4906C-163.721 49.4496 -164.407 50.3184 -165.366 50.4312C-166.322 50.5426 -167.194 49.8577 -167.307 48.8986C-167.673 45.7812 -167.703 42.7459 -167.396 39.8769C-167.33 39.2625 -167.248 38.6414 -167.15 38.0314C-167.121 37.8494 -167.09 37.6661 -167.058 37.4834C-166.896 36.5732 -166.058 35.9531 -165.152 36.05ZM-434.845 7.6281C-433.979 7.72072 -433.298 8.44662 -433.284 9.33917C-433.27 10.3048 -434.04 11.0995 -435.005 11.1147C-438.57 11.17 -442.236 11.2823 -445.902 11.4484C-446.87 11.4941 -447.684 10.7457 -447.728 9.78115C-447.771 8.81627 -447.025 7.9988 -446.06 7.95539C-442.36 7.78774 -438.659 7.6744 -435.06 7.61825C-434.987 7.61704 -434.915 7.62056 -434.845 7.6281ZM95.4465 65.1787C96.2236 65.2618 96.8752 65.8624 96.9901 66.6716C97.126 67.6276 96.461 68.5128 95.5049 68.6485C91.9514 69.1531 88.3813 69.8211 84.8938 70.6333C83.9548 70.8538 83.0135 70.2681 82.7944 69.3272C82.5752 68.387 83.16 67.447 84.1004 67.2276C87.6872 66.3923 91.3588 65.7054 95.0134 65.1866C95.1601 65.1658 95.3054 65.1636 95.4465 65.1787ZM-350.284 17.8118C-350.18 17.823 -350.074 17.8437 -349.97 17.875C-346.164 19.0075 -342.734 20.2638 -339.483 21.7163C-338.601 22.1101 -338.206 23.1442 -338.599 24.0258C-338.993 24.9078 -340.028 25.3025 -340.909 24.9092C-344.02 23.5196 -347.31 22.3148 -350.967 21.2263C-351.892 20.9508 -352.419 19.9776 -352.144 19.0521C-351.9 18.2313 -351.106 17.7239 -350.284 17.8118ZM-21.7647 55.118C-21.0046 55.1993 -20.3604 55.7765 -20.2276 56.5674C-19.8066 59.0752 -19.6349 61.6 -19.7173 64.0719C-19.7485 65.0167 -19.8176 65.9969 -19.9232 66.9844C-19.9591 67.3192 -19.999 67.6537 -20.0424 67.9874C-20.166 68.9448 -21.0388 69.6345 -22.0008 69.4961C-22.9585 69.3721 -23.6342 68.4949 -23.5099 67.5376C-23.47 67.2295 -23.4335 66.9211 -23.4005 66.6124C-23.3039 65.7097 -23.2406 64.8161 -23.2121 63.9558C-23.1372 61.7159 -23.2933 59.4251 -23.6759 57.1462C-23.836 56.1939 -23.1934 55.2924 -22.2411 55.1327C-22.0798 55.1055 -21.9199 55.1014 -21.7647 55.118ZM-458.905 8.77746C-458.085 8.8652 -457.417 9.52687 -457.35 10.3792C-457.274 11.3417 -457.994 12.1836 -458.956 12.2591C-462.56 12.5424 -466.214 12.8792 -469.818 13.2597C-470.779 13.3605 -471.638 12.6648 -471.74 11.7044C-471.841 10.7442 -471.145 9.88345 -470.185 9.78192C-466.551 9.39848 -462.865 9.05908 -459.23 8.77326C-459.12 8.76453 -459.011 8.76611 -458.905 8.77746ZM-482.87 11.3704C-482.09 11.4538 -481.437 12.0584 -481.325 12.8704C-481.193 13.827 -481.862 14.7094 -482.818 14.8412C-486.427 15.339 -490.054 15.8903 -493.6 16.4791C-494.553 16.6374 -495.453 15.9932 -495.612 15.0407C-495.77 14.0879 -495.126 13.1876 -494.173 13.0293C-490.596 12.4351 -486.936 11.8797 -483.296 11.3773C-483.152 11.3573 -483.009 11.3556 -482.87 11.3704ZM72.0679 70.8546C72.7182 70.9242 73.3026 71.3574 73.5332 72.0157C73.8524 72.927 73.3724 73.9245 72.461 74.2439C69.0484 75.4393 65.6835 76.7979 62.4602 78.2817C61.5832 78.6847 60.5449 78.3012 60.141 77.4246C59.7372 76.5473 60.121 75.509 60.9981 75.105C64.321 73.5756 67.7887 72.1755 71.305 70.9436C71.558 70.855 71.8178 70.8279 72.0679 70.8546ZM-328.616 28.0776C-328.327 28.1086 -328.041 28.2121 -327.787 28.3939C-324.713 30.5914 -321.837 33.0477 -319.239 35.6942C-318.562 36.3832 -318.572 37.4903 -319.261 38.1666C-319.951 38.8433 -321.057 38.8326 -321.734 38.1439C-324.19 35.6418 -326.911 33.3182 -329.821 31.2383C-330.606 30.6769 -330.788 29.5851 -330.226 28.7992C-329.846 28.2677 -329.223 28.0127 -328.616 28.0776ZM-506.627 15.3936C-505.889 15.4725 -505.256 16.0194 -505.1 16.7853C-504.909 17.7316 -505.52 18.6545 -506.467 18.8462C-510.077 19.5772 -513.657 20.3624 -517.11 21.1801C-518.049 21.403 -518.992 20.8214 -519.214 19.8819C-519.437 18.942 -518.856 18.0002 -517.916 17.7777C-514.426 16.951 -510.808 16.1577 -507.161 15.4188C-506.981 15.3825 -506.801 15.375 -506.627 15.3936ZM-282.111 44.5096C-281.797 44.5432 -281.483 44.5778 -281.169 44.6142C-280.209 44.7241 -279.521 45.5912 -279.631 46.5504C-279.741 47.5051 -280.6 48.1917 -281.554 48.0897C-281.559 48.0891 -281.563 48.0883 -281.568 48.0879C-285.079 47.6838 -288.697 47.4235 -292.344 47.3029C-293.317 47.2652 -294.066 46.4625 -294.034 45.4977C-294.002 44.5326 -293.194 43.7762 -292.229 43.8079C-288.813 43.9208 -285.409 44.1568 -282.111 44.5096ZM-268.234 46.7939C-268.167 46.801 -268.1 46.812 -268.033 46.8272C-264.391 47.6496 -260.799 48.6485 -257.355 49.7961L-257.305 49.8133C-256.392 50.1274 -255.906 51.1222 -256.22 52.0352C-256.534 52.9483 -257.528 53.4349 -258.442 53.1197L-257.873 51.4665L-258.451 53.1167C-261.795 52.0023 -265.274 51.035 -268.803 50.2382C-269.745 50.0256 -270.336 49.0897 -270.123 48.1477C-269.926 47.2729 -269.104 46.7007 -268.234 46.7939ZM50.3339 81.1504C50.8529 81.2059 51.3416 81.4923 51.6369 81.971C52.1441 82.7927 51.889 83.8698 51.0672 84.377C47.9837 86.2798 45.0122 88.3447 42.2352 90.5141C41.4741 91.1077 40.3755 90.9731 39.7812 90.2127C39.1867 89.4515 39.3216 88.3529 40.0826 87.7586C42.9604 85.5103 46.0384 83.3714 49.231 81.4013C49.5739 81.1896 49.9618 81.1106 50.3339 81.1504ZM-305.233 43.9637C-304.395 44.0533 -303.721 44.7396 -303.675 45.6085C-303.623 46.5725 -304.363 47.3963 -305.327 47.448C-306.906 47.5327 -308.505 47.6424 -310.113 47.7764C-308.491 50.6905 -307.201 53.6855 -306.272 56.6999C-305.987 57.6225 -306.505 58.6013 -307.428 58.8857C-308.349 59.1697 -309.328 58.6532 -309.613 57.7299C-310.611 54.4938 -312.063 51.2737 -313.93 48.159C-313.934 48.1527 -313.938 48.146 -313.942 48.1393C-314.668 48.2167 -315.395 48.2984 -316.121 48.385C-317.08 48.4992 -317.95 47.8145 -318.064 46.8556C-318.178 45.8967 -317.493 45.0268 -316.534 44.9126C-312.833 44.4718 -309.125 44.15 -305.514 43.9561C-305.419 43.9511 -305.325 43.9538 -305.233 43.9637ZM-162.297 59.7008C-161.645 59.7705 -161.06 60.2059 -160.83 60.8662C-159.812 63.8002 -158.531 66.9849 -156.799 70.8884C-156.407 71.771 -156.806 72.8039 -157.688 73.1955C-158.572 73.587 -159.604 73.1889 -159.995 72.3063C-161.767 68.3117 -163.082 65.0413 -164.134 62.0135C-164.451 61.1014 -163.968 60.105 -163.056 59.7881C-162.804 59.7008 -162.546 59.6742 -162.297 59.7008ZM-530.048 21.0497C-529.36 21.1233 -528.753 21.6034 -528.552 22.3089C-528.287 23.2374 -528.825 24.205 -529.753 24.4701C-533.345 25.4949 -536.838 26.5771 -540.138 27.6863C-541.054 27.9944 -542.045 27.5014 -542.353 26.5861C-542.66 25.6708 -542.168 24.6796 -541.252 24.3717C-537.902 23.2454 -534.356 22.1473 -530.713 21.1075C-530.49 21.0438 -530.265 21.0265 -530.048 21.0497ZM-245.538 54.7066C-245.339 54.7278 -245.142 54.7833 -244.953 54.8761C-241.593 56.5261 -238.328 58.3713 -235.247 60.3604C-234.436 60.8842 -234.203 61.9663 -234.727 62.7777C-235.251 63.5887 -236.333 63.8218 -237.144 63.2979C-240.111 61.3826 -243.257 59.605 -246.495 58.015C-247.361 57.5891 -247.719 56.5417 -247.293 55.6749C-246.96 54.997 -246.247 54.6307 -245.538 54.7066ZM-24.6658 78.7811C-24.5549 78.7929 -24.4437 78.8156 -24.3334 78.85C-23.411 79.1349 -22.8943 80.1139 -23.1795 81.0366C-23.3943 81.7324 -23.6122 82.4278 -23.8297 83.1233C-24.6824 85.8491 -25.5637 88.6678 -26.2667 91.4461C-26.5033 92.382 -27.4558 92.9523 -28.3903 92.7123C-29.3266 92.4756 -29.8936 91.5246 -29.6566 90.5887C-28.93 87.7164 -28.0339 84.8507 -27.167 82.0795C-26.9505 81.3877 -26.7341 80.6959 -26.5201 80.0039C-26.2692 79.1918 -25.4802 78.6939 -24.6658 78.7811ZM-329.108 47.0137C-328.381 47.0915 -327.752 47.6239 -327.587 48.3777C-327.379 49.3212 -327.976 50.2533 -328.919 50.4602C-332.747 51.3003 -336.091 52.2922 -339.141 53.492C-340.039 53.8455 -341.054 53.404 -341.408 52.5054C-341.761 51.6067 -341.32 50.5916 -340.421 50.2382C-337.197 48.9695 -333.68 47.9249 -329.669 47.0447C-329.479 47.0034 -329.291 46.9941 -329.108 47.0137ZM-225.544 68.0154C-225.195 68.0527 -224.854 68.1952 -224.571 68.446C-221.741 70.9568 -219.106 73.6437 -216.739 76.4319C-216.114 77.1682 -216.204 78.2716 -216.94 78.8963C-217.677 79.521 -218.78 79.4308 -219.405 78.6949C-221.665 76.032 -224.184 73.4635 -226.892 71.0617C-227.614 70.4209 -227.68 69.3157 -227.039 68.5936C-226.649 68.1538 -226.087 67.9573 -225.544 68.0154ZM31.6045 96.1955C31.9755 96.2352 32.3367 96.3933 32.6269 96.6714C33.3242 97.3397 33.3477 98.4462 32.6798 99.1435C30.7426 101.166 28.8349 103.312 26.9901 105.388C26.4493 105.996 25.9086 106.605 25.3664 107.211C24.7225 107.931 23.6174 107.993 22.8976 107.35C22.1775 106.706 22.1158 105.601 22.7594 104.881C23.2996 104.277 23.8379 103.671 24.3762 103.065C26.2425 100.965 28.1724 98.7937 30.1549 96.7244C30.5448 96.3173 31.0843 96.1399 31.6045 96.1955ZM-350.956 56.6191C-350.518 56.6659 -350.098 56.8769 -349.795 57.2421C-349.18 57.9858 -349.283 59.0881 -350.026 59.7041C-352.736 61.9494 -355.05 64.6503 -356.715 67.5139C-357.201 68.3482 -358.271 68.6315 -359.106 68.1461C-359.94 67.6608 -360.224 66.5904 -359.738 65.7558C-357.868 62.5403 -355.281 59.5164 -352.257 57.0114C-351.879 56.6982 -351.408 56.5707 -350.956 56.6191ZM-152.854 81.857C-152.243 81.9224 -151.685 82.3079 -151.428 82.9138C-149.744 86.8907 -148.519 90.2112 -147.574 93.3631C-147.297 94.288 -147.822 95.2625 -148.747 95.5398C-149.671 95.8172 -150.646 95.2925 -150.924 94.3672C-151.831 91.3406 -153.014 88.1343 -154.648 84.2778C-155.025 83.3885 -154.609 82.3626 -153.72 81.986C-153.437 81.8659 -153.139 81.8265 -152.854 81.857ZM-306.081 68.4355C-305.163 68.5337 -304.473 69.3347 -304.523 70.267C-304.532 70.4425 -304.542 70.6182 -304.554 70.7941C-304.583 71.2381 -304.621 71.6873 -304.669 72.1297C-305.007 75.2947 -305.804 78.4361 -307.036 81.466C-307.4 82.3608 -308.42 82.7908 -309.314 82.427C-310.209 82.0635 -310.639 81.0434 -310.275 80.1488C-309.166 77.4213 -308.449 74.5982 -308.146 71.7578C-308.103 71.3628 -308.069 70.9611 -308.043 70.5647C-308.032 70.4032 -308.023 70.242 -308.014 70.081C-307.963 69.1166 -307.139 68.3768 -306.175 68.4282C-306.144 68.4299 -306.112 68.4322 -306.081 68.4355ZM-29.2151 102.286C-28.3791 102.375 -27.7066 103.058 -27.6576 103.925C-27.4455 107.661 -26.6176 110.976 -25.1968 113.779C-24.7602 114.64 -25.1045 115.692 -25.9658 116.128C-26.8273 116.566 -27.8794 116.221 -28.3157 115.36C-29.956 112.124 -30.9092 108.344 -31.1486 104.123C-31.2036 103.159 -30.4663 102.333 -29.5023 102.279C-29.4048 102.273 -29.3088 102.276 -29.2151 102.286ZM-210.363 86.5694C-209.822 86.6273 -209.314 86.9369 -209.026 87.4476C-208.858 87.7445 -208.693 88.0425 -208.53 88.3417C-207.129 90.9118 -205.796 93.7357 -204.208 97.4966C-203.832 98.3861 -204.249 99.4119 -205.139 99.7874C-206.029 100.164 -207.054 99.7458 -207.429 98.8569C-208.97 95.2067 -210.257 92.4796 -211.6 90.0145C-211.755 89.7312 -211.911 89.4495 -212.07 89.1688C-212.545 88.3283 -212.249 87.2615 -211.408 86.7862C-211.079 86.5995 -210.714 86.5319 -210.363 86.5694ZM15.0501 113.677C15.4726 113.722 15.8797 113.921 16.1811 114.266C16.8161 114.993 16.7411 116.098 16.0134 116.733C14.0412 118.454 12.123 119.914 10.1498 121.197C9.04282 121.916 7.86918 122.587 6.66217 123.189C5.79766 123.619 4.74821 123.268 4.3171 122.404C3.88637 121.54 4.23735 120.49 5.10157 120.059C6.19039 119.516 7.24782 118.913 8.244 118.265C10.0779 117.073 11.8672 115.71 13.7141 114.098C14.0962 113.764 14.5827 113.627 15.0501 113.677ZM-361.347 77.4261C-360.503 77.5163 -359.828 78.2111 -359.789 79.0848C-359.762 79.6594 -359.708 80.2367 -359.628 80.8008C-359.248 83.4601 -358.218 86.0035 -356.566 88.3597C-356.013 89.1502 -356.204 90.2407 -356.995 90.7949C-357.786 91.3485 -358.876 91.1568 -359.43 90.3663C-361.4 87.556 -362.631 84.5041 -363.089 81.2951C-363.186 80.6203 -363.25 79.93 -363.282 79.2437C-363.325 78.2792 -362.579 77.4617 -361.614 77.4179C-361.524 77.4137 -361.434 77.4167 -361.347 77.4261ZM-146.803 105.03C-145.95 105.122 -145.272 105.831 -145.244 106.713C-145.221 107.431 -145.217 108.155 -145.232 108.864C-145.25 109.729 -145.307 110.61 -145.4 111.483C-145.638 113.707 -146.117 115.934 -146.822 118.1C-147.121 119.018 -148.112 119.52 -149.026 119.221C-149.945 118.922 -150.446 117.935 -150.147 117.017C-149.517 115.081 -149.09 113.094 -148.877 111.111C-148.795 110.337 -148.744 109.556 -148.728 108.79C-148.714 108.142 -148.718 107.481 -148.739 106.824C-148.77 105.859 -148.012 105.052 -147.047 105.021C-146.964 105.019 -146.883 105.022 -146.803 105.03ZM-17.2334 121.682C-17.0631 121.7 -16.8926 121.744 -16.7269 121.815C-13.8348 123.062 -10.431 123.591 -6.81357 123.36C-5.85148 123.297 -5.019 124.03 -4.95743 124.993C-4.89585 125.957 -5.62709 126.788 -6.59075 126.85C-10.7592 127.116 -14.7127 126.491 -18.1113 125.027C-18.998 124.644 -19.4069 123.616 -19.0247 122.729C-18.7138 122.008 -17.9753 121.603 -17.2334 121.682ZM-315.619 89.9948C-315.241 90.0352 -314.874 90.1989 -314.581 90.4859C-313.892 91.1627 -313.882 92.2695 -314.559 92.9583C-317.337 95.7866 -320.498 98.0289 -323.953 99.6227C-324.832 100.027 -325.869 99.6439 -326.274 98.7672C-326.678 97.8902 -326.295 96.8515 -325.418 96.4471C-322.348 95.0313 -319.534 93.0333 -317.054 90.5083C-316.664 90.1116 -316.132 89.9399 -315.619 89.9948ZM-200.561 108.558C-199.963 108.622 -199.415 108.993 -199.151 109.58C-197.591 113.047 -196.134 115.827 -194.564 118.328C-194.425 118.551 -194.283 118.771 -194.139 118.99C-193.609 119.797 -193.834 120.881 -194.641 121.411C-195.448 121.941 -196.532 121.717 -197.062 120.909C-197.22 120.669 -197.375 120.428 -197.526 120.186C-199.183 117.546 -200.713 114.631 -202.34 111.014C-202.736 110.134 -202.343 109.099 -201.463 108.703C-201.169 108.571 -200.859 108.526 -200.561 108.558ZM-347.793 95.9034C-347.599 95.924 -347.407 95.9777 -347.221 96.0666C-344.431 97.4077 -341.358 98.2874 -338.334 98.6112C-338.003 98.6466 -337.672 98.6759 -337.339 98.6985C-336.381 98.7746 -335.649 99.5992 -335.715 100.563C-335.781 101.526 -336.616 102.253 -337.579 102.187C-337.956 102.161 -338.331 102.128 -338.706 102.088C-342.122 101.722 -345.59 100.73 -348.736 99.218C-349.606 98.8001 -349.973 97.7552 -349.554 96.8849C-349.225 96.2 -348.508 95.8269 -347.793 95.9034ZM-154.906 127.052C-154.535 127.092 -154.174 127.25 -153.883 127.529C-153.186 128.197 -153.163 129.304 -153.832 130.001C-156.699 132.989 -160.007 135.112 -163.664 136.312C-164.582 136.614 -165.57 136.113 -165.87 135.196C-166.171 134.278 -165.672 133.29 -164.754 132.99C-161.647 131.97 -158.821 130.15 -156.355 127.58C-155.965 127.173 -155.426 126.996 -154.906 127.052ZM-186.575 127.858C-186.263 127.892 -185.956 128.009 -185.69 128.216C-182.781 130.474 -179.735 132.09 -176.639 133.017C-175.714 133.294 -175.188 134.269 -175.465 135.194C-175.742 136.118 -176.716 136.644 -177.642 136.367C-181.154 135.315 -184.583 133.502 -187.834 130.978C-188.597 130.386 -188.735 129.287 -188.143 128.525C-187.758 128.028 -187.157 127.796 -186.575 127.858Z" fill="#04D1D2"/>
</svg>
