<svg width="390" height="150" viewBox="0 0 390 150" fill="none" xmlns="http://www.w3.org/2000/svg">
<path d="M352.613 0.641911C353.57 0.629247 354.382 1.36411 354.453 2.33069C354.528 3.33468 353.774 4.2088 352.77 4.28296C348.938 4.56603 345.219 5.08606 341.715 5.82837C340.733 6.0377 339.763 5.40793 339.554 4.42301C339.345 3.43772 339.974 2.47016 340.96 2.26152C344.623 1.48503 348.507 0.941935 352.501 0.646995C352.539 0.643981 352.576 0.642402 352.613 0.641911ZM366.301 0.543183C366.342 0.542644 366.383 0.543554 366.424 0.545524C370.092 0.740821 373.964 1.10955 377.932 1.64163C378.93 1.77538 379.631 2.69256 379.497 3.69067C379.364 4.68877 378.449 5.39031 377.448 5.25516C373.576 4.73622 369.801 4.37664 366.23 4.18653C365.225 4.13322 364.453 3.27496 364.507 2.26928C364.558 1.30505 365.35 0.55578 366.301 0.543183ZM391.163 3.9537C391.295 3.95196 391.428 3.9646 391.562 3.99235C395.594 4.83445 399.263 5.73465 402.779 6.74459C403.747 7.02282 404.306 8.03229 404.028 9.00025C403.75 9.9682 402.739 10.5269 401.772 10.249C398.344 9.26389 394.76 8.38489 390.816 7.56143C389.831 7.35583 389.199 6.39021 389.405 5.40447C389.582 4.55276 390.328 3.96475 391.163 3.9537ZM328.268 6.33277C328.977 6.32337 329.658 6.73183 329.962 7.42301C330.366 8.34483 329.947 9.42056 329.026 9.82539C325.649 11.3084 322.412 13.131 319.405 15.2424C318.582 15.8206 317.444 15.6224 316.866 14.7984C316.287 13.9743 316.486 12.8374 317.31 12.2588C320.514 10.0087 323.962 8.06689 327.559 6.48695C327.79 6.38556 328.031 6.3359 328.268 6.33277ZM415.164 11.2302C415.412 11.2269 415.664 11.2747 415.907 11.3788C419.607 12.9706 423.098 14.7614 426.285 16.7018C427.145 17.2257 427.417 18.3474 426.894 19.2073C426.37 20.0668 425.248 20.3392 424.388 19.816C421.348 17.9641 418.009 16.2523 414.466 14.7284C413.541 14.3303 413.114 13.2583 413.512 12.3334C413.805 11.6509 414.466 11.2394 415.164 11.2302ZM308.225 21.122C308.648 21.1164 309.074 21.257 309.423 21.5507C310.193 22.1993 310.291 23.3496 309.643 24.1196C307.206 27.012 305.212 30.0944 303.714 33.2815C303.287 34.1923 302.201 34.5849 301.289 34.1561C300.378 33.728 299.986 32.6421 300.414 31.7309C302.047 28.2571 304.213 24.9058 306.854 21.7706C307.209 21.3491 307.714 21.1288 308.225 21.122ZM436.177 24.7374C436.64 24.7313 437.105 24.8999 437.464 25.2456C440.37 28.0358 442.933 31.0582 445.082 34.2288C445.648 35.062 445.43 36.1956 444.596 36.7606C443.763 37.326 442.629 37.1076 442.064 36.2744C440.058 33.3152 437.661 30.489 434.939 27.8754C434.213 27.1783 434.189 26.0241 434.887 25.2977C435.238 24.9314 435.707 24.7437 436.177 24.7374ZM596.788 37.4512C597.752 37.4384 598.567 38.1833 598.63 39.1562C598.695 40.161 597.934 41.0284 596.929 41.0935C593.224 41.3339 589.462 41.75 585.749 42.3308C584.756 42.4834 583.822 41.8059 583.666 40.8113C583.511 39.8163 584.191 38.8841 585.186 38.7283C589.007 38.1309 592.879 37.7025 596.693 37.455C596.725 37.4531 596.757 37.4516 596.788 37.4512ZM610.478 37.3369C610.516 37.3364 610.554 37.3374 610.593 37.339C614.485 37.5313 618.368 37.9198 622.133 38.4938C623.129 38.6452 623.813 39.5752 623.661 40.5707C623.509 41.5658 622.58 42.2502 621.584 42.0981C617.94 41.543 614.182 41.167 610.413 40.9809C609.408 40.9312 608.633 40.0755 608.683 39.0699C608.73 38.1032 609.523 37.3496 610.478 37.3369ZM54.595 45.1822C54.6032 45.1821 54.6115 45.1823 54.6198 45.1822C57.7078 45.1828 60.7312 45.2519 63.6061 45.3878C64.4372 45.4265 65.2701 45.4623 66.1041 45.4959C67.11 45.5363 67.8927 46.3843 67.8528 47.3905C67.8124 48.3964 66.9634 49.1857 65.9578 49.1388C65.116 49.1053 64.2751 49.0689 63.4353 49.0296C60.616 48.8969 57.6502 48.8288 54.6191 48.8283C53.6123 48.8283 52.7961 48.0117 52.7964 47.0049C52.7965 46.0064 53.5995 45.1954 54.595 45.1822ZM40.8991 45.5883C41.8694 45.5754 42.6862 46.3294 42.742 47.3077C42.7992 48.313 42.0308 49.1743 41.0255 49.2316C37.3668 49.4399 33.5593 49.7331 29.7089 50.1022C28.7063 50.2004 27.8159 49.4641 27.7201 48.4615C27.624 47.4596 28.3581 46.5691 29.3604 46.473C33.2576 46.099 37.1126 45.8023 40.8181 45.5912C40.8451 45.5897 40.8721 45.5886 40.8991 45.5883ZM79.7012 45.9333C79.7297 45.9329 79.7585 45.9333 79.7873 45.9343C82.9297 46.0386 87.0731 46.1963 91.259 46.4913C92.2631 46.562 93.0199 47.4337 92.9493 48.4382C92.8783 49.4427 92.0065 50.2006 91.0024 50.1285C86.8767 49.8377 82.7769 49.6816 79.6663 49.5783C78.6601 49.5448 77.8713 48.702 77.9048 47.6958C77.9372 46.7185 78.7335 45.9461 79.7012 45.9333ZM298.635 43.8614C298.677 43.8608 298.72 43.8617 298.763 43.8644C299.768 43.9202 300.537 44.7806 300.482 45.786C300.472 45.9576 300.463 46.1295 300.457 46.3014C300.435 46.8834 300.427 47.4728 300.435 48.0545C300.471 50.7912 300.846 53.6582 301.551 56.5759C301.786 57.5547 301.185 58.5395 300.206 58.7758C299.23 59.0103 298.242 58.4099 298.006 57.4311C297.238 54.2495 296.829 51.111 296.789 48.1027C296.781 47.4584 296.789 46.8053 296.814 46.1616C296.821 45.9695 296.83 45.776 296.841 45.5828C296.895 44.6203 297.686 43.8739 298.635 43.8614ZM15.8995 48.0506C16.8074 48.0386 17.6022 48.7053 17.7279 49.6275C17.8636 50.6253 17.165 51.5441 16.1677 51.6801C12.484 52.1817 8.7029 52.7548 4.92903 53.3836C3.93202 53.5517 2.99669 52.8782 2.83113 51.8851C2.66562 50.8917 3.33653 49.9524 4.32961 49.7873C8.13898 49.1526 11.9564 48.574 15.6753 48.0673C15.7508 48.0569 15.8256 48.0516 15.8995 48.0506ZM572.044 41.5372C572.859 41.5264 573.609 42.0669 573.829 42.8903C574.088 43.863 573.51 44.8623 572.537 45.1219C568.922 46.0872 565.309 47.2236 561.8 48.4991C560.855 48.8444 559.808 48.3555 559.464 47.4087C559.12 46.4627 559.608 45.4167 560.554 45.0724C564.163 43.7606 567.878 42.5919 571.597 41.5993C571.746 41.5595 571.896 41.5391 572.044 41.5372ZM104.708 48.0541C104.818 48.0527 104.929 48.0609 105.041 48.0803C109.122 48.7784 112.83 49.6515 116.377 50.75C117.339 51.0477 117.877 52.069 117.579 53.0307C117.281 53.9928 116.259 54.5305 115.298 54.233C111.905 53.1822 108.349 52.345 104.427 51.674C103.434 51.5041 102.767 50.5624 102.937 49.5699C103.088 48.6898 103.846 48.0656 104.708 48.0541ZM449.45 45.7304C450.247 45.7198 450.986 46.237 451.222 47.0393C451.97 49.5829 452.463 52.1753 452.686 54.7446C452.771 55.7264 452.822 56.7498 452.836 57.7853C452.84 58.1364 452.84 58.4876 452.837 58.8385C452.829 59.845 452.011 60.6677 450.998 60.6444C449.991 60.6354 449.182 59.8115 449.191 58.805C449.194 58.4811 449.194 58.1573 449.189 57.8335C449.177 56.8871 449.131 55.954 449.053 55.0599C448.852 52.7317 448.405 50.3797 447.724 48.0683C447.44 47.1023 447.993 46.089 448.959 45.8049C449.122 45.7567 449.287 45.7325 449.45 45.7304ZM-8.86547 52.2392C-8.00544 52.2278 -7.23172 52.8296 -7.05625 53.7036C-6.85762 54.6905 -7.49723 55.6517 -8.4845 55.8499C-12.1794 56.5922 -15.9207 57.3964 -19.6037 58.2394C-20.5863 58.4635 -21.5627 57.8504 -21.7879 56.8689C-22.0123 55.8875 -21.3988 54.9097 -20.4174 54.6849C-16.7026 53.8349 -12.9294 53.0242 -9.20254 52.2754C-9.08974 52.2526 -8.97679 52.2407 -8.86547 52.2392ZM-33.3511 57.9103C-32.5336 57.8995 -31.7822 58.4439 -31.5652 59.2706C-31.3092 60.2444 -31.8914 61.2413 -32.8653 61.4969C-36.5388 62.4619 -40.2253 63.4848 -43.8229 64.5363C-44.7895 64.8189 -45.8018 64.2642 -46.0844 63.2979C-46.3666 62.3313 -45.8123 61.319 -44.8461 61.0364C-41.2166 59.9754 -37.4971 58.9442 -33.7915 57.9705C-33.6444 57.9318 -33.4966 57.9122 -33.3511 57.9103ZM548.55 50.3268C549.232 50.3178 549.891 50.6934 550.211 51.3461C550.655 52.2498 550.283 53.3422 549.379 53.7864C545.995 55.4493 542.681 57.2751 539.529 59.2129C538.672 59.7394 537.549 59.4719 537.021 58.6147C536.494 57.7568 536.762 56.6341 537.62 56.1066C540.869 54.1091 544.284 52.2275 547.771 50.514C548.022 50.3907 548.287 50.3303 548.55 50.3268ZM128.419 55.981C128.723 55.977 129.031 56.0486 129.317 56.2051C132.773 58.0969 136.057 60.2813 139.076 62.6972C139.862 63.3262 139.99 64.4735 139.361 65.2596C138.731 66.0459 137.585 66.1728 136.798 65.5442C133.944 63.2601 130.838 61.1936 127.566 59.4031C126.683 58.9199 126.359 57.8122 126.842 56.9287C127.169 56.3311 127.783 55.9895 128.419 55.981ZM-57.4443 65.0361C-56.6704 65.0259 -55.946 65.513 -55.6898 66.2866C-55.3734 67.2423 -55.8918 68.274 -56.8475 68.5903C-60.4935 69.797 -64.1026 71.0562 -67.5751 72.333C-68.5196 72.6808 -69.5681 72.1962 -69.9152 71.2513C-70.2627 70.306 -69.7784 69.2586 -68.8332 68.9111C-65.3238 67.6205 -61.6767 66.3482 -57.9934 65.1288C-57.8113 65.0687 -57.6262 65.0385 -57.4443 65.0361ZM178.61 67.1958C178.94 67.1914 179.269 67.1882 179.599 67.1867C180.606 67.1809 181.426 67.9928 181.432 68.9995C181.437 70.0015 180.633 70.8194 179.633 70.8326C179.628 70.8327 179.623 70.8324 179.619 70.8324C175.934 70.8517 172.155 71.0332 168.365 71.3629C167.353 71.4451 166.478 70.7074 166.391 69.7047C166.304 68.7016 167.046 67.8179 168.049 67.7304C171.599 67.4215 175.153 67.2416 178.61 67.1958ZM193.261 67.831C193.331 67.8301 193.402 67.8331 193.473 67.8405C197.345 68.238 201.189 68.8243 204.897 69.5832L204.952 69.5947C205.936 69.8061 206.563 70.7754 206.351 71.7597C206.14 72.7441 205.171 73.3718 204.186 73.1594L204.569 71.377L204.177 73.1573C200.576 72.4205 196.853 71.8527 193.101 71.4676C192.1 71.3649 191.371 70.4697 191.474 69.4681C191.569 68.5378 192.348 67.8431 193.261 67.831ZM527.333 63.694C527.877 63.6868 528.419 63.9224 528.784 64.3812C529.412 65.1686 529.282 66.3154 528.495 66.9428C525.54 69.297 522.721 71.805 520.116 74.3969C519.402 75.1063 518.248 75.1039 517.538 74.3907C516.828 73.6768 516.831 72.5227 517.544 71.8127C520.243 69.1265 523.163 66.5286 526.223 64.0913C526.551 63.8294 526.943 63.6992 527.333 63.694ZM154.606 69.5124C155.485 69.5008 156.267 70.1273 156.424 71.021C156.598 72.0125 155.934 72.9575 154.943 73.1313C153.319 73.4157 151.677 73.7285 150.029 74.0677C152.071 76.8823 153.78 79.822 155.118 82.8268C155.527 83.7464 155.114 84.8242 154.194 85.2337C153.275 85.6424 152.197 85.2299 151.787 84.3096C150.35 81.0838 148.446 77.9313 146.125 74.9395C146.12 74.9335 146.115 74.9271 146.11 74.9206C145.369 75.0911 144.626 75.2663 143.885 75.4465C142.907 75.6842 141.921 75.0838 141.683 74.1054C141.446 73.127 142.046 72.1411 143.024 71.9033C146.802 70.9856 150.6 70.1904 154.314 69.5397C154.412 69.5225 154.51 69.5137 154.606 69.5124ZM304.538 67.9895C305.222 67.9804 305.882 68.3582 306.202 69.0131C307.622 71.9235 309.345 75.0608 311.624 78.886C312.14 79.7508 311.856 80.8698 310.992 81.3852C310.126 81.9006 309.008 81.6171 308.492 80.7522C306.16 76.8378 304.391 73.6161 302.925 70.6126C302.483 69.7079 302.859 68.6162 303.764 68.1744C304.014 68.0526 304.278 67.9929 304.538 67.9895ZM-80.9847 73.8105C-80.2637 73.801 -79.5755 74.2223 -79.2791 74.9276C-78.889 75.8557 -79.3254 76.9245 -80.2536 77.3146C-83.8436 78.8232 -87.3256 80.3789 -90.6034 81.9384C-91.513 82.3715 -92.6002 81.9847 -93.0329 81.0755C-93.4653 80.1663 -93.0792 79.0787 -92.17 78.646C-88.8417 77.0624 -85.3077 75.4836 -81.6662 73.9532C-81.4433 73.8594 -81.2124 73.8135 -80.9847 73.8105ZM217.743 73.1938C217.951 73.1911 218.162 73.224 218.369 73.2965C222.053 74.5859 225.663 76.0891 229.1 77.7643C230.005 78.2055 230.381 79.2966 229.94 80.2019C229.499 81.1068 228.408 81.4829 227.503 81.0418C224.193 79.4286 220.715 77.9806 217.165 76.738C216.215 76.4052 215.714 75.3654 216.046 74.4151C216.307 73.6718 216.999 73.2037 217.743 73.1938ZM449.396 70.5886C449.512 70.5871 449.63 70.5967 449.749 70.6185C450.739 70.7985 451.396 71.7476 451.216 72.7384C451.08 73.4854 450.941 74.2325 450.803 74.9796C450.26 77.9077 449.699 80.9355 449.317 83.8993C449.189 84.8977 448.274 85.6068 447.277 85.4749C446.278 85.3465 445.572 84.4326 445.701 83.4342C446.095 80.3701 446.666 77.2918 447.218 74.315C447.356 73.5718 447.494 72.8287 447.629 72.0856C447.787 71.2136 448.542 70.5999 449.396 70.5886ZM130.27 75.6455C131.032 75.6354 131.75 76.1082 132.015 76.868C132.347 77.8188 131.845 78.8582 130.895 79.1899C127.036 80.5367 123.699 81.9803 120.691 83.6025C119.805 84.0803 118.699 83.7499 118.221 82.8636C117.743 81.9773 118.074 80.8714 118.96 80.3936C122.14 78.6783 125.65 77.1586 129.693 75.7475C129.884 75.6812 130.078 75.648 130.27 75.6455ZM240.1 84.4796C240.466 84.4747 240.837 84.5797 241.16 84.8041C244.403 87.0507 247.466 89.5038 250.264 92.0952C251.003 92.7796 251.047 93.9331 250.363 94.6716C249.678 95.41 248.525 95.4541 247.786 94.7702C245.114 92.2953 242.186 89.9502 239.084 87.8012C238.256 87.2279 238.05 86.092 238.624 85.2646C238.973 84.7607 239.53 84.4871 240.1 84.4796ZM509.819 81.6034C510.208 81.5983 510.602 81.717 510.937 81.9686C511.742 82.5736 511.904 83.7162 511.3 84.5213C509.546 86.856 507.839 89.3161 506.188 91.6948C505.704 92.3921 505.22 93.0894 504.734 93.7849C504.157 94.6102 503.021 94.8118 502.196 94.2356C501.37 93.659 501.168 92.5224 501.745 91.6971C502.229 91.0045 502.711 90.3104 503.192 89.6161C504.863 87.2094 506.59 84.7209 508.384 82.3317C508.737 81.8616 509.274 81.6107 509.819 81.6034ZM108.849 88.3123C109.308 88.3062 109.769 88.4723 110.128 88.8126C110.859 89.5057 110.889 90.6597 110.196 91.39C107.67 94.0523 105.612 97.1366 104.245 100.309C103.846 101.233 102.774 101.659 101.849 101.261C100.925 100.863 100.498 99.7899 100.897 98.8654C102.432 95.3035 104.733 91.8507 107.551 88.8806C107.903 88.5092 108.375 88.3185 108.849 88.3123ZM317.076 89.7493C317.716 89.7408 318.342 90.0704 318.683 90.6656C320.923 94.5727 322.604 97.8575 323.975 101.003C324.378 101.926 323.956 103 323.033 103.402C322.111 103.805 321.036 103.383 320.633 102.46C319.316 99.4395 317.692 96.2677 315.52 92.479C315.019 91.6053 315.321 90.4915 316.195 89.9908C316.473 89.8311 316.776 89.7533 317.076 89.7493ZM156.778 94.9521C157.74 94.9393 158.555 95.6825 158.619 96.6538C158.632 96.8366 158.643 97.0198 158.653 97.2034C158.678 97.6667 158.694 98.1365 158.7 98.6004C158.744 101.919 158.311 105.27 157.413 108.561C157.148 109.532 156.145 110.105 155.175 109.839C154.203 109.575 153.631 108.572 153.896 107.601C154.704 104.639 155.094 101.627 155.055 98.6487C155.049 98.2345 155.035 97.8143 155.012 97.4007C155.003 97.2323 154.993 97.0642 154.982 96.8965C154.915 95.8917 155.675 95.0232 156.679 94.9563C156.712 94.954 156.745 94.9525 156.778 94.9521ZM447.616 95.4884C448.493 95.4768 449.274 96.1001 449.433 96.9913C450.118 100.832 451.388 104.161 453.208 106.885C453.768 107.722 453.542 108.855 452.705 109.414C451.868 109.974 450.735 109.748 450.177 108.911C448.075 105.766 446.617 101.971 445.843 97.6317C445.666 96.6406 446.327 95.6935 447.318 95.5169C447.418 95.499 447.518 95.4897 447.616 95.4884ZM258.128 101.795C258.696 101.788 259.259 102.045 259.622 102.538C259.832 102.824 260.04 103.112 260.246 103.401C262.017 105.888 263.749 108.645 265.862 112.34C266.361 113.214 266.058 114.328 265.184 114.828C264.309 115.329 263.196 115.023 262.696 114.15C260.646 110.563 258.974 107.9 257.276 105.516C257.081 105.242 256.884 104.97 256.685 104.699C256.088 103.888 256.262 102.747 257.073 102.15C257.391 101.916 257.76 101.8 258.128 101.795ZM494.86 101.764C495.303 101.758 495.749 101.913 496.105 102.233C496.853 102.907 496.913 104.059 496.238 104.807C494.411 106.835 492.607 108.586 490.725 110.159C489.668 111.042 488.537 111.883 487.362 112.656C486.521 113.21 485.391 112.977 484.837 112.136C484.283 111.296 484.516 110.165 485.357 109.611C486.416 108.913 487.436 108.157 488.386 107.362C490.136 105.899 491.819 104.265 493.53 102.366C493.884 101.973 494.37 101.77 494.86 101.764ZM100.685 111.147C101.57 111.136 102.356 111.771 102.506 112.67C102.604 113.262 102.732 113.853 102.886 114.427C103.611 117.132 104.994 119.637 106.997 121.87C107.669 122.62 107.606 123.772 106.857 124.445C106.107 125.116 104.954 125.054 104.282 124.304C101.893 121.641 100.238 118.635 99.3639 115.37C99.1801 114.683 99.027 113.977 98.9093 113.27C98.7437 112.277 99.4143 111.338 100.408 111.172C100.501 111.157 100.594 111.148 100.685 111.147ZM326.227 112.985C327.123 112.973 327.913 113.623 328.051 114.533C328.165 115.273 328.259 116.022 328.332 116.757C328.421 117.656 328.472 118.575 328.484 119.49C328.515 121.822 328.297 124.187 327.837 126.518C327.641 127.505 326.679 128.148 325.695 127.953C324.707 127.757 324.065 126.798 324.26 125.811C324.671 123.728 324.866 121.618 324.838 119.538C324.827 118.727 324.782 117.912 324.703 117.117C324.637 116.445 324.551 115.761 324.447 115.083C324.295 114.088 324.979 113.158 325.974 113.006C326.059 112.993 326.144 112.986 326.227 112.985ZM462.437 114.074C462.616 114.072 462.798 114.096 462.978 114.149C466.127 115.079 469.717 115.203 473.433 114.513C474.421 114.328 475.375 114.983 475.558 115.973C475.742 116.963 475.089 117.914 474.099 118.098C469.817 118.893 465.646 118.739 461.945 117.646C460.98 117.361 460.428 116.347 460.713 115.381C460.945 114.596 461.659 114.085 462.437 114.074ZM149.59 118.46C149.987 118.454 150.388 118.578 150.726 118.839C151.524 119.453 151.672 120.598 151.057 121.395C148.534 124.67 145.542 127.385 142.163 129.465C141.304 129.993 140.182 129.726 139.654 128.869C139.126 128.011 139.393 126.888 140.251 126.361C143.253 124.512 145.917 122.093 148.169 119.17C148.523 118.711 149.053 118.467 149.59 118.46ZM271.016 123.337C271.642 123.329 272.256 123.644 272.603 124.219C274.649 127.614 276.505 130.31 278.442 132.704C278.614 132.917 278.787 133.127 278.964 133.336C279.613 134.106 279.516 135.256 278.746 135.905C277.977 136.554 276.826 136.457 276.177 135.687C275.984 135.458 275.794 135.228 275.606 134.996C273.562 132.47 271.615 129.643 269.48 126.101C268.961 125.239 269.238 124.119 270.1 123.599C270.388 123.426 270.703 123.341 271.016 123.337ZM117.02 128.586C117.223 128.583 117.429 128.615 117.632 128.684C120.688 129.724 123.979 130.252 127.149 130.211C127.496 130.206 127.843 130.195 128.19 130.177C129.191 130.136 130.052 130.899 130.104 131.904C130.155 132.91 129.382 133.767 128.376 133.818C127.984 133.838 127.591 133.851 127.197 133.856C123.616 133.903 119.902 133.309 116.457 132.135C115.503 131.811 114.994 130.775 115.319 129.822C115.574 129.072 116.27 128.596 117.02 128.586ZM320.584 136.792C320.973 136.787 321.367 136.906 321.702 137.158C322.507 137.763 322.668 138.906 322.063 139.711C319.468 143.162 316.308 145.772 312.671 147.47C311.758 147.897 310.674 147.502 310.248 146.589C309.822 145.677 310.216 144.592 311.129 144.166C314.218 142.724 316.917 140.488 319.15 137.519C319.503 137.05 320.038 136.799 320.584 136.792ZM287.9 141.574C288.227 141.57 288.559 141.653 288.86 141.833C292.154 143.809 295.508 145.102 298.829 145.676C299.821 145.848 300.486 146.791 300.315 147.783C300.144 148.775 299.201 149.44 298.208 149.269C294.442 148.618 290.666 147.168 286.985 144.96C286.121 144.442 285.841 143.323 286.359 142.459C286.697 141.897 287.289 141.582 287.9 141.574Z" fill="#04D1D2"/>
</svg>
