<svg width="42" height="43" viewBox="0 0 42 43" fill="none" xmlns="http://www.w3.org/2000/svg">
<rect y="0.169678" width="42" height="42" rx="8" fill="white" fill-opacity="0.2"/>
<path d="M27.3004 27.4705H24.6488V23.3177C24.6488 22.3274 24.6311 21.0527 23.2696 21.0527C21.8886 21.0527 21.6772 22.1316 21.6772 23.2456V27.4702H19.0256V18.9304H21.5712V20.0975H21.6068C21.8616 19.6619 22.2297 19.3036 22.672 19.0606C23.1143 18.8177 23.6142 18.6993 24.1184 18.718C26.806 18.718 27.3015 20.4859 27.3015 22.7857L27.3004 27.4705ZM16.0336 17.7631C15.7293 17.7632 15.4318 17.673 15.1787 17.5039C14.9256 17.3349 14.7283 17.0946 14.6118 16.8134C14.4953 16.5323 14.4648 16.2229 14.5241 15.9243C14.5834 15.6258 14.7299 15.3516 14.9451 15.1363C15.1602 14.9211 15.4344 14.7745 15.7329 14.7151C16.0314 14.6556 16.3408 14.686 16.622 14.8025C16.9032 14.9189 17.1435 15.1161 17.3127 15.3691C17.4818 15.6221 17.5721 15.9196 17.5721 16.224C17.5722 16.4261 17.5324 16.6262 17.4551 16.8129C17.3778 16.9996 17.2645 17.1693 17.1216 17.3122C16.9788 17.4551 16.8092 17.5685 16.6225 17.6459C16.4358 17.7232 16.2357 17.7631 16.0336 17.7631ZM17.3595 27.4705H14.705V18.9304H17.3595V27.4705ZM28.6224 12.2229H13.3726C13.0265 12.219 12.6929 12.3527 12.4453 12.5945C12.1977 12.8364 12.0562 13.1667 12.052 13.5129V28.8264C12.0561 29.1727 12.1975 29.5033 12.4451 29.7454C12.6927 29.9875 13.0263 30.1215 13.3726 30.1178H28.6224C28.9694 30.1221 29.3039 29.9886 29.5525 29.7465C29.8011 29.5043 29.9434 29.1734 29.9482 28.8264V13.5118C29.9433 13.1649 29.8009 12.8343 29.5522 12.5924C29.3036 12.3505 28.9692 12.2172 28.6224 12.2218" fill="white"/>
</svg>
