<svg width="74" height="75" viewBox="0 0 74 75" fill="none" xmlns="http://www.w3.org/2000/svg">
<rect y="0.672852" width="73.9104" height="73.9104" rx="36.9552" fill="#025556"/>
<rect y="0.672852" width="73.9104" height="73.9104" rx="36.9552" fill="black" fill-opacity="0.2"/>
<g clip-path="url(#clip0_4288_3107)">
<path d="M22.2903 41.1795C21.9558 40.9296 21.5479 40.8737 21.2574 40.9472C21.0227 41.0031 20.8701 41.1119 20.7821 41.1972C20.7087 41.2442 20.6295 41.303 20.5444 41.3824C20.3566 41.5706 20.1453 41.8765 20.113 42.2999C20.0837 42.7116 20.2421 43.188 20.6324 43.5144C20.829 43.6761 21.0901 43.7849 21.3513 43.8026C21.6154 43.8231 21.8794 43.7673 22.1142 43.6496C22.3489 43.535 22.5573 43.3409 22.6893 43.1115C22.8243 42.8792 22.88 42.6234 22.883 42.3764C22.8918 41.8853 22.6336 41.4177 22.2903 41.1795ZM21.8208 43.0792C21.5449 43.2174 21.2222 43.1909 21.0197 43.0233C20.8026 42.8527 20.6882 42.5587 20.694 42.3205C20.697 42.0823 20.8114 41.8676 20.9258 41.7265C21.008 41.6236 21.0872 41.55 21.1488 41.4971C21.2075 41.4765 21.275 41.4589 21.3542 41.4501C21.5215 41.4324 21.7474 41.4824 21.9411 41.6471C22.1377 41.8059 22.2697 42.0735 22.258 42.3764C22.2462 42.6792 22.0936 42.9527 21.8208 43.0792Z" fill="white"/>
<path d="M27.2227 42.0588C27.1875 41.803 27.1229 41.556 26.9674 41.3178C26.8089 41.0767 26.5566 40.9267 26.3424 40.8561C25.468 40.5827 24.8166 40.9649 24.664 41.1325C24.6258 41.1737 24.5965 41.209 24.573 41.2443C24.5232 41.2913 24.4762 41.3472 24.4263 41.409C24.2444 41.6472 24.0713 42.0441 24.1359 42.5029C24.1945 42.9498 24.4645 43.4439 24.9721 43.7026C25.468 43.9555 26.1165 43.9261 26.5977 43.5674C26.8354 43.3909 27.0143 43.1527 27.1229 42.8881C27.2344 42.6234 27.2608 42.3176 27.2227 42.0588ZM26.5331 42.6499C26.4627 42.8116 26.3512 42.9557 26.2104 43.0557C25.9404 43.2615 25.5296 43.2851 25.2421 43.138C24.9516 42.9998 24.7579 42.6881 24.711 42.4088C24.6582 42.1294 24.7432 41.8736 24.8518 41.6942C24.9369 41.5501 25.0308 41.456 25.0954 41.3913C25.1658 41.3678 25.2508 41.3443 25.3506 41.3266C25.5648 41.2913 25.87 41.2943 26.1487 41.406C26.2867 41.4619 26.3952 41.5413 26.4627 41.6589C26.536 41.7736 26.583 41.9589 26.6035 42.1441C26.6241 42.3264 26.6035 42.4882 26.5331 42.6499Z" fill="white"/>
<path d="M25.3535 35.8188C25.3241 35.9394 25.2889 36.0482 25.2009 36.1658C25.1216 36.2746 25.0219 36.3511 24.9133 36.404C24.8077 36.4569 24.6874 36.4864 24.5612 36.4775C24.4292 36.4716 24.3118 36.4217 24.2267 36.3481C24.0624 36.207 24.0272 36.0453 24.0184 35.9335C23.9568 35.8218 23.8893 35.6277 23.9127 35.3689C23.9274 35.2013 23.9802 35.0102 24.0976 34.8308C24.1269 34.7867 24.1622 34.7367 24.2062 34.6926C24.2473 34.6485 24.3206 34.5867 24.3881 34.5485C24.5319 34.4662 24.705 34.4397 24.8634 34.4926C25.0248 34.5426 25.1569 34.6691 25.2331 34.8278C25.3036 34.9749 25.3212 35.0719 25.3417 35.1778C25.374 35.366 25.4034 35.5806 25.3535 35.8188Z" fill="white"/>
<path d="M37.5143 32.3295C37.2724 32.1797 36.974 32.1899 36.7697 32.267C36.5554 32.3419 36.394 32.4753 36.2777 32.5951C36.1585 32.7188 36.0763 32.8302 35.9984 32.9326C35.9204 33.037 35.8505 33.1387 35.7944 33.2359C35.7102 33.379 35.6599 33.5108 35.6358 33.6077C35.5874 33.6393 35.534 33.6918 35.4907 33.7843C35.4471 33.884 35.3959 34.1018 35.5264 34.3657C35.6621 34.6328 35.9625 34.8087 36.2595 34.9069C36.4045 34.953 36.5636 35.0161 36.7976 35.0178C37.0348 35.0198 37.2915 34.8955 37.4467 34.7253C37.6069 34.5572 37.7036 34.3682 37.7808 34.1832C37.8557 33.9932 37.9104 33.8249 37.9568 33.6174C37.999 33.4123 38.0198 33.1816 37.954 32.9356C37.8886 32.7002 37.7493 32.4748 37.5143 32.3295ZM36.1301 34.1704C36.1214 34.191 36.1158 34.2096 36.1147 34.2257C36.1019 34.2183 36.0927 34.2108 36.0812 34.2034C36.0966 34.1939 36.1126 34.1834 36.1301 34.1704ZM36.7754 34.4093C36.7443 34.4118 36.7039 34.4075 36.6606 34.4007C36.6965 34.3723 36.7334 34.3394 36.7707 34.3041C36.8003 34.3269 36.8354 34.3452 36.8754 34.3635C36.8825 34.3668 36.8896 34.3694 36.8966 34.3724C36.8582 34.3941 36.8198 34.4051 36.7754 34.4093Z" fill="white"/>
<path d="M51.2659 29.5024C51.2746 29.473 51.2835 29.4406 51.2952 29.4083C51.3098 29.4053 51.3216 29.4053 51.3392 29.3995C51.5035 29.3495 52.0376 29.1466 52.6244 28.6584C52.912 28.4085 53.1966 28.0732 53.3726 27.6527C53.4607 27.4351 53.5223 27.2322 53.5311 26.9617C53.5311 26.8264 53.5105 26.6882 53.446 26.5412C53.3697 26.3706 53.2142 26.2295 53.0352 26.1824C52.9266 26.156 52.8122 26.156 52.7065 26.1854C52.598 26.2148 52.5335 26.253 52.4689 26.2912C52.3427 26.3736 52.2635 26.4471 52.1872 26.5088C52.0317 26.6441 51.8909 26.7647 51.7646 26.8735C51.5769 27.0411 51.4302 27.1793 51.3451 27.2734C51.2746 27.0529 51.1807 26.8352 51.0487 26.6323C50.8463 26.3177 50.5499 26.0501 50.2242 25.8707C49.5728 25.5061 48.804 25.4238 48.1233 25.5767C47.4425 25.7237 46.844 26.1266 46.5095 26.6412C46.1691 27.1646 46.1162 27.7204 46.1691 28.1291C46.1984 28.3849 46.2688 28.582 46.3422 28.7319C45.0922 28.1379 43.6603 27.7057 42.1403 27.4851C40.0512 27.1705 37.8153 27.2616 35.6439 27.5969C33.4638 27.935 31.3453 28.4673 29.3353 29.0436C28.502 29.2936 27.6951 29.5877 26.9381 29.9405C26.8911 29.8111 26.8236 29.6494 26.7268 29.4494C26.5713 29.1348 26.3541 28.7349 25.9933 28.3438C25.8142 28.1497 25.5942 27.9586 25.3331 27.8056C25.0748 27.6527 24.7668 27.5204 24.4029 27.5028C24.0361 27.4851 23.6752 27.6145 23.3877 27.8115C23.0942 28.0056 22.8566 28.2644 22.6688 28.5408C22.2903 29.0966 22.0878 29.7406 21.9997 30.3463C21.9117 30.955 21.9293 31.5314 21.9763 32.0313C22.0203 32.5312 22.0907 32.9605 22.1494 33.2958C22.2081 33.631 22.2638 33.8839 22.3079 34.0133C22.3988 34.2603 22.4722 34.3661 22.5367 34.4044C22.3401 34.9601 22.2198 35.4836 22.0995 35.9423C21.9499 36.5304 21.809 37.0245 21.6447 37.4067C21.4862 37.7949 21.3249 38.0772 21.2075 38.2654C20.8818 38.78 20.5913 39.0241 20.4182 39.174C20.3419 39.224 20.2773 39.2711 20.2216 39.3181C20.0954 39.4152 20.0133 39.4975 19.9605 39.5622C19.9223 39.6063 19.9018 39.6387 19.8871 39.6681C19.5849 39.921 19.1477 40.3797 18.8425 41.1295C18.6664 41.5677 18.5373 42.0941 18.511 42.6792C18.4904 43.2615 18.5315 43.9025 18.7779 44.5642C18.9041 44.8906 19.0919 45.2229 19.3589 45.4963C19.623 45.7728 19.9429 45.9904 20.2832 46.1609C20.8231 46.4256 21.4041 46.605 22.0115 46.7196C22.035 46.8343 22.0702 46.9784 22.1288 47.1548C22.1993 47.393 22.3196 47.6842 22.4898 48.0488C22.5514 48.1635 22.6306 48.3046 22.7186 48.4722C22.8155 48.634 22.9387 48.8134 23.0707 49.0192C23.3583 49.4103 23.728 49.8749 24.2239 50.3425C24.9721 51.0541 25.9991 51.7981 27.2726 52.3715C27.2726 52.3832 27.2755 52.3921 27.2755 52.4038C27.2931 52.6009 27.4163 53.1331 27.5953 53.833C27.6423 54.0094 27.6922 54.1947 27.742 54.3887C27.7978 54.5887 27.8653 54.8093 27.9885 55.0327C28.1088 55.2592 28.3084 55.4738 28.5314 55.615C28.7573 55.762 29.0009 55.8532 29.2473 55.912C29.7374 56.0296 30.2626 56.0178 30.735 55.8443C30.9697 55.7561 31.1869 55.6238 31.3659 55.4562C31.5448 55.2915 31.674 55.0915 31.7649 54.9092C31.9409 54.5387 32.0085 54.227 32.0789 53.9859C32.1317 53.7947 32.1698 53.6448 32.1874 53.5389C32.2813 53.5477 32.3782 53.5536 32.475 53.5595C32.4985 53.6418 32.5249 53.7271 32.5542 53.8124C32.6393 54.08 32.7361 54.3593 32.8417 54.6475C32.9503 54.9386 33.0706 55.2474 33.2467 55.5562C33.4198 55.8649 33.6604 56.1707 33.9715 56.4031C34.2796 56.6354 34.6727 56.8059 35.0894 56.8177C35.5031 56.8353 35.9022 56.7118 36.2367 56.5177C36.5712 56.3266 36.8529 56.059 37.0671 55.762C37.4867 55.1621 37.6569 54.5181 37.8006 53.9888C37.8593 53.7683 37.9151 53.5595 37.965 53.3625C38.0941 53.3507 38.2202 53.3389 38.3493 53.3242C38.6428 53.2919 38.9391 53.2595 39.2355 53.2243C39.2824 53.4713 39.388 53.8771 39.5347 54.3829C39.5876 54.5564 39.6551 54.7416 39.7607 54.9357C39.8663 55.1239 40.013 55.3297 40.2419 55.4768C40.4708 55.6326 40.7466 55.6797 40.9696 55.6973C41.1926 55.715 41.4097 55.7208 41.6386 55.715C42.0875 55.7032 42.5658 55.6209 42.9825 55.4121C43.2554 55.2533 43.3786 55.0768 43.5107 54.9122C43.631 54.7446 43.7336 54.5799 43.8188 54.4211C44.0329 54.027 44.1679 53.6712 44.2384 53.4095C44.3176 53.7036 44.4056 54.0094 44.5083 54.3299C44.6198 54.6652 44.7665 55.0651 45.0951 55.3827C45.7377 56.0061 46.7794 56.1325 47.5922 55.6885C48.0001 55.4591 48.2905 55.1092 48.5047 54.7504C48.7189 54.3917 48.8686 54.0212 49.0006 53.6712C49.2647 52.9684 49.4672 52.2862 49.6197 51.6716C49.8692 50.6601 49.9836 49.8367 50.0217 49.3897C50.365 49.0045 50.6672 48.6016 50.9372 48.1899C51.5328 47.2784 51.9759 46.3315 52.3046 45.414C52.9736 43.5791 53.2113 41.8618 53.2523 40.515C53.3022 39.1623 53.1643 38.1713 53.0822 37.6626C52.953 36.9127 52.821 36.504 52.7388 36.2805C52.6948 36.1629 52.6567 36.0982 52.6273 36.0658C52.5804 35.8335 52.4865 35.4718 52.2635 34.916C52.0786 34.4779 51.7118 33.631 50.9842 32.6194C50.7025 32.2224 50.3591 31.799 49.9572 31.3697C49.9718 31.3608 49.9836 31.352 49.9983 31.3432C50.23 31.1726 50.8902 30.5786 51.2659 29.5024ZM51.4448 27.7057C51.4712 27.6968 51.5006 27.688 51.5387 27.6704C51.6355 27.6292 51.8409 27.4939 52.1109 27.3028C52.2459 27.2058 52.3955 27.094 52.5598 26.9764C52.6449 26.9146 52.7271 26.8499 52.7887 26.8176C52.8679 26.7764 52.8591 26.7911 52.865 26.7911C52.8669 26.7951 52.8689 26.8 52.8709 26.8058C52.8826 26.8382 52.8944 26.897 52.8914 26.9617C52.8914 27.0146 52.8768 27.1028 52.8591 27.1793C52.8386 27.2587 52.8151 27.3351 52.7829 27.4116C52.6567 27.7204 52.4396 27.9938 52.2136 28.2114C51.9348 28.4702 51.6473 28.6702 51.436 28.8143C51.4918 28.4673 51.5035 28.0909 51.4448 27.7057ZM35.7701 28.2262C37.6656 27.935 39.5876 27.8351 41.4068 28.0262C41.4127 28.0468 41.4186 28.0615 41.4273 28.085C41.4391 28.1321 41.4567 28.1967 41.4538 28.2614C41.4508 28.332 41.4186 28.4173 41.3804 28.4379C41.3628 28.4496 41.3364 28.4585 41.2747 28.4673C41.219 28.4732 41.1222 28.4732 41.0253 28.4761C40.8317 28.4849 40.6204 28.4937 40.3945 28.5055C39.4966 28.5526 38.3787 28.6525 37.2695 28.8055C36.1633 28.9495 35.0424 29.1583 34.1886 29.3377C33.9832 29.373 33.81 29.3848 33.6546 29.3642C33.499 29.3436 33.3523 29.2995 33.2261 29.2495C32.9679 29.1436 32.7802 29.026 32.6745 28.976C32.5748 28.929 32.4985 28.8996 32.4398 28.8848C33.5343 28.6261 34.6522 28.3967 35.7701 28.2262ZM22.6189 30.4316C22.7099 29.8964 22.8918 29.3465 23.2028 28.8937C23.5021 28.4467 23.9657 28.1085 24.3882 28.1291C24.6024 28.135 24.8313 28.2203 25.0396 28.3379C25.245 28.4526 25.424 28.5996 25.5795 28.7555C25.8935 29.0701 26.1135 29.42 26.2808 29.6994C26.3835 29.8758 26.4657 30.0229 26.5331 30.1375C26.5155 30.1464 26.495 30.1523 26.4774 30.164C26.0901 30.364 25.7262 30.5904 25.377 30.8286C25.3888 30.8051 25.3947 30.7874 25.3947 30.7698C25.3888 30.6933 25.3507 30.6345 25.2949 30.5639C25.2538 30.5169 25.2127 30.4816 25.154 30.464C25.0572 30.2963 24.9457 30.0787 24.6611 29.9141C24.5173 29.8317 24.3178 29.7935 24.1388 29.8317C23.9598 29.867 23.8102 29.9582 23.6928 30.0699C23.5755 30.1758 23.4845 30.3228 23.4316 30.461C23.3759 30.6022 23.3525 30.7404 23.3407 30.8668C23.3201 31.1227 23.3407 31.3226 23.3612 31.5167C23.3964 31.9078 23.5461 32.2254 23.6429 32.3048C23.6635 32.3195 23.6782 32.3283 23.6987 32.3401C23.2762 32.8488 22.9446 33.3928 22.7099 33.9398V33.9309C22.704 33.6839 22.616 32.9341 22.5543 31.9813C22.5309 31.502 22.5309 30.9697 22.6189 30.4316ZM20.5356 45.6081C20.2421 45.4611 19.981 45.2817 19.7727 45.067C19.5673 44.8553 19.4205 44.6024 19.312 44.3319C19.1036 43.7908 19.0508 43.1997 19.0626 42.6792C19.0773 42.1558 19.1799 41.6853 19.3266 41.2972C19.623 40.512 20.0807 40.068 20.3155 39.8533C20.6647 39.5357 20.9199 39.4005 21.0579 39.3034C21.0667 39.2975 21.0725 39.2946 21.0814 39.2887C21.4129 39.1682 21.9645 39.0005 22.7099 38.9506C23.5696 38.8859 24.6846 38.9711 25.8964 39.2975C26.495 39.4622 27.117 39.6975 27.654 40.0797C28.191 40.4591 28.6223 41.0149 28.7573 41.6824C28.9011 42.3499 28.772 43.0997 28.4346 43.7379C28.0971 44.376 27.5396 44.9112 26.8941 45.2993C25.5913 46.0815 23.9921 46.3462 22.5514 46.1727C21.8325 46.0845 21.1283 45.8963 20.5356 45.6081ZM29.3617 41.5265C29.1798 40.6855 28.6194 39.9945 27.9856 39.5681C27.3489 39.1329 26.6652 38.8917 26.0226 38.7271C25.3976 38.5712 24.802 38.4771 24.2444 38.4301C24.7785 38.386 25.3976 38.3595 26.0666 38.4065C26.9674 38.4683 27.9768 38.6888 28.8482 39.2652C29.2796 39.5504 29.6728 39.9151 29.9633 40.3562C30.2537 40.7943 30.4298 41.3089 30.4885 41.8412C30.5472 42.3734 30.4885 42.9204 30.3124 43.4173C30.1393 43.9172 29.8547 44.3701 29.5085 44.7494C28.8131 45.5199 27.8682 45.9021 26.9909 46.0815C26.8911 46.1021 26.7943 46.1168 26.6975 46.1315C26.8823 46.0433 27.0672 45.9433 27.2462 45.8345C27.965 45.3934 28.6106 44.7818 29.0096 44.0113C29.3999 43.2468 29.5525 42.3587 29.3617 41.5265ZM50.5881 32.9458C51.304 33.8986 51.6884 34.6984 51.8967 35.1042C52.1989 35.7071 52.3398 36.0629 52.4396 36.254C52.4748 36.3187 52.5011 36.3628 52.5246 36.3952V36.3981C52.5246 36.3981 52.5276 36.3981 52.5276 36.401C52.5511 36.6451 52.6156 37.0539 52.6802 37.742C52.7183 38.2448 52.821 39.2123 52.7418 40.5208C52.6684 41.8265 52.4131 43.4791 51.747 45.2435C51.4213 46.1227 50.9842 47.0225 50.412 47.8812C50.2535 48.1164 50.0833 48.3517 49.9014 48.5781C49.8985 48.5752 49.8926 48.5752 49.8897 48.5752C49.834 48.5693 49.784 48.5899 49.7107 48.8133C49.6872 48.8869 49.6579 48.981 49.6286 49.1045C49.5874 49.2633 49.5259 49.575 49.4349 49.9955V49.9984C49.341 50.416 49.2177 50.9394 49.0534 51.5334C48.8862 52.1245 48.6749 52.7832 48.4108 53.4595C48.2788 53.7977 48.1379 54.1329 47.956 54.4299C47.7741 54.724 47.5423 54.9857 47.2694 55.1327C46.7207 55.4415 45.9343 55.3415 45.5236 54.9239C45.3152 54.7328 45.1891 54.4358 45.0805 54.1241C44.9719 53.8065 44.8721 53.4919 44.7812 53.1978C44.6902 52.9067 44.611 52.6303 44.5377 52.3774C44.476 52.1539 44.4203 51.948 44.3704 51.7598C44.2442 51.3011 44.1562 50.96 44.0975 50.7924C43.942 50.3278 43.8598 50.2513 43.7718 50.266C43.7043 50.2778 43.6515 50.366 43.6984 50.8806C43.716 51.057 43.7659 51.4011 43.8627 51.8657C43.1673 52.0039 42.4602 52.1157 41.7501 52.2303C40.5823 52.4127 39.4086 52.5685 38.2466 52.695C38.2056 52.7008 38.1674 52.7038 38.1263 52.7067C38.229 52.2891 38.2965 51.9804 38.3171 51.8216C38.3758 51.3923 38.3288 51.2952 38.2437 51.2717C38.1762 51.2511 38.0941 51.3011 37.9209 51.7187C37.8505 51.8892 37.7273 52.2568 37.5659 52.7655C37.5043 52.9655 37.4368 53.1831 37.3634 53.4213C37.3224 53.5536 37.2812 53.6948 37.2373 53.8388C37.0788 54.3593 36.9028 54.9328 36.5536 55.4003C36.225 55.8561 35.6528 56.206 35.107 56.1766C34.837 56.1678 34.573 56.0561 34.3441 55.8855C34.1152 55.715 33.9304 55.4885 33.7807 55.2327C33.4932 54.721 33.2907 54.1182 33.1029 53.6154C33.1 53.6065 33.097 53.6007 33.0941 53.5918C33.0149 53.3713 32.9445 53.1596 32.8799 52.9625C32.6569 52.2627 32.5307 51.7393 32.4603 51.5275C32.3253 51.1217 32.252 51.0747 32.1639 51.0894C32.0965 51.0982 32.0319 51.1482 32.0583 51.6099C32.07 51.8187 32.1405 52.295 32.3019 52.9302C31.002 52.842 29.7755 52.6332 28.681 52.2892C26.897 51.7393 25.5003 50.8159 24.5496 49.9484C24.0713 49.5132 23.7163 49.0809 23.4287 48.7192C23.2996 48.531 23.1734 48.3664 23.0796 48.2164C22.9857 48.0635 22.9035 47.9341 22.839 47.8282C22.6629 47.5136 22.5221 47.2578 22.4311 47.046C22.3783 46.9402 22.3342 46.849 22.299 46.7696C22.299 46.7696 22.299 46.7667 22.2961 46.7667C22.346 46.7726 22.3929 46.7843 22.4428 46.7902C22.4281 46.8108 22.4223 46.8314 22.4252 46.852C22.434 46.8873 22.4692 46.9167 22.5954 46.9255C22.7216 46.9314 22.9416 46.9225 23.3201 46.9078C23.5666 46.8961 24.0361 46.8725 24.6846 46.8549C25.3331 46.8284 26.1664 46.8284 27.12 46.652C27.5983 46.5608 28.103 46.4168 28.5989 46.1756C29.1006 45.9433 29.573 45.5963 29.9779 45.1611C30.38 44.7288 30.7144 44.1995 30.9198 43.6114C31.1252 43.0204 31.1927 42.3793 31.1223 41.753C31.0519 41.1266 30.8348 40.5091 30.4826 39.9886C30.1305 39.4681 29.6669 39.0476 29.171 38.73C28.1705 38.086 27.0437 37.8684 26.0842 37.8214C25.1159 37.7772 24.2826 37.8772 23.6312 37.9772C22.9798 38.0772 22.5074 38.1948 22.2638 38.2654C21.5743 38.483 21.4921 38.5889 21.5097 38.6712C21.4599 38.6859 21.4129 38.7006 21.3659 38.7153C21.4305 38.6447 21.4951 38.5653 21.5596 38.4801C21.7034 38.283 21.9 37.9802 22.0819 37.5685C22.2727 37.1568 22.437 36.6392 22.5984 36.0482C22.7685 35.46 22.9299 34.7955 23.2263 34.1338C23.5226 33.4751 23.9803 32.8164 24.5877 32.2283C25.1922 31.6373 25.9404 31.1168 26.7826 30.6904C26.8295 30.6669 26.8794 30.6463 26.9293 30.6227C26.9586 30.6286 26.985 30.6257 27.0085 30.6139C27.032 30.6051 27.0525 30.5904 27.0642 30.5581C27.833 30.1934 28.6664 29.8935 29.5437 29.6347C30.4122 29.3936 31.3101 29.1554 32.2197 28.9348C32.1874 28.9907 32.1933 29.073 32.4427 29.3171C32.5337 29.3995 32.7156 29.5582 33.0178 29.717C33.1704 29.7935 33.3582 29.87 33.5782 29.9111C33.8013 29.9523 34.0477 29.9435 34.2854 29.9111C35.1305 29.7729 36.134 29.6053 37.1639 29.4671C36.9761 29.5259 36.7942 29.6053 36.6299 29.7053C36.0284 30.0699 35.6293 30.5816 35.3124 31.0197C35.0043 31.4667 34.7549 31.8519 34.57 32.193C34.3881 32.5341 34.3001 32.8194 34.2737 32.9694C34.2091 33.4222 34.3089 33.484 34.3852 33.4928C34.4644 33.5016 34.5055 33.4575 34.6669 33.0899C34.7256 32.9694 34.8283 32.74 35.019 32.443C35.2067 32.1519 35.4796 31.7696 35.7878 31.3579C36.1017 30.9521 36.4714 30.5169 36.9556 30.2405C37.4104 29.967 38.05 29.9052 38.5195 30.1375C38.7543 30.2493 38.9186 30.4316 39.0154 30.6727C39.1152 30.9139 39.1563 31.2226 39.1914 31.5196C39.2531 32.1136 39.2325 32.6812 39.165 33.184C39.0301 34.1897 38.7191 34.9072 38.6398 35.1689C38.5166 35.5541 38.5283 35.6512 38.6076 35.6982C38.6662 35.7306 38.763 35.7159 39.0125 35.3424C39.168 35.0984 39.5553 34.3514 39.7431 33.2605C39.8341 32.7194 39.8722 32.0989 39.8135 31.4461C39.7754 31.1227 39.746 30.7845 39.5993 30.4198C39.4614 30.0582 39.1533 29.72 38.7924 29.5553C38.5283 29.4318 38.2525 29.37 37.9796 29.3583C38.8658 29.2465 39.7284 29.1554 40.4473 29.0878C40.6703 29.0642 40.8786 29.0466 41.0694 29.026C41.1633 29.0172 41.2513 29.0142 41.3716 28.9907C41.489 28.9672 41.6328 28.9113 41.7325 28.8084C41.932 28.5967 41.932 28.3732 41.9144 28.2203C41.9086 28.1673 41.8968 28.1232 41.8821 28.085C41.9497 28.0938 42.0171 28.0997 42.0817 28.1085C44.0946 28.3967 45.9402 29.0554 47.3809 29.9729C48.8304 30.8786 49.8809 31.9931 50.5881 32.9458ZM49.7136 31.0462C49.7019 31.0609 49.6931 31.0727 49.6843 31.0844C49.3791 30.7815 49.0446 30.4816 48.6779 30.1875C48.7131 30.1728 48.7542 30.1523 48.8011 30.1199C48.9272 30.0376 49.2412 29.7259 49.4554 29.1877C49.5611 28.9172 49.6373 28.6114 49.6432 28.2467C49.6432 28.0644 49.6197 27.8762 49.5522 27.6851C49.4848 27.4939 49.3644 27.291 49.1679 27.147C48.983 27.0029 48.7013 26.9323 48.4695 26.9793C48.2377 27.0234 48.0323 27.1381 47.8827 27.3116C47.7301 27.4881 47.645 27.7233 47.6685 27.9615C47.6773 28.0791 47.7242 28.2144 47.8034 28.3173C47.8827 28.4144 47.959 28.4702 48.0235 28.5114C48.2935 28.6908 48.5722 28.7584 48.7981 28.7613C48.8598 28.7643 48.9155 28.7584 48.9684 28.7525C48.9478 28.8378 48.9302 28.9201 48.9038 28.9966C48.7659 29.4377 48.5488 29.7288 48.4959 29.8464C48.4636 29.9199 48.449 29.9699 48.446 30.0111C48.1996 29.8229 47.9414 29.6406 47.6655 29.4641C47.4396 29.3171 47.2019 29.1789 46.9584 29.0466C46.929 28.9789 46.8821 28.8848 46.8234 28.7437C46.7853 28.6261 46.6855 28.4026 46.6767 28.0762C46.662 27.7586 46.7325 27.3293 46.9965 26.9617C47.2577 26.5941 47.7213 26.2942 48.267 26.1883C48.807 26.0766 49.4261 26.153 49.922 26.4353C50.4237 26.7059 50.7201 27.2116 50.8199 27.7615C50.9255 28.3114 50.8521 28.8643 50.7083 29.3318C50.4149 30.2758 49.875 30.8404 49.7136 31.0462ZM49.0182 28.2673C48.9684 28.2673 48.9067 28.2644 48.8333 28.2526C48.6955 28.2262 48.5165 28.1615 48.358 28.035C48.3169 28.0027 48.2876 27.9703 48.2788 27.9556C48.2759 27.9439 48.2729 27.935 48.2729 27.9086C48.2729 27.8498 48.2993 27.7792 48.3551 27.7233C48.4079 27.6645 48.4989 27.6204 48.581 27.6086C48.669 27.5969 48.7218 27.6174 48.7952 27.6645C48.9272 27.7586 49.0153 28.0174 49.0182 28.2644V28.2673Z" fill="white"/>
<path d="M41.4537 28.2615C41.4508 28.332 41.4185 28.4173 41.3804 28.4379C41.3627 28.4497 41.3363 28.4585 41.2747 28.4673C41.2189 28.4732 41.1221 28.4732 41.0253 28.4761C40.8316 28.485 40.6204 28.4938 40.3944 28.5055C39.4965 28.5526 38.3786 28.6526 37.2695 28.8055C36.1632 28.9496 35.0424 29.1584 34.1885 29.3377C33.9831 29.373 33.81 29.3848 33.6545 29.3642C33.499 29.3436 33.3522 29.2995 33.2261 29.2495C32.9679 29.1437 32.7801 29.026 32.6744 28.976C32.5747 28.929 32.4984 28.8996 32.4397 28.8849C33.5342 28.6261 34.6521 28.3967 35.7701 28.2262C37.6656 27.9351 39.5875 27.8351 41.4067 28.0262C41.4126 28.0468 41.4185 28.0615 41.4273 28.085C41.439 28.1321 41.4566 28.1968 41.4537 28.2615Z" fill="white"/>
<path d="M22.258 42.3763C22.2462 42.6792 22.0937 42.9527 21.8208 43.0791C21.545 43.2173 21.2222 43.1908 21.0198 43.0232C20.8026 42.8527 20.6882 42.5586 20.6941 42.3204C20.697 42.0822 20.8114 41.8676 20.9258 41.7264C21.008 41.6235 21.0872 41.55 21.1489 41.4971C21.2076 41.4765 21.275 41.4588 21.3543 41.45C21.5215 41.4324 21.7474 41.4824 21.9411 41.647C22.1377 41.8058 22.2697 42.0734 22.258 42.3763Z" fill="white"/>
<path d="M26.533 42.6499C26.4626 42.8116 26.3511 42.9557 26.2103 43.0557C25.9404 43.2615 25.5296 43.2851 25.242 43.138C24.9515 42.9998 24.7578 42.6881 24.7109 42.4088C24.6581 42.1294 24.7432 41.8736 24.8518 41.6942C24.9368 41.5501 25.0307 41.456 25.0953 41.3913C25.1657 41.3678 25.2508 41.3443 25.3506 41.3266C25.5647 41.2913 25.8699 41.2943 26.1487 41.406C26.2866 41.4619 26.3952 41.5413 26.4626 41.6589C26.536 41.7736 26.583 41.9588 26.6035 42.1441C26.624 42.3264 26.6035 42.4882 26.533 42.6499Z" fill="white"/>
<path d="M32.5719 36.8774C32.5132 37.0068 32.434 37.1539 32.299 37.2774C32.1611 37.4097 31.9791 37.4744 31.8207 37.4832C31.498 37.5126 31.2163 37.3185 31.1165 37.1215C31.0167 36.9421 31.0167 36.7922 31.0314 36.7128C30.9698 36.5246 30.9316 36.1923 31.0901 35.8071C31.1458 35.6835 31.2192 35.5512 31.3395 35.4307C31.4569 35.3101 31.6417 35.1895 31.8735 35.1807C32.1053 35.1689 32.3136 35.2748 32.4545 35.4101C32.5983 35.5483 32.701 35.7306 32.7362 35.9276C32.8037 36.307 32.6834 36.6275 32.5719 36.8774Z" fill="white"/>
<path d="M54.1017 45.0689C54.0345 45.048 53.9685 45.0425 53.8706 45.169C53.7412 45.3335 53.4349 46.1916 53.0613 46.9967C52.8743 47.3994 52.6669 47.7867 52.4874 48.0894C52.3075 48.3914 52.1639 48.6162 52.132 48.7127C52.0901 48.8582 52.1249 48.9263 52.1909 48.9846C52.2437 49.0312 52.3062 49.0575 52.449 48.9745C52.5436 48.9217 52.7478 48.7138 52.9768 48.4059C53.2051 48.098 53.4475 47.6861 53.6455 47.2579C54.0422 46.3989 54.2791 45.4999 54.2634 45.2898C54.2476 45.1333 54.1858 45.095 54.1017 45.0689Z" fill="#04D1D2"/>
<path d="M55.3981 47.5728C55.3676 47.4702 55.304 47.4383 55.2204 47.4108C55.1535 47.3887 55.0893 47.3769 55.0086 47.4421C54.9051 47.5286 54.6851 48.0087 54.4426 48.4736C54.2047 48.9411 53.9439 49.3953 53.9463 49.5345C53.9513 49.638 54.0004 49.6914 54.0731 49.7411C54.1313 49.7808 54.192 49.8064 54.289 49.7616C54.4155 49.7045 54.7625 49.2578 55.0174 48.7549C55.2773 48.2548 55.4385 47.711 55.3981 47.5728Z" fill="#04D1D2"/>
<path d="M22.5047 51.0353C22.0873 50.5212 21.758 49.9476 21.6253 49.8517C21.5238 49.7842 21.4536 49.8009 21.374 49.8385C21.3103 49.8686 21.2561 49.905 21.2576 50.0353C21.2556 50.204 21.5507 50.8778 22.0127 51.445C22.4646 52.0199 23.0595 52.4575 23.2309 52.4807C23.358 52.4993 23.4154 52.4542 23.4673 52.3829C23.5088 52.326 23.5325 52.2628 23.4776 52.1516C23.4027 52.0091 22.9127 51.5565 22.5047 51.0353Z" fill="#04D1D2"/>
<path d="M38.5706 18.4758C38.4601 18.0577 38.3137 17.6397 38.007 17.3233C37.6989 17.0251 37.3239 16.8711 36.9627 16.8288C36.9146 16.824 36.8668 16.8216 36.8194 16.821C36.8065 16.8063 36.7889 16.7911 36.7585 16.7746C36.6528 16.7146 36.1067 16.6125 35.5568 16.6677C35.2804 16.6946 35.0184 16.7435 34.796 16.82C34.6185 16.8783 34.4851 16.9813 34.4236 17.0558C34.3975 17.0337 34.3462 17.0226 34.1658 17.2141C34.0468 17.339 33.759 17.7554 33.5716 18.3743C33.385 18.988 33.238 19.7747 33.2612 20.5807C33.2777 21.3848 33.5077 22.1861 33.8417 22.7477C34.0039 23.0313 34.1861 23.2561 34.3428 23.4196C34.3739 23.4526 34.4045 23.481 34.4349 23.5088C34.4184 23.5304 34.4123 23.564 34.4525 23.6304C34.4719 23.6604 34.5226 23.707 34.5978 23.745C34.6724 23.7837 34.77 23.8121 34.8705 23.8328C35.0705 23.8768 35.3242 23.9108 35.5795 23.9204C36.0914 23.9443 36.5989 23.8498 36.6962 23.7854C36.6994 23.7833 36.7008 23.7814 36.7038 23.7793C36.901 23.7996 37.1024 23.7806 37.2941 23.7223C37.5485 23.6469 37.7802 23.4925 37.9581 23.2986C38.1363 23.1032 38.2633 22.8732 38.3556 22.639C38.5399 22.1662 38.6034 21.6834 38.673 21.2169C38.7055 20.9817 38.7313 20.7469 38.7519 20.5146C38.7741 20.2819 38.7842 20.0417 38.7753 19.8084C38.7577 19.3374 38.6731 18.8967 38.5706 18.4758ZM34.3486 17.3418C34.3688 17.3047 34.3844 17.2744 34.3979 17.2468C34.4048 17.2529 34.4119 17.2586 34.4196 17.2636C34.4529 17.2858 34.4845 17.2914 34.5538 17.259C34.5983 17.2373 34.7036 17.1657 34.8933 17.1213C35.0809 17.0766 35.3425 17.0367 35.5929 17.0136C35.7724 16.9958 35.9515 16.9912 36.1137 16.9916C36.079 17.0104 36.0453 17.03 36.0131 17.0502C35.765 17.2084 35.6067 17.4053 35.4928 17.5677C35.4297 17.6599 35.3814 17.7425 35.3425 17.8152C35.3324 17.7994 35.3164 17.7855 35.29 17.7746C35.2211 17.7463 34.9165 17.7696 34.6141 17.8138C34.463 17.836 34.3128 17.8625 34.1935 17.8918C34.1408 17.9057 34.0926 17.9238 34.0513 17.9426C34.1742 17.6418 34.2968 17.4353 34.3486 17.3418ZM33.9645 18.1744C33.9807 18.1942 34.0017 18.2094 34.0364 18.2165C34.0694 18.2223 34.1413 18.2125 34.2596 18.2015C34.3798 18.1933 34.5282 18.1776 34.6753 18.1561C34.8936 18.1244 35.1095 18.0814 35.2303 18.0393C35.1395 18.2197 35.0067 18.5162 34.8957 18.92C34.8866 18.9069 34.8743 18.8943 34.8537 18.8828C34.7861 18.8441 34.4655 18.8291 34.1492 18.8765C34.0089 18.8961 33.8724 18.9279 33.758 18.9624C33.794 18.7844 33.834 18.6148 33.8762 18.4586C33.9036 18.3571 33.9337 18.2638 33.9645 18.1744ZM33.6127 20.6612C33.7345 20.6744 33.9104 20.6769 34.0859 20.6641C34.3661 20.6451 34.642 20.5871 34.6936 20.534C34.7018 20.5253 34.7076 20.5167 34.7127 20.5081C34.7194 20.6826 34.7347 20.8625 34.7618 21.0469C34.7936 21.2685 34.843 21.4966 34.9085 21.7265C34.7813 21.7177 34.5854 21.7203 34.3884 21.7259C34.1426 21.734 33.8984 21.7465 33.7914 21.7765C33.6925 21.4285 33.6286 21.0487 33.6127 20.6612ZM33.6984 19.2953C33.8287 19.2791 34.0166 19.2457 34.2057 19.2197C34.4862 19.178 34.7657 19.1526 34.8468 19.1119C34.7875 19.3598 34.7419 19.6405 34.7217 19.9502C34.7119 20.0818 34.7089 20.2198 34.7102 20.3607C34.7003 20.3425 34.6849 20.3262 34.6577 20.3135C34.5936 20.2847 34.3229 20.2998 34.0539 20.3178C33.8882 20.3297 33.7231 20.3429 33.6069 20.3616C33.6092 19.9972 33.6441 19.6353 33.6984 19.2953ZM33.879 22.0512C34.0082 22.0702 34.2065 22.0799 34.4066 22.0732C34.6444 22.0663 34.8785 22.0364 34.9942 21.999C35.023 22.0819 35.0526 22.1648 35.0866 22.2475C35.1611 22.433 35.2507 22.6213 35.3609 22.8027C35.2433 22.7989 35.0656 22.8104 34.8877 22.8314C34.7526 22.8475 34.6287 22.8684 34.5379 22.8768C34.4464 22.8865 34.3838 22.8868 34.3553 22.9017C34.3407 22.9098 34.3316 22.9209 34.3217 22.9316C34.2519 22.8288 34.1815 22.7149 34.1147 22.5884C34.0267 22.4276 33.9481 22.2456 33.879 22.0512ZM35.5873 23.5727C35.3477 23.5634 35.1092 23.5414 34.9174 23.5196C34.8861 23.517 34.8583 23.5137 34.8321 23.5101C34.7697 23.464 34.6665 23.3785 34.5451 23.2296C34.5349 23.2172 34.5238 23.2024 34.5133 23.1894C34.523 23.1906 34.5315 23.1926 34.5416 23.1935C34.6644 23.2051 34.8061 23.1909 34.9363 23.1758C35.2017 23.1444 35.4642 23.0924 35.5149 23.0411C35.5165 23.0393 35.5173 23.0376 35.5188 23.0358C35.6145 23.1627 35.7225 23.2839 35.848 23.3944C35.9256 23.4619 36.0121 23.522 36.1034 23.5759C35.944 23.5799 35.7656 23.5812 35.5873 23.5727ZM38.4094 20.4971C38.3881 20.7248 38.3619 20.9534 38.3294 21.1828C38.2602 21.6419 38.1937 22.1095 38.0282 22.5228C37.8691 22.9355 37.5775 23.2846 37.1815 23.3949C36.9867 23.4531 36.7768 23.4583 36.5844 23.4109C36.391 23.3634 36.2129 23.2608 36.0592 23.1282C35.7512 22.858 35.5377 22.4841 35.3858 22.1087C35.2289 21.7331 35.129 21.3521 35.0726 20.9875C35.0156 20.6228 35.0016 20.2737 35.0203 19.9551C35.0364 19.6364 35.0775 19.3468 35.135 19.096C35.2448 18.5938 35.3968 18.2441 35.4702 18.0592C35.5202 17.9737 35.5941 17.8502 35.703 17.7074C35.8126 17.5656 35.9603 17.4025 36.1681 17.2805C36.3743 17.1573 36.6431 17.086 36.9398 17.1276C37.2317 17.1675 37.5527 17.3122 37.7906 17.5538C38.0197 17.7988 38.1572 18.174 38.2541 18.5691C38.3474 18.9702 38.425 19.3994 38.4367 19.8331C38.443 20.0517 38.432 20.2696 38.4094 20.4971Z" fill="white"/>
</g>
<defs>
<clipPath id="clip0_4288_3107">
<rect width="36.8979" height="44.6932" fill="white" transform="translate(18.5063 12.1261)"/>
</clipPath>
</defs>
</svg>
