<svg width="13" height="12" viewBox="0 0 13 12" fill="none" xmlns="http://www.w3.org/2000/svg">
<path d="M6.38873 1.13211C6.53854 0.982481 6.74162 0.898437 6.95336 0.898437C7.16509 0.898437 7.36817 0.982481 7.51798 1.13211L12.0456 5.65976C12.1953 5.80957 12.2793 6.01265 12.2793 6.22438C12.2793 6.43611 12.1953 6.63919 12.0456 6.789L7.51798 11.3167C7.36655 11.458 7.16616 11.5349 6.95907 11.5314C6.75198 11.5278 6.55437 11.4439 6.40791 11.2975C6.26145 11.151 6.1776 10.9534 6.17402 10.7463C6.17044 10.5392 6.24742 10.3388 6.38873 10.1874L9.55276 7.02338L0.799486 7.02338C0.587579 7.02338 0.384351 6.9392 0.234509 6.78935C0.0846689 6.63951 0.000488039 6.43629 0.000488048 6.22438C0.000488058 6.01247 0.0846689 5.80924 0.234509 5.6594C0.384351 5.50956 0.587579 5.42538 0.799486 5.42538L9.55276 5.42538L6.38873 2.26136C6.23911 2.11154 6.15506 1.90847 6.15506 1.69673C6.15506 1.485 6.23911 1.28192 6.38873 1.13211Z" fill="#025556"/>
</svg>
