<svg width="376" height="345" viewBox="0 0 376 345" fill="none" xmlns="http://www.w3.org/2000/svg">
<path d="M250.349 103.766C251.214 103.266 252.329 103.521 252.888 104.365C253.468 105.242 253.227 106.423 252.35 107.003C249.004 109.217 245.881 111.589 243.067 114.055C242.279 114.747 241.074 114.668 240.381 113.877C239.688 113.086 239.767 111.884 240.558 111.191C243.5 108.613 246.761 106.135 250.249 103.828C250.282 103.806 250.315 103.785 250.349 103.766ZM262.769 96.688C262.806 96.6668 262.844 96.6468 262.882 96.6274C266.324 94.933 270.04 93.2923 273.927 91.751C274.904 91.3636 276.011 91.8416 276.398 92.8192C276.786 93.7966 276.312 94.9025 275.33 95.2906C271.537 96.7946 267.915 98.3938 264.564 100.044C263.621 100.508 262.48 100.12 262.016 99.1767C261.57 98.2721 261.909 97.1853 262.769 96.688ZM287.162 87.1032C287.281 87.0345 287.408 86.9781 287.544 86.935C291.648 85.6438 295.451 84.5907 299.169 83.716C300.193 83.4756 301.218 84.1099 301.459 85.1336C301.7 86.1574 301.064 87.1827 300.041 87.4229C296.414 88.2756 292.701 89.3041 288.688 90.5671C287.685 90.883 286.616 90.3259 286.3 89.3226C286.027 88.4561 286.406 87.5396 287.162 87.1032ZM231.073 121.379C231.715 121.008 232.543 121.033 233.173 121.508C234.012 122.141 234.18 123.335 233.547 124.174C231.227 127.249 229.209 130.562 227.547 134.021C227.092 134.968 225.954 135.368 225.007 134.913C224.059 134.457 223.66 133.32 224.115 132.372C225.885 128.686 228.036 125.157 230.506 121.881C230.665 121.671 230.859 121.503 231.073 121.379ZM312.743 81.4804C312.967 81.3507 313.222 81.2652 313.496 81.2362C317.679 80.7978 321.775 80.6469 325.668 80.788C326.719 80.8263 327.54 81.7092 327.502 82.7599C327.464 83.8103 326.581 84.6313 325.53 84.5936C321.815 84.4586 317.899 84.6032 313.893 85.0236C312.847 85.1331 311.911 84.3744 311.801 83.3287C311.72 82.5571 312.112 81.8449 312.743 81.4804ZM220.362 145.085C220.745 144.864 221.205 144.775 221.673 144.864C222.705 145.062 223.382 146.06 223.184 147.092C222.441 150.971 222.197 154.798 222.46 158.466C222.536 159.514 221.747 160.426 220.697 160.501C219.648 160.576 218.737 159.787 218.662 158.738C218.376 154.74 218.639 150.581 219.444 146.376C219.553 145.811 219.901 145.352 220.362 145.085ZM338.784 83.059C339.202 82.8174 339.711 82.7337 340.216 82.865C344.287 83.9238 348.166 85.3689 351.742 87.1604C352.682 87.6311 353.063 88.775 352.592 89.7154C352.121 90.6556 350.977 91.0356 350.037 90.5648C346.698 88.893 343.071 87.5419 339.257 86.5503C338.24 86.2858 337.629 85.2463 337.894 84.2284C338.027 83.7151 338.358 83.305 338.784 83.059ZM491.604 12.6501C492.475 12.1465 493.598 12.4091 494.152 13.2632C494.725 14.1454 494.474 15.3245 493.591 15.8969C490.338 18.0072 487.124 20.3066 484.037 22.7315C483.21 23.3775 482.013 23.2371 481.364 22.4104C480.714 21.5832 480.858 20.3866 481.685 19.7368C484.862 17.2417 488.17 14.875 491.519 12.7023C491.547 12.6842 491.575 12.6666 491.604 12.6501ZM504.018 5.55758C504.052 5.53754 504.088 5.5187 504.124 5.50034C507.768 3.68884 511.504 2.06065 515.228 0.661166C516.212 0.290957 517.31 0.78912 517.68 1.77347C518.049 2.75767 517.552 3.85557 516.567 4.22532C512.964 5.57985 509.348 7.15592 505.819 8.9103C504.878 9.37838 503.735 8.99441 503.267 8.05281C502.817 7.1477 503.154 6.0565 504.018 5.55758ZM1.56705 296.485C1.57456 296.48 1.5822 296.476 1.5897 296.472C4.40344 294.896 7.19332 293.416 9.88189 292.072C10.6589 291.683 11.436 291.29 12.213 290.895C13.1501 290.418 14.2961 290.791 14.7734 291.729C15.2501 292.666 14.8795 293.818 13.9394 294.289C13.1553 294.688 12.3706 295.084 11.5854 295.477C8.94908 296.795 6.2123 298.247 3.45036 299.794C2.53312 300.308 1.37255 299.981 0.858902 299.064C0.349265 298.154 0.666865 297.005 1.56705 296.485ZM24.8244 284.352C24.8501 284.337 24.8766 284.323 24.9034 284.309C27.8196 282.8 31.6751 280.828 35.6394 278.96C36.5903 278.512 37.7249 278.92 38.1733 279.871C38.6214 280.823 38.2141 281.958 37.2624 282.405C33.3551 284.246 29.5401 286.197 26.6533 287.691C25.7196 288.174 24.5706 287.809 24.0875 286.875C23.6181 285.968 23.9493 284.858 24.8244 284.352ZM223.234 170.698C223.272 170.676 223.311 170.655 223.352 170.636C224.296 170.173 225.436 170.565 225.899 171.509C225.977 171.67 226.057 171.831 226.139 171.991C226.416 172.533 226.71 173.074 227.014 173.6C228.444 176.075 230.25 178.495 232.381 180.794C233.095 181.565 233.05 182.77 232.279 183.485C231.509 184.196 230.303 184.154 229.588 183.383C227.264 180.876 225.289 178.225 223.717 175.505C223.381 174.922 223.054 174.323 222.749 173.724C222.657 173.545 222.567 173.364 222.478 173.182C222.036 172.278 222.375 171.194 223.234 170.698ZM471.146 29.0045C471.883 28.5787 472.842 28.6886 473.462 29.3265C474.196 30.0801 474.179 31.2857 473.425 32.0189C470.624 34.7443 467.912 37.6238 465.366 40.5774C464.682 41.3742 463.478 41.4634 462.681 40.7765C461.885 40.0903 461.796 38.888 462.482 38.0913C465.101 35.0538 467.889 32.0923 470.77 29.2895C470.886 29.177 471.012 29.0819 471.146 29.0045ZM48.6902 273.519C48.7896 273.461 48.8957 273.412 49.0075 273.372C53.0817 271.925 56.9053 270.828 60.6978 270.018C61.726 269.798 62.7379 270.454 62.9576 271.482C63.1774 272.51 62.5208 273.522 61.4934 273.742C57.865 274.517 54.1978 275.569 50.2822 276.96C49.2913 277.312 48.2028 276.794 47.8509 275.803C47.5386 274.925 47.9108 273.969 48.6902 273.519ZM361.593 95.4095C362.314 94.993 363.251 95.0871 363.876 95.6975C365.856 97.6329 367.628 99.7434 369.143 101.97C369.722 102.821 370.29 103.728 370.831 104.664C371.015 104.982 371.195 105.302 371.371 105.623C371.877 106.545 371.552 107.711 370.617 108.207C369.695 108.713 368.537 108.376 368.032 107.454C367.869 107.157 367.703 106.862 367.534 106.57C367.04 105.714 366.522 104.887 365.994 104.112C364.622 102.094 363.014 100.179 361.214 98.4205C360.462 97.6857 360.448 96.4802 361.184 95.7283C361.308 95.6008 361.446 95.4946 361.593 95.4095ZM454.228 49.0068C454.844 48.6504 455.636 48.6562 456.262 49.0872C457.128 49.6838 457.346 50.8693 456.749 51.7353C454.515 54.9778 452.428 58.3331 450.546 61.7078C450.033 62.6253 448.873 62.9547 447.955 62.4429C447.037 61.9305 446.708 60.7709 447.22 59.8524C449.161 56.3738 451.312 52.9159 453.614 49.5748C453.779 49.3344 453.99 49.1438 454.228 49.0068ZM74.3397 268.636C74.6142 268.477 74.932 268.385 75.272 268.382C79.3868 268.341 83.4937 268.655 87.4778 269.315C88.5153 269.486 89.217 270.467 89.0452 271.504C88.8733 272.542 87.8937 273.242 86.8557 273.071C83.0892 272.447 79.2044 272.15 75.3095 272.189C74.2582 272.2 73.3975 271.356 73.387 270.304C73.38 269.593 73.7645 268.968 74.3397 268.636ZM125.793 253.231C126.091 253.059 126.39 252.887 126.689 252.718C127.604 252.199 128.766 252.519 129.285 253.434C129.801 254.344 129.486 255.499 128.582 256.022C128.577 256.025 128.573 256.027 128.569 256.029C125.221 257.928 121.871 260.022 118.586 262.258C117.706 262.849 116.532 262.624 115.941 261.755C115.35 260.885 115.575 259.701 116.444 259.11C119.521 257.016 122.666 255.038 125.793 253.231ZM139.466 246.33C139.529 246.294 139.595 246.26 139.664 246.23C143.395 244.616 147.196 243.188 150.962 241.986L151.017 241.969C152.022 241.659 153.088 242.222 153.398 243.227C153.707 244.232 153.145 245.298 152.14 245.608L151.578 243.788L152.13 245.611C148.473 246.777 144.792 248.161 141.177 249.725C140.212 250.143 139.091 249.699 138.673 248.734C138.285 247.838 138.64 246.807 139.466 246.33ZM441.722 72.0165C442.214 71.7321 442.827 71.6703 443.395 71.9017C444.368 72.2988 444.835 73.4099 444.438 74.3836C442.948 78.0369 441.66 81.761 440.61 85.452C440.322 86.4627 439.269 87.0497 438.258 86.7625C437.247 86.4746 436.66 85.4217 436.948 84.4104C438.035 80.5853 439.369 76.7278 440.913 72.9453C441.078 72.5389 441.369 72.2204 441.722 72.0165ZM105.106 267.596C105.901 267.136 106.934 267.308 107.533 268.042C108.197 268.857 108.075 270.056 107.26 270.721C105.926 271.809 104.59 272.932 103.261 274.083C106.559 275.604 109.616 277.41 112.369 279.465C113.212 280.094 113.385 281.287 112.756 282.13C112.128 282.971 110.935 283.145 110.092 282.516C107.136 280.311 103.791 278.411 100.15 276.87C100.142 276.867 100.134 276.864 100.127 276.86C99.5381 277.394 98.9512 277.933 98.368 278.475C97.598 279.191 96.3932 279.147 95.6772 278.377C94.9611 277.607 95.0048 276.403 95.7748 275.686C98.7477 272.922 101.802 270.259 104.854 267.77C104.934 267.704 105.019 267.646 105.106 267.596ZM240.93 189.667C241.548 189.31 242.342 189.317 242.968 189.751C245.748 191.677 248.919 193.656 252.948 195.977C253.859 196.502 254.172 197.666 253.648 198.578C253.122 199.489 251.959 199.802 251.047 199.277C246.924 196.901 243.668 194.869 240.799 192.881C239.935 192.282 239.72 191.096 240.318 190.231C240.484 189.993 240.694 189.804 240.93 189.667ZM164.509 238.718C164.696 238.61 164.906 238.532 165.132 238.492C169.146 237.786 173.202 237.313 177.189 237.084C178.239 237.024 179.139 237.826 179.199 238.876C179.259 239.926 178.457 240.826 177.407 240.886C173.568 241.106 169.66 241.562 165.791 242.243C164.755 242.424 163.768 241.733 163.586 240.697C163.444 239.887 163.836 239.107 164.509 238.718ZM374.234 118.085C374.339 118.024 374.452 117.973 374.571 117.932C375.565 117.591 376.648 118.12 376.989 119.115C377.247 119.865 377.502 120.616 377.757 121.368C378.757 124.312 379.792 127.357 380.957 130.252C381.35 131.228 380.879 132.341 379.903 132.73C378.927 133.123 377.818 132.65 377.425 131.675C376.22 128.682 375.169 125.586 374.152 122.592C373.898 121.845 373.644 121.097 373.388 120.351C373.087 119.476 373.462 118.531 374.234 118.085ZM86.0646 285.607C86.7544 285.209 87.6493 285.273 88.2786 285.83C89.0666 286.527 89.1402 287.73 88.4435 288.517C85.6157 291.714 83.3119 294.733 81.3999 297.746C80.8367 298.634 79.6601 298.898 78.7723 298.334C77.8842 297.771 77.621 296.595 78.1845 295.707C80.2057 292.521 82.6284 289.344 85.5912 285.995C85.7314 285.837 85.8917 285.707 86.0646 285.607ZM190.639 237.587C190.97 237.396 191.361 237.302 191.771 237.342C195.872 237.733 199.915 238.404 203.787 239.337C204.809 239.583 205.438 240.612 205.192 241.634C204.946 242.656 203.917 243.285 202.895 243.039C199.197 242.148 195.333 241.506 191.409 241.132C190.362 241.032 189.595 240.103 189.695 239.056C189.755 238.419 190.124 237.885 190.639 237.587ZM434.908 97.2744C435.259 97.0712 435.679 96.9783 436.112 97.0366C437.155 97.1767 437.886 98.1348 437.746 99.177C437.34 102.199 437.041 105.312 436.751 108.322C436.666 109.205 436.581 110.087 436.493 110.969C436.389 112.015 435.457 112.779 434.411 112.675C433.364 112.571 432.6 111.639 432.704 110.592C432.791 109.714 432.876 108.836 432.961 107.958C433.254 104.912 433.557 101.763 433.972 98.6704C434.054 98.0619 434.414 97.5594 434.908 97.2744ZM73.0154 308.083C73.4304 307.843 73.9352 307.759 74.436 307.886C75.4552 308.144 76.072 309.18 75.8137 310.199C74.8715 313.914 74.571 317.775 74.9445 321.363C75.053 322.409 74.2937 323.345 73.248 323.454C72.2023 323.563 71.2659 322.803 71.1572 321.757C70.7376 317.728 71.0714 313.408 72.1224 309.263C72.2539 308.745 72.5865 308.331 73.0154 308.083ZM263.461 203.092C264.04 202.757 264.778 202.738 265.393 203.106C269.428 205.523 272.637 207.657 275.492 209.823C276.329 210.458 276.493 211.652 275.858 212.49C275.223 213.327 274.029 213.492 273.19 212.856C270.449 210.777 267.35 208.716 263.437 206.373C262.535 205.833 262.241 204.664 262.781 203.762C262.954 203.474 263.19 203.248 263.461 203.092ZM120.072 289.665C120.942 289.162 122.064 289.423 122.618 290.275C122.723 290.435 122.827 290.596 122.93 290.759C123.189 291.168 123.443 291.588 123.686 292.007C125.42 295.008 126.736 298.283 127.598 301.739C127.852 302.759 127.231 303.793 126.211 304.047C125.191 304.301 124.158 303.68 123.903 302.66C123.128 299.549 121.945 296.606 120.389 293.912C120.173 293.538 119.945 293.162 119.714 292.797C119.619 292.648 119.524 292.5 119.428 292.353C118.854 291.472 119.103 290.293 119.984 289.719C120.013 289.7 120.042 289.682 120.072 289.665ZM385.324 141.68C386.116 141.222 387.146 141.391 387.746 142.122C390.331 145.271 393.188 147.655 396.237 149.208C397.174 149.686 397.546 150.832 397.069 151.769C396.592 152.706 395.445 153.079 394.509 152.601C390.989 150.809 387.723 148.096 384.803 144.537C384.136 143.725 384.254 142.525 385.066 141.858C385.149 141.79 385.235 141.731 385.324 141.68ZM215.903 244.16C216.417 243.863 217.062 243.81 217.644 244.074C217.982 244.227 218.318 244.383 218.654 244.542C221.536 245.903 224.522 247.531 228.333 249.819C229.234 250.36 229.527 251.53 228.985 252.432C228.444 253.335 227.274 253.625 226.373 253.084C222.674 250.863 219.792 249.29 217.027 247.984C216.71 247.834 216.391 247.687 216.071 247.542C215.114 247.108 214.689 245.979 215.123 245.022C215.294 244.646 215.571 244.352 215.903 244.16ZM431.571 123.279C431.971 123.047 432.457 122.96 432.944 123.071C433.969 123.303 434.612 124.322 434.38 125.348C433.75 128.128 433.001 130.644 432.089 133.039C431.577 134.383 430.975 135.726 430.3 137.03C429.816 137.964 428.668 138.329 427.734 137.846C426.8 137.362 426.435 136.214 426.918 135.28C427.527 134.103 428.07 132.893 428.53 131.684C429.378 129.458 430.077 127.111 430.666 124.507C430.788 123.968 431.127 123.535 431.571 123.279ZM77.2346 333.055C78.0348 332.593 79.0746 332.77 79.6704 333.513C80.0623 334.002 80.4807 334.475 80.9135 334.92C82.9552 337.015 85.494 338.59 88.4592 339.603C89.4539 339.942 89.9854 341.024 89.6456 342.02C89.3055 343.014 88.2232 343.546 87.2285 343.206C83.6922 341.999 80.6498 340.105 78.1862 337.577C77.6682 337.045 77.1681 336.48 76.7001 335.896C76.0423 335.076 76.1738 333.878 76.9943 333.22C77.0712 333.158 77.1519 333.103 77.2346 333.055ZM283.66 219.59C284.47 219.122 285.521 219.31 286.113 220.069C286.594 220.686 287.062 221.32 287.503 221.952C288.043 222.725 288.559 223.537 289.037 224.364C290.256 226.473 291.265 228.739 292.035 231.098C292.362 232.097 291.813 233.174 290.816 233.498C289.817 233.825 288.742 233.279 288.415 232.279C287.727 230.172 286.827 228.15 285.74 226.269C285.316 225.535 284.859 224.817 284.381 224.132C283.977 223.554 283.55 222.975 283.11 222.41C282.463 221.581 282.611 220.385 283.44 219.738C283.511 219.683 283.585 219.633 283.66 219.59ZM408.315 151.047C408.477 150.954 408.655 150.882 408.846 150.839C412.19 150.078 415.524 148.358 418.557 145.833C419.363 145.16 420.566 145.27 421.239 146.078C421.912 146.886 421.802 148.086 420.994 148.759C417.499 151.67 413.62 153.659 409.69 154.552C408.665 154.785 407.645 154.143 407.412 153.118C407.222 152.284 407.612 151.453 408.315 151.047ZM125.524 314.751C125.883 314.544 126.311 314.452 126.753 314.517C127.793 314.67 128.512 315.637 128.359 316.677C127.732 320.948 126.392 324.95 124.375 328.57C123.863 329.49 122.704 329.819 121.785 329.307C120.867 328.796 120.537 327.636 121.048 326.718C122.84 323.501 124.032 319.937 124.592 316.124C124.68 315.525 125.038 315.032 125.524 314.751ZM238.643 257.207C239.21 256.88 239.929 256.853 240.539 257.2C244.136 259.248 247.203 260.758 250.19 261.95C250.456 262.056 250.721 262.159 250.989 262.259C251.973 262.629 252.471 263.727 252.102 264.711C251.732 265.695 250.634 266.194 249.65 265.824C249.357 265.714 249.066 265.601 248.777 265.486C245.625 264.227 242.408 262.646 238.655 260.509C237.741 259.989 237.422 258.826 237.942 257.913C238.116 257.608 238.36 257.37 238.643 257.207ZM101.019 340.605C101.203 340.499 101.407 340.422 101.627 340.381C104.942 339.769 108.21 338.57 111.077 336.913C111.391 336.732 111.702 336.545 112.008 336.352C112.9 335.804 114.073 336.059 114.634 336.948C115.194 337.838 114.927 339.014 114.037 339.574C113.69 339.793 113.338 340.005 112.982 340.211C109.743 342.082 106.056 343.436 102.318 344.126C101.284 344.317 100.291 343.633 100.1 342.599C99.95 341.785 100.341 340.996 101.019 340.605ZM290.672 244.161C291.024 243.958 291.444 243.865 291.878 243.924C292.92 244.064 293.651 245.023 293.51 246.065C292.907 250.534 291.361 254.526 288.914 257.929C288.301 258.784 287.111 258.977 286.257 258.363C285.403 257.75 285.209 256.56 285.823 255.706C287.901 252.815 289.218 249.4 289.737 245.556C289.819 244.948 290.179 244.446 290.672 244.161ZM263.336 265.203C263.632 265.032 263.977 264.938 264.343 264.949C268.352 265.068 272.068 264.533 275.387 263.361C276.379 263.011 277.466 263.53 277.817 264.522C278.167 265.513 277.648 266.601 276.656 266.951C272.892 268.281 268.712 268.888 264.231 268.755C263.18 268.724 262.353 267.847 262.384 266.796C262.404 266.111 262.784 265.522 263.336 265.203Z" fill="#04D1D2"/>
</svg>
