<svg width="318" height="13" viewBox="0 0 318 13" fill="none" xmlns="http://www.w3.org/2000/svg">
<path d="M192.307 11.8763C172.281 12.2214 147.301 12.44 122.332 12.4334C92.9278 12.4257 63.5201 12.4046 34.163 11.692C26.2855 11.5008 18.4024 11.3593 10.5221 11.1924C6.02139 11.097 3.9065 10.0908 2.76457 7.53297C2.10716 6.06045 1.99698 4.49172 0.914574 3.0983C0.221677 2.20632 0.941341 2.12438 2.15054 2.14711C8.25946 2.26188 14.369 2.37075 20.4798 2.46563C36.5456 2.71499 52.6064 3.03771 68.6798 3.18232C96.7906 3.43519 124.914 3.46264 153.049 3.27244C190.471 3.01942 227.89 2.36163 265.309 1.30971C277.946 0.954475 290.582 0.577095 303.218 0.204027C306.718 0.100673 310.099 0.285633 313.226 1.28613C315.652 2.06242 317.01 3.25493 317.326 4.89351C317.846 7.58363 315.54 9.22982 311.005 9.35575C273.094 10.4085 235.181 11.307 192.307 11.8763ZM172.962 7.56782C175.32 7.50571 177.679 7.4527 180.036 7.36966C180.323 7.35957 180.906 7.51968 180.882 7.13232C180.875 7.01396 180.508 6.82321 180.281 6.81322C177.541 6.69249 174.862 5.82819 172.144 6.2622C169.049 6.75665 166.081 7.2256 162.937 6.68773C162.495 6.61206 161.639 6.54157 161.57 7.01333C161.525 7.32447 162.262 7.3571 162.706 7.42685C166.078 7.95658 169.532 7.66806 172.962 7.56782ZM215.531 7.22572C217.199 7.13671 218.873 7.08339 220.531 6.94017C221.144 6.88713 222.126 6.77531 222.041 6.28174C221.946 5.73245 220.9 5.85646 220.38 5.9744C217.934 6.52983 215.525 6.15583 213.106 6.0908C211.52 6.04814 209.963 6.19212 208.414 6.38084C207.945 6.43792 207.512 6.59087 207.335 6.90175C207.713 6.94671 208.087 7.00907 208.47 7.03381C210.811 7.1852 213.16 7.28389 215.531 7.22572ZM248.31 6.67348C250.392 6.63709 252.006 6.38802 253.435 5.80442C253.999 5.57388 254.037 5.20574 253.629 4.87351C253.49 4.7596 253.202 4.50461 253.037 4.78453C252.139 6.3083 250.206 5.58994 248.607 5.64282C247.259 5.68741 245.877 5.70333 244.718 6.2544C245.949 6.67108 247.319 6.67464 248.31 6.67348ZM195.795 7.66649C197.147 7.58465 198.666 7.70982 198.695 7.0987C198.724 6.45962 197.205 6.60544 196.298 6.61855C194.977 6.63762 193.555 6.52321 192.545 7.27778C193.756 7.42269 194.968 7.56759 195.795 7.66649ZM288.958 5.25713C289.846 5.25454 290.718 5.20112 291.535 4.94659C291.955 4.81567 292.582 4.76607 292.546 4.40633C292.501 3.96068 291.824 4.15421 291.415 4.14186C290.121 4.10276 288.896 4.32924 287.701 4.62514C287.342 4.71415 286.88 4.8109 286.898 5.07363C286.921 5.41734 287.465 5.26147 287.786 5.28035C288.171 5.30291 288.567 5.26751 288.958 5.25713ZM275.355 6.8721C276.078 6.37712 276.706 5.84805 276.684 5.15397C276.673 4.81932 276.259 4.50891 275.789 4.5979C274.235 4.89204 275.048 5.79498 274.626 6.39451C274.472 6.61276 274.935 6.78295 275.355 6.8721ZM270.043 5.44731C271.052 5.29509 272.416 5.419 272.992 4.71405C273.212 4.44513 272.263 4.24604 271.671 4.30969C270.541 4.43125 269.293 4.56595 268.805 5.2739C268.65 5.49824 269.545 5.38571 270.043 5.44731ZM278.678 2.98924C279.472 2.86796 280.363 2.83413 281.065 2.46561C281.167 2.41196 281.206 2.18998 281.142 2.16497C280.312 1.84073 279.481 2.09034 278.643 2.22469C278.175 2.29969 277.684 2.31739 277.213 2.38714C277.005 2.41795 276.55 2.36154 276.75 2.64626C276.81 2.73197 277.024 2.80444 277.192 2.82843C277.657 2.89497 278.135 2.93277 278.678 2.98924Z" fill="#04D1D2"/>
</svg>
