<svg width="57" height="5" viewBox="0 0 57 5" fill="none" xmlns="http://www.w3.org/2000/svg">
<path d="M34.3129 4.41852C30.8296 4.447 26.4838 4.40907 22.1388 4.29304C17.0221 4.15641 11.9046 4.01511 6.79285 3.6342C5.42119 3.53198 4.04877 3.447 2.67673 3.35319C1.89312 3.29961 1.52052 2.94093 1.31016 2.04848C1.18905 1.53469 1.16273 0.990027 0.96803 0.501742C0.843394 0.189174 0.968251 0.164027 1.17877 0.177422C2.24233 0.24506 3.30598 0.310659 4.36976 0.371406C7.16657 0.53109 9.96283 0.7162 12.7605 0.83958C17.6533 1.05535 22.5473 1.19299 27.4423 1.25518C33.953 1.33788 40.4615 1.28016 46.9682 1.08572C49.1655 1.02006 51.3626 0.946719 53.5598 0.87487C54.1684 0.854961 54.7575 0.934521 55.3062 1.29582C55.7319 1.57615 55.9735 1.996 56.0361 2.56583C56.1388 3.50136 55.7451 4.06189 54.9565 4.08491C48.3643 4.2774 41.7709 4.41638 34.3129 4.41852ZM30.9269 2.83587C31.337 2.82507 31.7473 2.81743 32.1571 2.79936C32.2069 2.79717 32.3092 2.85537 32.3032 2.72089C32.3014 2.6798 32.2367 2.61196 32.1972 2.60746C31.7198 2.5531 31.2496 2.24108 30.7787 2.37926C30.2423 2.53667 29.728 2.68582 29.1785 2.48492C29.1012 2.45666 28.952 2.42831 28.9421 2.59164C28.9356 2.69936 29.0641 2.71404 29.1417 2.74026C29.7308 2.93937 30.3305 2.85502 30.9269 2.83587ZM38.333 2.91113C38.6228 2.88785 38.914 2.87698 39.2017 2.83485C39.3082 2.81925 39.4786 2.78493 39.4616 2.61333C39.4425 2.42236 39.261 2.46061 39.1712 2.49916C38.7479 2.68068 38.3271 2.53997 37.9058 2.50639C37.6296 2.48437 37.3595 2.52722 37.0906 2.58563C37.0094 2.60329 36.9347 2.65438 36.9053 2.76141C36.9713 2.77873 37.0367 2.80207 37.1034 2.81239C37.5115 2.87557 37.9206 2.9205 38.333 2.91113ZM44.0345 2.86889C44.3966 2.86574 44.6763 2.7867 44.9223 2.59077C45.0195 2.51337 45.0244 2.38584 44.9519 2.26874C44.9271 2.22859 44.8759 2.13882 44.8485 2.23517C44.6991 2.75965 44.3594 2.50166 44.0815 2.51272C43.847 2.52204 43.6066 2.52127 43.4074 2.70715C43.6236 2.8573 43.862 2.86477 44.0345 2.86889ZM34.9006 2.97411C35.1356 2.95189 35.4005 3.00223 35.4026 2.79037C35.4049 2.56882 35.1413 2.61248 34.9834 2.61289C34.7537 2.61349 34.5056 2.56733 34.3334 2.82448C34.5448 2.88026 34.7563 2.93604 34.9006 2.97411ZM51.1013 2.56274C51.2559 2.56589 51.4074 2.55133 51.5483 2.46676C51.6208 2.42326 51.7297 2.40891 51.7217 2.28396C51.7119 2.12917 51.595 2.19321 51.5238 2.18707C51.2985 2.16761 51.0863 2.24059 50.8797 2.33779C50.8176 2.36703 50.7377 2.39849 50.742 2.4897C50.7476 2.60904 50.8416 2.55745 50.8975 2.56546C50.9645 2.57503 51.0334 2.56456 51.1013 2.56274ZM48.7415 3.06098C48.8652 2.89258 48.972 2.71191 48.965 2.47104C48.9616 2.35491 48.8881 2.24535 48.8067 2.27408C48.5376 2.36903 48.6833 2.68595 48.6125 2.89199C48.5868 2.967 48.6681 3.02814 48.7415 3.06098ZM47.8107 2.54255C47.9856 2.49434 48.2236 2.54354 48.3206 2.30163C48.3576 2.20934 48.1915 2.13596 48.0889 2.15534C47.8927 2.19236 47.6762 2.2334 47.5945 2.47675C47.5686 2.55387 47.7238 2.51891 47.8107 2.54255ZM49.3021 1.72922C49.4398 1.69077 49.5946 1.68309 49.7151 1.55846C49.7327 1.54031 49.7385 1.46349 49.7272 1.45452C49.5812 1.33827 49.4378 1.42107 49.2925 1.46385C49.2114 1.48774 49.1261 1.49164 49.0445 1.51369C49.0084 1.52343 48.9289 1.50179 48.965 1.60146C48.9758 1.63147 49.0135 1.65758 49.0428 1.66667C49.124 1.69187 49.2073 1.70716 49.3021 1.72922Z" fill="#04D1D2"/>
</svg>
