<svg width="35" height="6" viewBox="0 0 35 6" fill="none" xmlns="http://www.w3.org/2000/svg">
<path d="M21.4385 4.98434C19.2636 4.97616 16.5493 4.88993 13.8346 4.72292C10.6378 4.52625 7.44047 4.32474 4.24411 3.87537C3.38641 3.75478 2.52843 3.65202 1.6706 3.54013C1.18066 3.47622 0.944097 3.10108 0.803082 2.17541C0.721899 1.6425 0.699575 1.07867 0.572709 0.57135C0.491496 0.246598 0.569197 0.221929 0.70081 0.238064C1.36572 0.319543 2.03067 0.398912 2.69565 0.473264C4.44395 0.668714 6.19218 0.890466 7.94062 1.04836C10.9985 1.3245 14.0562 1.51981 17.1138 1.63706C21.1805 1.793 25.2444 1.80363 29.3056 1.67279C30.6771 1.6286 32.0484 1.57646 33.4197 1.52587C33.7995 1.51185 34.1683 1.60053 34.5149 1.98029C34.7837 2.27494 34.9392 2.71195 34.9844 3.30222C35.0586 4.27129 34.8189 4.847 34.3267 4.8623C30.2119 4.9902 26.096 5.06273 21.4385 4.98434ZM19.3069 3.31022C19.5629 3.30348 19.819 3.30001 20.0748 3.28575C20.1059 3.28401 20.1704 3.34533 20.1652 3.20613C20.1636 3.16359 20.1225 3.0927 20.0977 3.08762C19.799 3.02622 19.502 2.6983 19.2095 2.83617C18.8762 2.99325 18.5566 3.14201 18.2113 2.92821C18.1627 2.89813 18.0692 2.86718 18.0648 3.03607C18.0619 3.14745 18.1423 3.16403 18.1911 3.192C18.5611 3.40438 18.9347 3.32359 19.3069 3.31022ZM23.9328 3.46814C24.1135 3.44718 24.2952 3.43908 24.4744 3.3986C24.5408 3.38361 24.6468 3.34995 24.6343 3.17221C24.6204 2.97442 24.5074 3.01203 24.4517 3.05094C24.1894 3.23418 23.9251 3.08405 23.6616 3.04475C23.4889 3.01898 23.3207 3.0604 23.1534 3.11793C23.1029 3.13532 23.0568 3.18737 23.0395 3.29779C23.081 3.31643 23.1221 3.34128 23.1638 3.35269C23.4194 3.42247 23.6753 3.47338 23.9328 3.46814ZM27.4929 3.48606C27.7189 3.48672 27.8928 3.40796 28.0443 3.20789C28.1041 3.12886 28.1058 2.99696 28.0593 2.87502C28.0433 2.83321 28.0104 2.73978 27.9943 2.83917C27.9067 3.38022 27.6918 3.10961 27.5183 3.11805C27.372 3.12517 27.2219 3.12176 27.0995 3.31193C27.2361 3.46962 27.3851 3.47993 27.4929 3.48606ZM21.79 3.49621C21.9365 3.47575 22.1024 3.5307 22.1015 3.31152C22.1005 3.08231 21.9363 3.12464 21.8378 3.12336C21.6943 3.1215 21.5389 3.07105 21.4341 3.33525C21.5668 3.39525 21.6994 3.45526 21.79 3.49621ZM31.9027 3.24569C31.9992 3.25061 32.0937 3.23718 32.1808 3.1512C32.2256 3.10698 32.2934 3.09331 32.2871 2.96394C32.2793 2.80368 32.207 2.86868 32.1625 2.86155C32.0216 2.83899 31.8898 2.9122 31.7619 3.01054C31.7234 3.04012 31.6738 3.07181 31.6775 3.16623C31.6823 3.28976 31.7404 3.2374 31.7754 3.24629C31.8174 3.25692 31.8603 3.24683 31.9027 3.24569ZM30.4344 3.73569C30.5098 3.56278 30.5745 3.37701 30.5676 3.12772C30.5642 3.00752 30.5171 2.89336 30.4666 2.92221C30.2996 3.01755 30.394 3.34703 30.352 3.55945C30.3367 3.63678 30.3882 3.70092 30.4344 3.73569ZM29.8475 3.18922C29.9562 3.14124 30.1053 3.19471 30.1633 2.94546C30.1854 2.85038 30.0809 2.77265 30.017 2.7916C29.895 2.82778 29.7602 2.86791 29.7118 3.11881C29.6965 3.19832 29.793 3.16383 29.8475 3.18922ZM30.7701 2.36382C30.8556 2.32552 30.9522 2.31925 31.0262 2.1916C31.0369 2.17301 31.0397 2.09359 31.0326 2.08419C30.9401 1.96233 30.8515 2.04645 30.7612 2.08915C30.7108 2.11298 30.6576 2.1161 30.6069 2.13803C30.5845 2.14772 30.5346 2.12447 30.5582 2.22799C30.5653 2.25915 30.5891 2.28658 30.6074 2.29629C30.6585 2.32325 30.7107 2.33997 30.7701 2.36382Z" fill="#B6F501"/>
</svg>
