<svg width="76" height="76" viewBox="0 0 76 76" fill="none" xmlns="http://www.w3.org/2000/svg">
<rect y="0.508789" width="75.082" height="75.082" rx="37.541" fill="#025556"/>
<rect y="0.508789" width="75.082" height="75.082" rx="37.541" fill="black" fill-opacity="0.2"/>
<g clip-path="url(#clip0_4288_3069)">
<path d="M53.2498 40.3857C53.1494 39.6927 53.0101 39.0742 52.8935 38.5334C52.7802 38.0023 52.6442 37.4551 52.3139 37.0956C51.9901 36.7362 51.6274 36.6196 51.4072 36.5613C51.0704 36.4803 50.8113 36.4836 50.6138 36.4868C50.4163 36.4933 50.277 36.5127 50.1766 36.5322C50.1669 36.5354 50.1604 36.5354 50.154 36.5386C50.0341 35.8295 49.9337 35.1591 49.9175 34.5341C49.8917 33.4493 49.8949 32.4033 49.571 31.6067C49.2699 30.8392 48.7874 30.4053 48.5024 30.2304C48.5995 30.1624 48.6935 30.0944 48.7906 30.0232C48.9881 29.871 49.1825 29.7674 49.4253 29.5277C49.5386 29.4112 49.6617 29.2298 49.6876 29.0031C49.7103 28.7732 49.6455 28.6048 49.6067 28.4818C49.435 27.9669 49.1857 27.4779 48.9039 27.0245C48.3308 26.1178 47.6572 25.3341 47.0452 24.5699C46.4267 23.8089 45.8373 23.09 45.3127 22.4488C44.7816 21.8109 44.3153 21.2539 43.9493 20.8102C43.577 20.3763 43.2985 20.0492 43.1009 19.897C42.8516 19.6963 42.654 19.625 42.5342 19.6088C42.5115 19.5279 42.4598 19.421 42.3464 19.3303C42.2298 19.2364 42.0194 19.136 41.757 19.1814C41.5919 19.2041 41.3749 19.3044 41.1677 19.4599C41.009 19.5797 40.8406 19.7157 40.6528 19.8679C40.6074 19.7708 40.4617 19.5894 40.0602 19.2202C39.8529 19.0324 39.4352 18.6892 38.8361 18.2747C38.535 18.0674 38.1852 17.844 37.7966 17.6108C37.5991 17.4942 37.3983 17.3809 37.1716 17.2611C37.0518 17.1995 36.9061 17.1315 36.715 17.1121C36.5175 17.0894 36.3038 17.1575 36.158 17.2578C35.8569 17.4683 35.7176 17.7177 35.5492 17.9249C35.3841 18.1451 35.2125 18.3686 35.0408 18.5953C35.0246 18.6147 35.0117 18.6341 34.9955 18.6535C34.9081 18.5693 34.7785 18.4592 34.5842 18.3103C34.4029 18.1678 34.0402 17.9087 33.5415 17.5687C33.2922 17.4003 33.0072 17.206 32.6995 16.9955C32.5441 16.8919 32.379 16.7818 32.2105 16.6685C32.0325 16.5584 31.9029 16.4321 31.6212 16.3187C31.5013 16.2637 31.2456 16.2216 31.0642 16.3155C30.9703 16.3576 30.8893 16.4288 30.8246 16.513C30.7565 16.6037 30.7339 16.6588 30.7048 16.7138C30.6011 16.9211 30.4975 17.1315 30.3906 17.3485C30.1769 17.7792 29.9632 18.2326 29.7495 18.6989C29.3155 19.6315 28.8913 20.6257 28.4865 21.6263C27.6737 23.6308 26.9775 25.6839 26.4885 27.3484C25.993 29.0161 25.7016 30.2952 25.6303 30.755C25.6206 30.8231 25.6141 30.8846 25.6077 30.9429C25.5526 30.9299 25.4943 30.9202 25.4199 30.9105C25.3259 30.9105 25.2093 30.8943 25.0798 30.9105C24.8111 30.9234 24.471 31.0012 24.0695 31.1793C23.8072 31.2991 23.4348 31.5031 23.0364 31.869C22.8454 32.0568 22.6381 32.277 22.4633 32.562C22.3791 32.7077 22.2949 32.8599 22.2301 33.038C22.1686 33.2064 22.1233 33.3781 22.0812 33.5626C21.9193 34.2977 21.9419 35.1494 22.0618 36.0335C22.1848 36.9208 22.3597 37.8501 22.5022 38.8605C22.8001 40.8682 23.0656 43.135 23.2405 45.5314C23.2858 46.1305 23.3247 46.7393 23.3571 47.3513C23.3927 47.9666 23.4218 48.5948 23.4866 49.2295C23.6129 50.4892 23.8817 51.8363 24.6459 52.9697C25.3907 54.1096 26.5176 54.9192 27.6769 55.4729C28.8459 56.0299 30.0668 56.3797 31.252 56.6582C33.616 57.2087 35.8925 57.5714 37.9326 57.7883C38.9527 57.8952 39.9112 57.9697 40.7952 58.015C41.6729 58.0603 42.4921 58.0895 43.2272 58.015C43.9591 57.9438 44.5938 57.7721 45.0795 57.5325C45.5685 57.2961 45.8988 57.0241 46.1061 56.8201C46.7084 56.2048 46.8541 55.677 46.8994 55.3985C46.9383 55.1135 46.893 55.0293 46.8509 55.0196C46.9059 54.8447 46.9513 54.6375 46.9804 54.3881C47.0128 54.0934 47.0355 53.6368 47.0452 53.041C47.2103 53.0701 47.4532 53.0863 47.7932 53.0377C47.9487 53.0151 48.1721 52.9665 48.4441 52.8855C48.7162 52.7981 49.0335 52.701 49.4091 52.5293C49.5969 52.4451 49.7945 52.335 49.992 52.1828C50.1863 52.0339 50.3709 51.8266 50.5101 51.5999C50.7886 51.1401 50.9505 50.6058 51.0542 50.0294C51.1513 49.453 51.174 48.8442 51.1772 48.2256C51.1805 47.6719 51.1772 47.0987 51.1643 46.5093C51.2679 46.4284 51.3683 46.341 51.4687 46.2568C51.8282 45.9459 52.1681 45.6026 52.4402 45.2076C52.9875 44.4142 53.2303 43.5204 53.3242 42.6914C53.4149 41.8592 53.3502 41.082 53.2498 40.3857ZM49.0497 31.8172C49.163 32.1508 49.231 32.5653 49.2537 33.0251C49.2829 33.4882 49.2666 34.0031 49.2764 34.573C49.2893 35.7258 49.5548 36.9661 49.7394 38.2549C49.8528 39.0127 49.9564 39.7964 50.0471 40.593C49.7977 40.9168 49.4318 41.2989 48.9072 41.6519C48.6384 41.8397 48.321 42.0081 47.9713 42.1571C47.9843 42.0502 47.9972 41.911 48.007 41.7264C48.0232 41.2892 47.9972 40.0457 47.7284 38.4233C47.6605 38.0153 47.5763 37.5878 47.4791 37.1442C47.4532 37.0309 47.424 36.8981 47.3496 36.7491C47.2816 36.6002 47.1423 36.4415 46.9836 36.3573C46.663 36.1889 46.3684 36.2083 46.1255 36.2019C45.1637 36.2083 44.1534 36.2213 43.143 36.2407C39.0984 36.3152 35.0602 36.5516 34.1989 36.6908C33.8232 36.7524 33.6483 36.8042 33.5641 36.8592C32.6834 36.7491 31.8446 36.6164 31.0675 36.435C29.4677 36.0982 28.1853 35.4538 27.2106 34.8742C26.9289 34.7058 26.6731 34.5406 26.4431 34.3819C26.5209 34.3949 26.6083 34.4046 26.7119 34.4176C27.6543 34.5212 32.0519 34.6572 36.4495 34.56C38.6483 34.5147 40.8374 34.4305 42.6119 34.3139C43.5057 34.2492 44.3153 34.0905 44.9176 33.8314C45.52 33.5788 45.9021 33.2615 46.0802 33.0801C46.3392 32.8146 46.4396 32.6106 46.485 32.4908C46.5238 32.3645 46.5076 32.3159 46.4655 32.29C46.4331 32.2673 46.3878 32.2706 46.2939 32.3418C46.1935 32.4066 46.051 32.5491 45.7758 32.7434C45.5944 32.8697 45.2447 33.1158 44.6974 33.3101C44.4319 33.4104 44.1178 33.4882 43.768 33.5497C43.781 33.54 43.7939 33.5335 43.8069 33.5238C44.189 33.2939 45.2156 32.5814 46.5659 31.6197C47.0452 31.2764 47.5698 30.9008 48.117 30.5057C48.1527 30.5348 48.1883 30.5607 48.2272 30.5931C48.4279 30.755 48.8165 31.1404 49.0497 31.8172ZM47.6572 42.2769H47.654C47.3075 42.4032 46.9253 42.5133 46.5206 42.6007C46.4979 42.4323 46.4752 42.2639 46.4493 42.0956C46.3684 41.6001 46.268 41.0949 46.1158 40.593C45.9636 40.0943 45.7758 39.5826 45.4746 39.1131C45.1831 38.6435 44.7654 38.1934 44.202 37.9505C43.6288 37.7044 43.0686 37.7077 42.5666 37.6558C40.5006 37.4842 38.4346 37.3094 36.4722 37.1442C36.3718 37.1345 36.2714 37.128 36.171 37.1183C37.9262 37.0762 40.5491 36.9952 43.1722 36.9467C44.1825 36.9272 45.1897 36.911 46.1482 36.8916C46.3781 36.8851 46.5756 36.9046 46.6598 36.9564C46.7019 36.9855 46.7213 37.0017 46.7505 37.06C46.7796 37.1151 46.8023 37.2057 46.8282 37.3126C46.9319 37.74 47.0225 38.1578 47.097 38.5496C47.3982 40.1234 47.4888 41.3346 47.5536 41.762C47.5892 42.0016 47.6248 42.1636 47.6572 42.2769ZM46.5918 29.0128C46.608 29.1003 46.6339 29.1812 46.6598 29.2525V29.2557C46.6534 29.2622 46.6436 29.2687 46.6209 29.2816L46.3586 29.4403C46.1838 29.5472 46.0121 29.654 45.8438 29.7577C45.5037 29.9714 45.1767 30.1883 44.8658 30.3956C44.2408 30.8198 43.6741 31.2311 43.1819 31.61C42.1942 32.3645 41.5109 32.9765 41.2519 33.2323C40.9928 33.4946 40.8665 33.6436 40.8147 33.7375C39.4449 33.7829 37.9294 33.8249 36.4171 33.8541C32.4955 33.9415 28.5772 33.9091 27.12 33.9448C27.1458 33.9286 27.1685 33.9156 27.1944 33.8962C27.8777 33.4396 30.8634 31.0594 33.7164 28.5239C36.5758 25.998 39.3251 23.3555 39.8724 22.7467C40.0699 22.5233 40.1735 22.3873 40.2188 22.3031C40.3128 22.3776 40.4649 22.4715 40.7208 22.5395C40.8601 22.5719 41.0867 22.6107 41.3847 22.5719C41.5336 22.5492 41.6987 22.5071 41.8736 22.4294C41.961 22.3905 42.0485 22.3387 42.1392 22.2804L42.1942 22.2416L42.2201 22.2189C42.246 22.2545 42.2719 22.2869 42.2979 22.3225C42.3723 22.4197 42.45 22.5201 42.5277 22.6237C42.6897 22.8309 42.8613 23.0511 43.0427 23.2811C43.4086 23.7377 43.8101 24.2364 44.2441 24.7577C44.678 25.2759 45.1443 25.8199 45.6268 26.3672C45.8697 26.6424 46.1125 26.9177 46.3619 27.1962L46.7343 27.6074L46.9221 27.8082C46.9221 27.8082 46.9189 27.8147 46.9124 27.8244L46.8898 27.8503C46.8768 27.8665 46.8606 27.8827 46.8477 27.9021C46.825 27.9377 46.7958 27.9734 46.7732 28.0122C46.6825 28.1612 46.6242 28.3263 46.5918 28.498C46.5627 28.6663 46.5594 28.8412 46.5918 29.0128ZM40.8601 20.4249C41.1062 20.2047 41.3199 20.0136 41.4947 19.8549C41.6599 19.7125 41.7797 19.6509 41.8639 19.6218C41.974 19.5797 42.0744 19.5991 42.1521 19.625C42.2298 19.6509 42.2752 19.6898 42.3108 19.7157C42.314 19.7222 42.3173 19.7222 42.3205 19.7254C42.327 19.7513 42.3432 19.7805 42.3885 19.8226C42.4565 19.8938 42.5893 19.9877 42.7933 20.2274C42.9261 20.3763 43.1722 20.7196 43.5219 21.1794C43.8716 21.636 44.3185 22.2092 44.8237 22.8633C45.3354 23.5142 45.9085 24.2428 46.5173 25.0136C47.1197 25.7843 47.7868 26.5744 48.3146 27.4131C48.5737 27.8341 48.7939 28.268 48.946 28.7182C48.9849 28.8347 48.9979 28.9092 48.9914 28.9286C48.9881 28.9513 48.9687 28.9967 48.9104 29.0582C48.7971 29.1748 48.5574 29.3302 48.3697 29.4759C48.1462 29.6411 47.9292 29.8062 47.7122 29.9649L47.6605 30.0038C47.1359 30.3956 46.6339 30.768 46.1741 31.1113C44.8496 32.1054 43.8587 32.8697 43.5284 33.1676C43.279 33.391 43.1495 33.5367 43.0848 33.6339C42.9131 33.6501 42.7382 33.6663 42.5536 33.6727C42.1068 33.6922 41.634 33.7116 41.1385 33.7278C41.2292 33.6663 41.3393 33.5886 41.4818 33.4817C41.7733 33.268 42.476 32.6948 43.4668 31.9759C43.9591 31.6164 44.5258 31.2181 45.1476 30.8133C45.4584 30.6093 45.7823 30.3988 46.119 30.1948C46.2874 30.0912 46.4558 29.9876 46.6275 29.8839C46.8736 29.7382 47.1197 29.5925 47.369 29.4468C47.2945 29.327 47.2201 29.2007 47.1553 29.0808C47.1326 29.0226 47.1197 28.9675 47.1099 28.9189C47.0905 28.8121 47.0905 28.6987 47.1099 28.5919C47.1326 28.4818 47.1715 28.3749 47.2265 28.2842L47.2718 28.2162C47.2783 28.2065 47.2913 28.1968 47.2978 28.1871L47.3366 28.1417C47.4499 28.0446 47.573 27.9507 47.6896 27.8632C47.3755 27.5232 47.0646 27.18 46.7537 26.8399C46.5076 26.5647 46.2615 26.2927 46.0187 26.0207C45.5361 25.4766 45.0731 24.9423 44.6359 24.4307C44.202 23.9125 43.7907 23.4235 43.4151 22.9799C42.9876 22.4553 42.6023 21.9825 42.2687 21.5777C42.2007 21.6457 42.1327 21.7137 42.0647 21.7785C42.0064 21.8335 41.9481 21.8854 41.8898 21.9339C41.825 21.9825 41.7603 22.0214 41.6923 22.0538C41.5595 22.1218 41.43 22.1606 41.3134 22.1865C41.0737 22.2286 40.8924 22.2157 40.7759 22.206C40.4909 22.1703 40.3354 22.0991 40.2415 22.0764C40.1476 22.0473 40.112 22.0602 40.0893 22.0894C40.0764 22.1056 40.0699 22.125 40.0926 22.1671C40.0084 22.2124 39.8691 22.3128 39.6295 22.5071C38.9948 23.0252 36.2066 25.6191 33.3537 28.1385C30.5104 30.6676 27.5733 33.0834 26.9742 33.6371C26.822 33.7796 26.7216 33.8865 26.6504 33.9674C26.2812 33.9966 26.0966 34.0354 26.0092 34.0808C25.8117 33.9383 25.6401 33.812 25.4976 33.7019L25.4943 33.6987C25.5882 33.6307 25.7048 33.5367 25.8538 33.4137C26.2391 33.0704 27.3272 32.1054 28.7682 30.8263C30.2158 29.5536 32.0486 28.0057 33.8815 26.4514C35.7111 24.8937 37.5376 23.3296 38.9948 22.0635C39.7201 21.4255 40.3549 20.8685 40.8601 20.4249ZM37.693 19.7092C38.4767 20.2371 39.27 20.739 39.4999 20.8135C39.2085 21.0564 38.8976 21.3122 38.5641 21.5842C37.081 22.8212 35.2416 24.3691 33.4087 25.9235C31.8252 27.2674 30.2514 28.621 28.9301 29.8095C29.7235 28.8185 30.8699 27.3516 32.0098 25.8717C32.9003 24.7156 33.7876 23.5498 34.4903 22.6107C34.84 22.1379 35.1444 21.7234 35.3873 21.3931C35.6302 21.0596 35.7888 20.7876 35.8569 20.6419C35.9702 20.386 35.9961 20.25 35.9929 20.1755C36.1386 20.2274 36.4689 20.263 36.8316 20.1108C37.0356 20.0266 37.2493 19.9003 37.4372 19.7222C37.4631 19.6995 37.4858 19.6801 37.5084 19.6542L37.544 19.6186L37.5505 19.6121H37.557V19.6186L37.693 19.7092ZM35.5881 18.9806C35.7597 18.7507 35.9249 18.524 36.0868 18.3038C36.2519 18.0771 36.4009 17.8634 36.5239 17.7889C36.5855 17.7501 36.6179 17.7403 36.6697 17.7436C36.7247 17.7468 36.8089 17.7792 36.9061 17.8278C37.1101 17.9314 37.3174 18.0415 37.5084 18.1484C37.8937 18.3589 38.237 18.5661 38.5382 18.7539C39.1373 19.1328 39.5647 19.4372 39.7946 19.5862C40.18 19.8452 40.3807 19.9586 40.4974 19.9942C40.4909 19.9974 40.4876 20.0007 40.4812 20.0071C40.2642 20.1853 40.0181 20.3893 39.7558 20.6062C39.7428 20.5836 39.7267 20.5641 39.704 20.5382C39.5647 20.3731 38.7843 19.8064 37.9844 19.2656L37.816 19.1555C37.7189 19.0842 37.6088 19.0421 37.4954 19.0551C37.3821 19.0648 37.2849 19.1263 37.2072 19.2138L37.1295 19.298C37.1133 19.3174 37.0939 19.3336 37.0777 19.353C36.9352 19.4923 36.7766 19.5991 36.6308 19.6736C36.3329 19.8226 36.0997 19.8096 36.0123 19.8226C35.8796 19.842 35.8375 19.8776 35.8083 19.9489C35.7921 19.9877 35.7824 20.0363 35.8601 20.1011C35.8083 20.1399 35.7273 20.2403 35.559 20.4735C35.3938 20.7228 34.8336 21.3996 34.1017 22.3258C33.3731 23.2487 32.4728 24.4015 31.5823 25.5576C29.798 27.8762 28.0396 30.211 27.7093 30.7486C27.6154 30.9105 27.5571 31.0206 27.5248 31.1015C26.5176 32.0504 25.7955 32.7822 25.5267 33.0996C25.3875 33.2615 25.2903 33.3845 25.2191 33.4849C25.1219 33.4104 25.0378 33.3392 24.9568 33.2777C25.0604 33.1805 25.2191 32.9927 25.4749 32.6624C25.8117 32.222 26.7054 30.9396 27.9328 29.2687C29.1536 27.5977 30.7112 25.5414 32.2559 23.4754C33.0266 22.4391 33.7973 21.4029 34.5292 20.4184C34.8919 19.9262 35.2481 19.4437 35.5881 18.9806ZM28.1886 27.7985C28.2857 27.5394 28.4541 27.0893 28.6678 26.5226C28.9399 25.8166 29.3123 24.9488 29.7009 24.0842C30.0862 23.2163 30.4781 22.3452 30.7663 21.636C31.0545 20.9236 31.2456 20.3731 31.2844 20.1658C31.2877 20.1561 31.2877 20.1464 31.2877 20.1367C31.3945 20.182 31.6503 20.2306 31.9547 20.1464C32.1263 20.1011 32.3045 20.0169 32.4728 19.9003C32.5894 19.829 32.7416 19.6607 32.787 19.6153H32.7902L32.8517 19.6445C32.9359 19.6833 33.0169 19.7189 33.0978 19.7546C33.2597 19.8258 33.4152 19.8906 33.5545 19.9489C33.6937 20.0071 33.8168 20.0525 33.9172 20.0849C33.195 21.0466 32.4373 22.057 31.6795 23.0673C30.4554 24.7059 29.2378 26.3413 28.1886 27.7985ZM27.107 27.5232C27.6316 25.8847 28.3408 23.8607 29.1471 21.8756C29.5487 20.8815 29.9632 19.897 30.3841 18.9677C30.5914 18.5046 30.7987 18.0545 31.0027 17.6238C31.1031 17.4068 31.2035 17.1963 31.3006 16.9923C31.3556 16.8822 31.3362 16.9243 31.3427 16.9113C31.3556 16.9113 31.3298 16.8984 31.4075 16.9243C31.5305 16.9664 31.7345 17.1121 31.8997 17.2125C32.068 17.3194 32.2332 17.4198 32.3886 17.5201C32.706 17.7144 32.9942 17.8925 33.2468 18.0512C33.7552 18.3621 34.1374 18.5855 34.3414 18.6924C34.5454 18.796 34.6911 18.8608 34.8077 18.9061C34.5972 19.1814 34.3867 19.4631 34.1665 19.7513C34.0726 19.6866 33.9301 19.6056 33.752 19.5117C33.6192 19.4437 33.4703 19.366 33.3116 19.285C33.2339 19.2462 33.1529 19.2073 33.0687 19.1652L32.8809 19.0778C32.7967 19.0421 32.7189 19.0324 32.6348 19.0551C32.5506 19.0745 32.4923 19.136 32.4373 19.2073L32.3271 19.3368C32.2753 19.3919 32.217 19.4437 32.1588 19.4858C32.0421 19.5765 31.9191 19.6445 31.8057 19.6866C31.5759 19.7772 31.3945 19.7708 31.3232 19.7869C31.3071 19.7934 31.2973 19.7967 31.2844 19.8031C31.2715 19.7869 31.2552 19.7772 31.239 19.7708C31.184 19.7513 31.116 19.7772 30.9638 20.0525C30.8667 20.2338 30.6335 20.7584 30.3194 21.4514C30.002 22.1477 29.607 23.0123 29.2119 23.8769C28.8233 24.748 28.4606 25.6353 28.2113 26.3672C27.9619 27.099 27.8162 27.6657 27.8 27.873C27.7709 28.1579 27.8097 28.2195 27.8713 28.2421C27.7093 28.472 27.5506 28.6923 27.3985 28.9092C26.8868 29.6346 26.4431 30.292 26.0772 30.8457C26.2327 30.3988 26.5791 29.1521 27.107 27.5232ZM46.5271 54.3752C46.5109 54.9969 46.3911 55.3337 46.3231 55.5345C46.2518 55.732 46.2356 55.8032 46.2744 55.8356C46.2939 55.8518 46.3392 55.8518 46.4169 55.7838C46.2842 55.9943 46.0899 56.2372 45.779 56.5027C45.5815 56.6646 45.2803 56.8946 44.8399 57.0791C44.406 57.267 43.8295 57.4094 43.1463 57.458C42.463 57.5098 41.6729 57.4645 40.7985 57.4062C39.9242 57.3479 38.9754 57.2637 37.9683 57.1439C35.954 56.9107 33.7066 56.5351 31.3751 55.9781C30.2158 55.6996 29.0435 55.3564 27.949 54.8253C26.8641 54.2974 25.8603 53.5559 25.2159 52.5552C24.5552 51.5611 24.3027 50.3402 24.1796 49.1226C24.118 48.5106 24.0889 47.8953 24.0533 47.2768C24.0144 46.6583 23.9756 46.0463 23.927 45.4439C23.736 43.0282 23.4542 40.7484 23.1336 38.7277C22.9782 37.7174 22.7871 36.7653 22.6576 35.9169C22.5313 35.0685 22.5054 34.2945 22.6414 33.6468C22.7062 33.3165 22.8001 33.0478 22.9393 32.8146C23.0753 32.5782 23.2535 32.3871 23.4154 32.2188C23.7489 31.8917 24.0727 31.6942 24.2929 31.5743C24.9244 31.2408 25.3454 31.2116 25.5818 31.1955C25.572 31.4027 25.5947 31.4901 25.6336 31.5258C25.3745 31.9305 25.1899 32.2382 25.0895 32.4228C24.9017 32.7628 24.8046 32.9798 24.7592 33.119C24.5358 32.9441 24.3836 32.8276 24.2767 32.7531C24.1083 32.6365 24.0468 32.6365 24.0112 32.6689C23.9821 32.6948 23.9788 32.7434 24.0954 32.915C24.2119 33.0834 24.4548 33.3781 24.9568 33.8541C25.2838 34.165 25.9412 34.7317 26.9354 35.3664C27.4308 35.6805 28.0137 36.0108 28.684 36.312C29.3511 36.6196 30.1283 36.8722 30.9476 37.0665C32.5959 37.468 34.4806 37.6656 36.443 37.834C38.4054 38.0056 40.4714 38.1837 42.5375 38.3618C43.0621 38.4104 43.5608 38.4266 43.9429 38.6079C44.3315 38.7795 44.6521 39.1163 44.8982 39.5082C45.1443 39.9065 45.3159 40.3566 45.4552 40.8229C45.5944 41.286 45.6948 41.7588 45.7725 42.2348C45.7985 42.4 45.8211 42.5619 45.8405 42.727C45.6203 42.7594 45.3937 42.7885 45.1605 42.8112C44.7719 42.8533 44.3671 42.8825 43.9493 42.9116C43.5284 42.9407 43.0782 42.9699 42.6119 43.0865C42.1456 43.1998 41.6664 43.4135 41.2843 43.7924C41.0932 43.9835 40.928 44.2231 40.8309 44.4822C40.7337 44.7412 40.6851 45.0035 40.6657 45.2594C40.5816 46.2924 40.928 47.3837 41.6955 48.1706C42.0777 48.5592 42.5796 48.8571 43.1107 48.9964C43.6417 49.1388 44.1825 49.1583 44.7006 49.1226C45.2544 49.0773 45.8017 48.9899 46.336 48.8636C46.5076 51.587 46.54 53.6239 46.5271 54.3752ZM46.9545 48.7017C47.1974 48.6337 47.4338 48.5559 47.6701 48.4717C47.628 48.6596 47.5989 48.9866 47.4759 49.1745C47.4046 49.2943 47.288 49.3785 47.178 49.4335C47.1034 49.4691 47.0419 49.4918 46.9934 49.5145C46.9804 49.2522 46.9707 48.9802 46.9545 48.7017ZM50.4163 49.9452C50.3353 50.4601 50.1896 50.9426 49.9823 51.2988C49.7783 51.655 49.4706 51.8655 49.1468 52.0306C48.8295 52.1893 48.5089 52.3091 48.2628 52.403C48.0134 52.4969 47.8191 52.5585 47.6864 52.5973C47.3982 52.6815 47.1942 52.7139 47.0484 52.7333C47.0581 52.0015 47.0452 51.0948 47.0096 50.052V50.0488C47.1002 50.0715 47.2265 50.0779 47.3787 50.0456C47.6216 49.9937 47.926 49.8124 48.0912 49.521C48.2563 49.236 48.2822 48.9316 48.2693 48.7211C48.2563 48.5074 48.2142 48.3616 48.1656 48.3131C48.1559 48.3034 48.1495 48.3001 48.1365 48.2904C48.9169 47.9763 49.652 47.5845 50.3288 47.1311C50.3838 47.0955 50.4357 47.0599 50.4875 47.021C50.4972 47.4387 50.5037 47.8468 50.5069 48.2451C50.5101 48.8539 50.4972 49.4238 50.4163 49.9452ZM52.6831 42.6428C52.5859 43.3941 52.3495 44.181 51.8767 44.8449C51.6727 45.1266 51.4201 45.3921 51.1384 45.6415C50.9279 45.8325 50.7012 46.0139 50.4648 46.1855C50.2867 46.3183 50.1053 46.4446 49.9208 46.5709C49.0206 47.1667 47.9972 47.6525 46.9157 47.9763C46.7084 48.0411 46.4979 48.0993 46.2874 48.1512C45.7434 48.2839 45.1864 48.3746 44.6262 48.4199C44.1566 48.4523 43.6936 48.4296 43.2726 48.3098C42.8484 48.1933 42.4792 47.9698 42.178 47.6589C41.5757 47.0372 41.2778 46.124 41.3555 45.2917C41.3911 44.8578 41.511 44.5146 41.7829 44.2587C42.0517 43.9932 42.4144 43.8216 42.803 43.7276C43.1916 43.6305 43.6061 43.5981 44.0238 43.5657C44.4481 43.5334 44.8593 43.4945 45.2641 43.4459C45.4843 43.4168 45.7013 43.3876 45.915 43.352C46.1449 43.3131 46.3716 43.2711 46.5886 43.2192C46.9092 43.1512 47.2136 43.067 47.505 42.9699C48.1786 42.74 48.7777 42.4485 49.2504 42.0988C49.6099 41.8397 49.8981 41.5677 50.128 41.3086C50.4163 40.9783 50.6105 40.6675 50.7368 40.4246C50.7757 40.3501 50.8081 40.2821 50.834 40.2238C51.0963 39.6118 51.1028 39.2038 51.1028 38.9835C51.0801 38.7569 51.0412 38.6986 50.9926 38.6953C50.9538 38.6953 50.9117 38.7439 50.8599 38.9447C50.8113 39.0807 50.7628 39.2977 50.6332 39.5988C50.5684 39.1001 50.4972 38.6111 50.4195 38.1286C50.3482 37.6656 50.2705 37.2154 50.1928 36.7783C50.2867 36.7945 50.413 36.8139 50.5878 36.8366C50.7724 36.8689 51.0153 36.9013 51.2938 37.0017C51.4751 37.0665 51.731 37.1831 51.935 37.4421C52.1422 37.6947 52.2491 38.1254 52.3462 38.6727C52.4499 39.2167 52.5697 39.8255 52.6506 40.4926C52.7316 41.1597 52.7802 41.8915 52.6831 42.6428Z" fill="white"/>
<path d="M47.6572 42.2769H47.6539C47.3074 42.4032 46.9253 42.5133 46.5205 42.6007C46.4978 42.4323 46.4751 42.2639 46.4493 42.0955C46.3683 41.6001 46.2679 41.0949 46.1157 40.593C45.9635 40.0943 45.7757 39.5826 45.4746 39.1131C45.1831 38.6435 44.7654 38.1934 44.2019 37.9505C43.6287 37.7044 43.0685 37.7076 42.5665 37.6558C40.5005 37.4842 38.4345 37.3093 36.4721 37.1442C36.3717 37.1345 36.2713 37.128 36.1709 37.1183C37.9261 37.0762 40.5491 36.9952 43.1721 36.9466C44.1825 36.9272 45.1896 36.911 46.1481 36.8916C46.378 36.8851 46.5755 36.9045 46.6597 36.9563C46.7018 36.9855 46.7213 37.0017 46.7504 37.06C46.7795 37.115 46.8022 37.2057 46.8282 37.3126C46.9318 37.74 47.0224 38.1578 47.0969 38.5496C47.3981 40.1234 47.4887 41.3345 47.5535 41.762C47.5891 42.0016 47.6248 42.1635 47.6572 42.2769Z" fill="white"/>
<path d="M47.6702 48.4717C47.6281 48.6595 47.599 48.9866 47.476 49.1744C47.4047 49.2942 47.2881 49.3784 47.178 49.4335C47.1035 49.4691 47.042 49.4917 46.9935 49.5144C46.9805 49.2521 46.9708 48.9801 46.9546 48.7016C47.1975 48.6336 47.4338 48.5559 47.6702 48.4717Z" fill="white"/>
<path d="M44.9047 44.4336C44.6974 44.3429 44.474 44.3073 44.2797 44.317C44.0886 44.3267 43.9203 44.372 43.7842 44.4271C43.509 44.5404 43.3536 44.6894 43.2823 44.7703C43.2467 44.8189 43.2175 44.861 43.1949 44.8966C43.1204 44.9484 43.0394 45.0197 42.952 45.1136C42.8516 45.2237 42.7512 45.3694 42.6897 45.5637C42.6217 45.7548 42.6217 45.9977 42.6703 46.2017C42.7189 46.4089 42.7933 46.6097 42.9196 46.8105C43.0459 47.0112 43.2273 47.2153 43.4863 47.3415C44.0174 47.6038 44.6586 47.4452 45.0666 47.0663C45.2707 46.8785 45.4196 46.6518 45.52 46.4154C45.6236 46.179 45.6884 45.9458 45.7045 45.6738C45.7208 45.405 45.6301 45.0974 45.4714 44.8869C45.316 44.6732 45.112 44.5275 44.9047 44.4336Z" fill="white"/>
<path d="M39.1934 45.6685C38.9204 45.607 38.6864 45.6371 38.494 45.6692C38.2962 45.7041 38.1099 45.762 37.952 45.8443C37.6554 45.9929 37.4973 46.2217 37.4409 46.3614C37.3577 46.4555 37.2686 46.581 37.1934 46.7491C37.0521 47.0513 36.9881 47.5192 37.1472 47.9824C37.2225 48.214 37.3475 48.4416 37.5159 48.6482C37.6919 48.8525 37.8763 49.0421 38.1925 49.1825C38.5259 49.3227 38.9079 49.2623 39.1865 49.1277C39.4748 48.9922 39.7082 48.7955 39.9021 48.5657C40.2891 48.1105 40.5064 47.4615 40.3484 46.8471C40.1916 46.254 39.7334 45.7914 39.1934 45.6685ZM39.3551 48.1192C39.0875 48.4492 38.6642 48.6487 38.4422 48.539C38.3121 48.4884 38.1394 48.3452 38.0228 48.2094C37.9015 48.0689 37.808 47.9143 37.7505 47.7605C37.6296 47.4502 37.6512 47.1645 37.7212 46.9475C37.7905 46.7297 37.8942 46.5915 37.9422 46.5153C37.9521 46.5006 37.9572 46.4915 37.9661 46.4781C38.023 46.4346 38.0953 46.39 38.1942 46.3534C38.2999 46.3139 38.4321 46.2842 38.588 46.2691C38.747 46.2536 38.9097 46.252 39.0438 46.2935C39.3208 46.3697 39.6003 46.6638 39.6811 47.0222C39.7619 47.3708 39.6309 47.8012 39.3551 48.1192Z" fill="white"/>
<path d="M39.0533 29.8991C38.6286 29.8114 38.2469 29.9318 37.9322 30.0452C37.5266 29.5898 37.1335 29.144 36.8164 28.7741C36.7286 28.6715 36.6463 28.5752 36.57 28.4864C36.6745 28.424 36.7798 28.3733 36.8786 28.3481C37.1775 28.2669 37.4195 28.304 37.5424 28.3142C37.9067 28.3656 37.9883 28.3732 38.0449 28.2818C38.0663 28.2494 38.0791 28.2134 38.0369 28.1455C37.993 28.0812 37.8936 27.9778 37.6589 27.8762C37.5078 27.8163 37.1872 27.7189 36.7463 27.7999C36.5614 27.832 36.3587 27.9095 36.1631 28.0292C36.1242 27.9893 36.0903 27.9564 36.0647 27.9358C35.8841 27.7977 35.8034 27.818 35.7233 27.873C35.6593 27.917 35.6125 27.9743 35.6971 28.2011C35.7104 28.2382 35.7347 28.2891 35.7689 28.3517C35.6558 28.4733 35.5529 28.6131 35.4697 28.7761C35.321 29.0648 35.2367 29.4259 35.2866 29.7986C35.3282 30.1644 35.5325 30.5805 35.903 30.8126C36.2655 31.0453 36.6919 31.1002 37.0859 31.0496C37.3246 31.0164 37.5343 30.9485 37.7297 30.876C38.1505 31.3383 38.5638 31.7857 38.909 32.148C38.5579 32.332 38.1125 32.3628 37.8017 32.3648C37.4614 32.3606 37.2411 32.288 37.1314 32.2503C36.8148 32.131 36.7416 32.0555 36.6486 32.1164C36.6155 32.1365 36.5918 32.1686 36.6092 32.257C36.631 32.3389 36.6998 32.4919 36.9163 32.6494C37.0546 32.753 37.3608 32.8913 37.777 32.9281C37.9874 32.9476 38.2133 32.9481 38.4708 32.9215C38.727 32.8924 39.0214 32.8297 39.3114 32.6667C39.333 32.6544 39.3527 32.6378 39.3739 32.6244C39.5358 32.7848 39.6605 32.9 39.7304 32.9493C39.9226 33.0731 40.0094 33.0559 40.0845 32.9941C40.1444 32.9447 40.1773 32.873 40.0752 32.6549C40.0398 32.5734 39.941 32.427 39.799 32.238C39.8818 32.1324 39.9574 32.0186 40.015 31.8893C40.1734 31.5511 40.1996 31.0948 40.0256 30.7112C39.8653 30.3332 39.5117 29.9883 39.0533 29.8991ZM36.9841 30.3549C36.717 30.3914 36.449 30.3449 36.2693 30.2275C36.0889 30.1155 35.9836 29.9209 35.9492 29.696C35.915 29.4719 35.9587 29.2467 36.0505 29.0514C36.0733 29.0026 36.1051 28.9642 36.1325 28.9205C36.1905 29.0036 36.2519 29.09 36.3191 29.1814C36.5703 29.5228 36.885 29.9107 37.2219 30.3024C37.1397 30.3261 37.0598 30.3455 36.9841 30.3549ZM38.4486 30.6223C38.6247 30.5765 38.7863 30.5565 38.9207 30.5888C39.1274 30.6253 39.3064 30.7913 39.3982 30.9987C39.506 31.2194 39.4727 31.4721 39.3647 31.6901C39.0993 31.3678 38.7825 30.9986 38.4486 30.6223Z" fill="white"/>
<path d="M25.7557 24.7494C25.832 24.7639 25.9067 24.7534 25.9973 24.6117C26.1129 24.4254 26.3585 23.5095 26.6533 22.6115C26.941 21.711 27.2775 20.8283 27.2787 20.6063C27.2755 20.4424 27.2122 20.393 27.1232 20.3539C27.0521 20.3227 26.9811 20.3072 26.8612 20.4296C26.7041 20.5878 26.2759 21.4713 25.9782 22.4052C25.6731 23.3365 25.5028 24.3047 25.5521 24.5259C25.5893 24.6892 25.6603 24.7313 25.7557 24.7494Z" fill="#04D1D2"/>
<path d="M24.0091 23.8262C24.0859 23.8384 24.1578 23.8405 24.2279 23.7931C24.318 23.7303 24.4293 23.395 24.5209 23.0585C24.6107 22.7214 24.6816 22.3797 24.6196 22.2809C24.571 22.2079 24.4991 22.1775 24.4064 22.1483C24.3322 22.125 24.2627 22.1087 24.1861 22.148C24.0867 22.1989 23.9284 22.5387 23.8334 22.8979C23.7366 23.2565 23.7045 23.6289 23.7803 23.7205C23.8381 23.7884 23.9132 23.8109 24.0091 23.8262Z" fill="#04D1D2"/>
<path d="M27.8758 57.0748C27.7793 57.026 27.5017 56.9484 27.1485 56.8222C26.7955 56.6947 26.3709 56.5025 25.9758 56.2605C25.5816 56.0167 25.2198 55.7264 24.9474 55.4722C24.6761 55.2172 24.4809 55.0096 24.3889 54.9512C24.2479 54.87 24.1709 54.8958 24.0902 54.9499C24.0257 54.9932 23.9743 55.0439 24.0222 55.2178C24.0511 55.3326 24.2158 55.6059 24.4915 55.9252C24.7675 56.2432 25.1674 56.5924 25.6164 56.8682C26.0662 57.1426 26.5606 57.3403 26.9715 57.4402C27.3833 57.5391 27.7041 57.5585 27.8199 57.5246C27.9901 57.477 28.0253 57.403 28.0345 57.3063C28.042 57.229 28.0229 57.1548 27.8758 57.0748Z" fill="#04D1D2"/>
<path d="M25.3476 58.2842C24.9871 58.1753 24.6906 58.0199 24.5764 58.0389C24.4904 58.0591 24.4336 58.1137 24.3728 58.1894C24.3242 58.25 24.283 58.3082 24.3057 58.4026C24.3264 58.5298 24.7157 58.8373 25.1521 58.9626C25.5839 59.0969 26.0065 59.1182 26.106 59.0462C26.1807 58.9889 26.2044 58.9139 26.219 58.8178C26.2307 58.741 26.2312 58.669 26.174 58.5979C26.0993 58.5044 25.7027 58.3981 25.3476 58.2842Z" fill="#04D1D2"/>
</g>
<defs>
<clipPath id="clip0_4288_3069">
<rect width="31.4017" height="42.8267" fill="white" transform="translate(21.9658 16.26)"/>
</clipPath>
</defs>
</svg>
