<svg width="286" height="24" viewBox="0 0 286 24" fill="none" xmlns="http://www.w3.org/2000/svg">
<path d="M169.79 0.796374C169.779 0.795977 169.768 0.795581 169.757 0.795383C163.958 0.630541 158.086 0.546372 152.302 0.545098C150.773 0.544799 149.561 1.45614 149.596 2.58082C149.631 3.70527 150.875 4.62043 152.429 4.61768C158.142 4.61912 163.943 4.70224 169.671 4.86486C171.201 4.90844 172.461 4.03264 172.484 2.90876C172.508 1.79297 171.304 0.852229 169.79 0.796374ZM190.592 1.73593C189.106 1.68112 187.845 2.50137 187.753 3.59864C187.66 4.71915 188.822 5.70441 190.349 5.79886C196.061 6.15253 201.845 6.59141 207.54 7.10329C209.069 7.24087 210.419 6.44625 210.57 5.33005C210.721 4.21383 209.609 3.19783 208.087 3.06088C202.323 2.5429 196.469 2.09864 190.687 1.74063C190.656 1.73867 190.624 1.7371 190.592 1.73593ZM131.647 0.898129C131.558 0.89484 131.468 0.894665 131.377 0.89785C125.581 1.09545 119.73 1.38014 113.987 1.74409C112.466 1.84053 111.368 2.827 111.535 3.94742C111.7 5.06821 113.069 5.89945 114.59 5.80183C120.26 5.44252 126.037 5.16123 131.761 4.96608C133.288 4.91412 134.439 3.96123 134.333 2.8377C134.233 1.78118 133.057 0.950101 131.647 0.898129ZM228.553 5.25365C227.168 5.20257 225.943 5.92003 225.739 6.94854C225.52 8.0575 226.569 9.10833 228.083 9.29574C233.755 9.99704 239.481 10.7868 245.101 11.6431C246.606 11.8715 248.05 11.1655 248.327 10.0644C248.604 8.96348 247.609 7.88501 246.104 7.65587C240.416 6.78918 234.62 5.98987 228.879 5.27989C228.77 5.26638 228.661 5.25763 228.553 5.25365ZM93.7321 3.41681C93.5639 3.4106 93.3927 3.41555 93.2204 3.43271C87.4992 4.00154 81.717 4.66414 76.0343 5.40212C74.5335 5.5969 73.5605 6.65279 73.8602 7.76054C74.1605 8.86832 75.6204 9.60809 77.1196 9.41325C82.7299 8.68465 88.4386 8.03061 94.0874 7.46878C95.5985 7.31864 96.6295 6.29334 96.3903 5.17874C96.1781 4.19137 95.04 3.46503 93.7321 3.41681ZM266.059 11.076C264.77 11.0285 263.591 11.6505 263.289 12.6044C262.943 13.6937 263.871 14.8033 265.361 15.0826C270.947 16.1301 276.573 17.2697 282.083 18.4696C283.554 18.7897 285.081 18.1781 285.485 17.1C285.888 16.0223 285.019 14.888 283.543 14.5667C277.965 13.3518 272.269 12.1982 266.614 11.138C266.428 11.1031 266.242 11.0828 266.059 11.076ZM56.3471 8.3849C56.1004 8.37581 55.8486 8.39103 55.5974 8.43293C49.9723 9.37219 44.3039 10.4079 38.7498 11.5111C37.2817 11.8027 36.4406 12.9198 36.8714 14.0059C37.3024 15.0918 38.8428 15.7352 40.3098 15.4446C45.7932 14.3555 51.3893 13.3329 56.9435 12.4055C58.4274 12.1577 59.3296 11.0674 58.9579 9.97045C58.6493 9.05915 57.5582 8.42956 56.3471 8.3849ZM19.7807 15.7663C19.4559 15.7543 19.1239 15.7845 18.7985 15.8618C13.3166 17.1657 7.80674 18.5694 2.42166 20.0338C0.997675 20.4208 0.297296 21.5907 0.857216 22.6466C1.41714 23.7025 3.0248 24.244 4.44904 23.8573C9.76427 22.412 15.2029 21.0264 20.614 19.7395C22.0596 19.3957 22.825 18.249 22.3237 17.178C21.9352 16.3481 20.9 15.8075 19.7807 15.7663Z" fill="#04D1D2"/>
</svg>
