<svg width="285" height="30" viewBox="0 0 285 30" fill="none" xmlns="http://www.w3.org/2000/svg">
<path d="M168.301 29.0694C168.29 29.0695 168.28 29.0695 168.269 29.0693C162.468 29.0338 156.596 28.9151 150.816 28.7166C149.287 28.6641 148.107 27.7114 148.181 26.5887C148.255 25.4661 149.53 24.5944 151.083 24.6509C156.792 24.8467 162.593 24.964 168.323 24.9993C169.854 25.0086 171.082 25.9274 171.067 27.0514C171.052 28.1673 169.817 29.0659 168.301 29.0694ZM189.123 28.8489C187.636 28.8523 186.405 27.989 186.351 26.8892C186.296 25.7662 187.492 24.8216 189.022 24.78C194.742 24.6238 200.537 24.3849 206.247 24.07C207.779 23.9853 209.101 24.8261 209.214 25.9469C209.326 27.0676 208.18 28.0446 206.654 28.1289C200.875 28.4475 195.01 28.6894 189.219 28.8475C189.187 28.8483 189.155 28.8488 189.123 28.8489ZM130.185 27.6505C130.096 27.6507 130.006 27.6477 129.915 27.6414C124.129 27.2438 118.291 26.7572 112.565 26.1951C111.048 26.0462 109.985 25.0224 110.19 23.9084C110.394 22.794 111.79 22.0105 113.307 22.1606C118.962 22.7155 124.726 23.1962 130.439 23.5889C131.963 23.6935 133.081 24.6856 132.936 25.8048C132.8 26.8572 131.595 27.6472 130.185 27.6505ZM227.183 26.6443C225.797 26.6475 224.598 25.8882 224.43 24.8532C224.249 23.7373 225.334 22.7234 226.853 22.5884C232.546 22.0834 238.296 21.4918 243.942 20.8301C245.455 20.6539 246.873 21.4093 247.112 22.5193C247.351 23.6292 246.319 24.6726 244.807 24.8497C239.092 25.5194 233.273 26.118 227.51 26.6293C227.401 26.639 227.291 26.644 227.183 26.6443ZM92.3796 23.8239C92.2113 23.8243 92.0403 23.8134 91.8687 23.7903C86.1706 23.0242 80.4148 22.1623 74.7609 21.2285C73.2677 20.982 72.3317 19.8932 72.6695 18.7964C73.0079 17.6997 74.4925 17.0108 75.9841 17.2573C81.5659 18.1792 87.2486 19.03 92.8746 19.7866C94.3796 19.9888 95.3746 21.0491 95.097 22.1548C94.8509 23.1342 93.6883 23.8208 92.3796 23.8239ZM264.868 22.1207C263.578 22.1237 262.422 21.4614 262.152 20.4975C261.844 19.397 262.81 18.3201 264.309 18.0923C269.928 17.2385 275.59 16.2939 281.138 15.285C282.619 15.0158 284.124 15.6798 284.491 16.7712C284.856 17.8622 283.948 18.9657 282.462 19.2359C276.845 20.2574 271.113 21.2136 265.425 22.0779C265.238 22.1064 265.052 22.1203 264.868 22.1207ZM55.1884 17.5676C54.9416 17.5682 54.6905 17.5443 54.4409 17.4937C48.8516 16.3607 43.2223 15.1299 37.7096 13.8355C36.2524 13.4934 35.4505 12.3479 35.9185 11.2773C36.3868 10.2069 37.9485 9.61714 39.4045 9.95829C44.8471 11.2361 50.4045 12.4513 55.9233 13.57C57.3979 13.8689 58.2618 14.9897 57.8525 16.0732C57.5126 16.9733 56.4004 17.5648 55.1884 17.5676ZM18.8988 8.92778C18.5738 8.92853 18.243 8.88685 17.9205 8.79836C12.4868 7.3059 7.02878 5.7128 1.69749 4.06334C0.287722 3.62731 -0.371837 2.43398 0.224216 1.39804C0.820269 0.362101 2.44568 -0.123595 3.85571 0.312037C9.11785 1.94014 14.5054 3.51265 19.8688 4.98573C21.3016 5.37926 22.027 6.55172 21.4891 7.6047C21.0721 8.42067 20.0188 8.92518 18.8988 8.92778Z" fill="#04D1D2"/>
</svg>
