<svg width="24" height="24" viewBox="0 0 24 24" fill="none" xmlns="http://www.w3.org/2000/svg">
<path fill-rule="evenodd" clip-rule="evenodd" d="M12.0629 2.43311C17.4014 2.43311 21.7288 6.76054 21.7288 12.099C21.7288 17.4375 17.4014 21.765 12.0629 21.765C6.72441 21.765 2.39697 17.4375 2.39697 12.099C2.39697 6.76054 6.72441 2.43311 12.0629 2.43311ZM13.4954 16.874C12.542 16.9518 11.5838 16.9518 10.6304 16.874C10.7203 17.2577 10.8208 17.6135 10.9301 17.9392C11.1727 18.669 11.4424 19.189 11.6937 19.507C11.8164 19.6636 11.916 19.7467 11.9836 19.7873L12.0329 19.8144L12.0619 19.8221L12.0929 19.8144L12.1422 19.7883C12.2543 19.7123 12.3524 19.6175 12.4321 19.508C12.6835 19.189 12.9531 18.669 13.1958 17.9392C13.305 17.6135 13.4055 17.2577 13.4954 16.874ZM5.1102 15.4869C5.98798 17.284 7.52584 18.6726 9.40284 19.363C9.28887 19.0968 9.18632 18.8259 9.09547 18.5511C8.88461 17.9079 8.7167 17.2514 8.59284 16.586C7.39638 16.3437 6.22898 15.9753 5.1102 15.4869ZM19.0166 15.4869C17.9098 15.9702 16.7441 16.3405 15.532 16.586C15.4087 17.2518 15.2408 17.9087 15.0294 18.552C14.9366 18.8323 14.8341 19.1049 14.722 19.362C16.5997 18.672 18.1383 17.2833 19.0166 15.486V15.4869ZM13.9729 11.0078C12.7051 11.1749 11.4208 11.1749 10.1529 11.0078C10.0978 12.3062 10.1433 13.6069 10.2892 14.8983C11.4679 15.0327 12.658 15.0327 13.8366 14.8983C13.9438 13.9691 13.9971 13.0344 13.9961 12.099C13.9961 11.7279 13.9884 11.3644 13.9729 11.0068V11.0078ZM4.87918 9.23019C4.40661 10.4121 4.23393 11.6925 4.37656 12.9574C5.60755 13.6639 6.93051 14.1964 8.30769 14.5397C8.18885 13.2373 8.16495 11.928 8.23616 10.6221C7.06294 10.3016 5.93499 9.8339 4.87918 9.23019ZM19.2466 9.23019C18.1908 9.83389 17.0629 10.3016 15.8896 10.6221C15.9609 11.928 15.937 13.2373 15.8181 14.5397C17.195 14.1963 18.5176 13.6638 19.7483 12.9574C19.8908 11.6929 19.7181 10.4127 19.2457 9.23116L19.2466 9.23019ZM12.0784 4.37789L12.0677 4.37596L12.0484 4.37886L12.0117 4.39336C11.888 4.47183 11.7799 4.57243 11.6927 4.6901C11.4414 5.00908 11.1727 5.5291 10.9291 6.25792C10.6681 7.03892 10.4574 7.99778 10.3172 9.0794C11.4755 9.24033 12.6504 9.24033 13.8086 9.0794C13.6684 7.99682 13.4567 7.03892 13.1967 6.25792C12.9531 5.5291 12.6844 5.00811 12.4331 4.6901C12.3531 4.58087 12.255 4.48607 12.1431 4.40979L12.0784 4.37789ZM9.40284 4.83606C7.96697 5.36377 6.71927 6.30442 5.81678 7.53962C6.63162 8.00745 7.50445 8.38635 8.42175 8.66377C8.5764 7.53865 8.80549 6.51503 9.09547 5.64606C9.18922 5.36478 9.29168 5.09317 9.40284 4.83606ZM14.723 4.83606C14.8341 5.09317 14.9356 5.36478 15.0303 5.64606C15.3203 6.516 15.5494 7.53865 15.7041 8.66377C16.6123 8.38917 17.4862 8.01202 18.309 7.53962C17.4066 6.30438 16.1589 5.36372 14.723 4.83606Z" fill="white"/>
</svg>
