<svg width="25" height="25" viewBox="0 0 25 25" fill="none" xmlns="http://www.w3.org/2000/svg">
<path fill-rule="evenodd" clip-rule="evenodd" d="M12.2578 2.75293C17.7808 2.75293 22.2578 7.22993 22.2578 12.7529C22.2578 18.2759 17.7808 22.7529 12.2578 22.7529C6.73481 22.7529 2.25781 18.2759 2.25781 12.7529C2.25781 7.22993 6.73481 2.75293 12.2578 2.75293ZM13.7398 17.6929C12.7535 17.7735 11.7622 17.7735 10.7758 17.6929C10.8688 18.0899 10.9728 18.4579 11.0858 18.7949C11.3368 19.5499 11.6158 20.0879 11.8758 20.4169C12.0028 20.5789 12.1058 20.6649 12.1758 20.7069L12.2268 20.7349L12.2568 20.7429L12.2888 20.7349L12.3398 20.7079C12.4559 20.6294 12.5574 20.5312 12.6398 20.4179C12.8998 20.0879 13.1788 19.5499 13.4298 18.7949C13.5428 18.4579 13.6468 18.0899 13.7398 17.6929ZM5.06481 16.2579C5.97293 18.1171 7.56394 19.5537 9.50581 20.2679C9.3879 19.9926 9.28181 19.7123 9.18781 19.4279C8.96967 18.7625 8.79595 18.0834 8.66781 17.3949C7.43001 17.1443 6.22226 16.7632 5.06481 16.2579ZM19.4518 16.2579C18.3068 16.7579 17.1008 17.1409 15.8468 17.3949C15.7193 18.0838 15.5455 18.7634 15.3268 19.4289C15.2308 19.7189 15.1248 20.0009 15.0088 20.2669C16.9514 19.553 18.5431 18.1164 19.4518 16.2569V16.2579ZM14.2338 11.6239C12.9222 11.7968 11.5935 11.7968 10.2818 11.6239C10.2248 12.9672 10.2719 14.3129 10.4228 15.6489C11.6422 15.788 12.8734 15.788 14.0928 15.6489C14.2037 14.6876 14.2588 13.7206 14.2578 12.7529C14.2578 12.3689 14.2498 11.9929 14.2338 11.6229V11.6239ZM4.82581 9.78493C4.3369 11.0076 4.15825 12.3324 4.30581 13.6409C5.57935 14.3719 6.94803 14.9228 8.37281 15.2779C8.24986 13.9305 8.22513 12.5759 8.29881 11.2249C7.08504 10.8933 5.9181 10.4095 4.82581 9.78493ZM19.6898 9.78493C18.5975 10.4095 17.4306 10.8933 16.2168 11.2249C16.2905 12.5759 16.2658 13.9305 16.1428 15.2779C17.5673 14.9227 18.9356 14.3718 20.2088 13.6409C20.3562 12.3327 20.1776 11.0083 19.6888 9.78593L19.6898 9.78493ZM12.2738 4.76493L12.2628 4.76293L12.2428 4.76593L12.2048 4.78093C12.0769 4.86212 11.965 4.96619 11.8748 5.08793C11.6148 5.41793 11.3368 5.95593 11.0848 6.70993C10.8148 7.51793 10.5968 8.50993 10.4518 9.62893C11.6501 9.79542 12.8656 9.79542 14.0638 9.62893C13.9188 8.50893 13.6998 7.51793 13.4308 6.70993C13.1788 5.95593 12.9008 5.41693 12.6408 5.08793C12.558 4.97492 12.4566 4.87685 12.3408 4.79793L12.2738 4.76493ZM9.50581 5.23893C8.02031 5.78488 6.7295 6.75804 5.79581 8.03593C6.63881 8.51993 7.54181 8.91193 8.49081 9.19893C8.65081 8.03493 8.88781 6.97593 9.18781 6.07693C9.28481 5.78593 9.39081 5.50493 9.50581 5.23893ZM15.0098 5.23893C15.1248 5.50493 15.2298 5.78593 15.3278 6.07693C15.6278 6.97693 15.8648 8.03493 16.0248 9.19893C16.9644 8.91484 17.8685 8.52466 18.7198 8.03593C17.7862 6.758 16.4953 5.78483 15.0098 5.23893Z" fill="#025556"/>
</svg>
